<svg xmlns="http://www.w3.org/2000/svg" xmlns:xlink="http://www.w3.org/1999/xlink" width="557" height="466" viewBox="0 0 557 466">
  <defs>
    <linearGradient id="linear-gradient" x1="1.002" y1="-1.696" x2="0.004" y2="2.659" gradientUnits="objectBoundingBox">
      <stop offset="0" stop-color="#856dd7"/>
      <stop offset="1" stop-color="#d1c4f8"/>
    </linearGradient>
    <linearGradient id="linear-gradient-2" x1="0.127" y1="0.502" x2="1.127" y2="0.502" gradientUnits="objectBoundingBox">
      <stop offset="0" stop-color="#d1c4f8"/>
      <stop offset="1" stop-color="#856dd7"/>
    </linearGradient>
    <linearGradient id="linear-gradient-3" x1="-0.081" y1="0.494" x2="0.919" y2="0.494" xlink:href="#linear-gradient-2"/>
    <linearGradient id="linear-gradient-4" x1="0.098" y1="0.502" x2="1.098" y2="0.502" xlink:href="#linear-gradient-2"/>
    <linearGradient id="linear-gradient-5" x1="0.5" y1="1" x2="0.5" gradientUnits="objectBoundingBox">
      <stop offset="0" stop-color="gray" stop-opacity="0.251"/>
      <stop offset="0.54" stop-color="gray" stop-opacity="0.122"/>
      <stop offset="1" stop-color="gray" stop-opacity="0.102"/>
    </linearGradient>
    <linearGradient id="linear-gradient-6" x1="0.5" x2="0.5" y2="0" xlink:href="#linear-gradient-5"/>
    <linearGradient id="linear-gradient-7" x1="0.5" x2="0.5" y2="0" xlink:href="#linear-gradient-5"/>
    <linearGradient id="linear-gradient-8" x1="1.096" x2="1.096" y2="0" xlink:href="#linear-gradient-5"/>
    <linearGradient id="linear-gradient-9" x1="0.5" x2="0.5" y2="0" xlink:href="#linear-gradient-5"/>
  </defs>
  <g id="Group_2656" data-name="Group 2656" transform="translate(7198 8618)">
    <circle id="Ellipse_79" data-name="Ellipse 79" cx="211" cy="211" r="211" transform="translate(-7198 -8574)" fill="blue" opacity="0.015"/>
    <circle id="Ellipse_80" data-name="Ellipse 80" cx="233" cy="233" r="233" transform="translate(-7107 -8618)" fill="blue" opacity="0.015"/>
    <ellipse id="Ellipse_68" data-name="Ellipse 68" cx="65.907" cy="7.403" rx="65.907" ry="7.403" transform="translate(-7046.336 -8197.698)" fill="blue" opacity="0.1"/>
    <ellipse id="Ellipse_69" data-name="Ellipse 69" cx="132.692" cy="7.403" rx="132.692" ry="7.403" transform="translate(-6971.298 -8198.369)" fill="blue" opacity="0.1"/>
    <path id="Path_9706" data-name="Path 9706" d="M391.3,1137.533H303.437A4.437,4.437,0,0,1,299,1133.1v-87.859a4.437,4.437,0,0,1,4.437-4.437H391.3a4.437,4.437,0,0,1,4.437,4.437V1133.1A4.42,4.42,0,0,1,391.3,1137.533Z" transform="translate(-7425.664 -9411.096)" fill="blue" opacity="0.03"/>
    <path id="Path_9707" data-name="Path 9707" d="M1627.5,147.514h-43.491a3.622,3.622,0,0,1-3.611-3.611V100.411a3.622,3.622,0,0,1,3.611-3.611H1627.5a3.622,3.622,0,0,1,3.611,3.611V143.9A3.606,3.606,0,0,1,1627.5,147.514Z" transform="translate(-8305.521 -8695.604)" fill="blue" opacity="0.03"/>
    <path id="Path_9708" data-name="Path 9708" d="M1522.189,260.922h-27.756a5.13,5.13,0,0,1-5.133-5.133V228.033a5.13,5.13,0,0,1,5.133-5.133h27.756a5.13,5.13,0,0,1,5.133,5.133v27.756A5.13,5.13,0,0,1,1522.189,260.922Z" transform="translate(-8237.922 -8789.176)" fill="blue" opacity="0.03"/>
    <path id="Path_9802" data-name="Path 9802" d="M252.246,995.748H211.9a3.292,3.292,0,0,1-3.3-3.3V952.1a3.292,3.292,0,0,1,3.3-3.3h40.344a3.292,3.292,0,0,1,3.3,3.3v40.344A3.292,3.292,0,0,1,252.246,995.748Z" transform="translate(-7358.583 -9342.827)" fill="blue" opacity="0.03"/>
    <path id="Path_9803" data-name="Path 9803" d="M331.222,135.029H304.833A5.934,5.934,0,0,1,298.9,129.1V102.733a5.934,5.934,0,0,1,5.933-5.933H331.2a5.934,5.934,0,0,1,5.933,5.933V129.1A5.928,5.928,0,0,1,331.222,135.029Z" transform="translate(-7425.59 -8695.604)" fill="blue" opacity="0.03"/>
    <path id="Path_9804" data-name="Path 9804" d="M431.81,230.308H406.3a4.789,4.789,0,0,1-4.8-4.8V200a4.789,4.789,0,0,1,4.8-4.8H431.81a4.789,4.789,0,0,1,4.8,4.8V225.51A4.805,4.805,0,0,1,431.81,230.308Z" transform="translate(-7501.724 -8768.621)" fill="blue" opacity="0.03"/>
    <g id="Group_1608" data-name="Group 1608" transform="translate(-6994.692 -8532.613)" opacity="0.38">
      <path id="Path_9773" data-name="Path 9773" d="M307.778,653.5H229.365c-.31,0-.565-.361-.565-.8h0c0-.438.255-.8.565-.8h78.413c.31,0,.565.361.565.8h0C308.361,653.138,308.106,653.5,307.778,653.5Z" transform="translate(-228.8 -651.9)" fill="url(#linear-gradient)"/>
      <path id="Path_9774" data-name="Path 9774" d="M307.778,694.1H229.365c-.31,0-.565-.361-.565-.8h0c0-.438.255-.8.565-.8h78.413c.31,0,.565.361.565.8h0C308.361,693.738,308.106,694.1,307.778,694.1Z" transform="translate(-228.8 -682.027)" fill="url(#linear-gradient-2)"/>
      <path id="Path_9775" data-name="Path 9775" d="M307.778,734.8H229.365c-.31,0-.565-.361-.565-.8h0c0-.439.255-.8.565-.8h78.413c.31,0,.565.361.565.8h0C308.361,734.438,308.106,734.8,307.778,734.8Z" transform="translate(-228.8 -712.228)" fill="url(#linear-gradient-3)"/>
      <path id="Path_9776" data-name="Path 9776" d="M307.778,775.4H229.365c-.31,0-.565-.361-.565-.8h0c0-.439.255-.8.565-.8h78.413c.31,0,.565.361.565.8h0C308.361,775.038,308.106,775.4,307.778,775.4Z" transform="translate(-228.8 -742.355)" fill="url(#linear-gradient-4)"/>
    </g>
    <g id="undraw_team_spirit_hrr4" transform="translate(-7127.995 -8542.036)">
      <path id="Path_12204" data-name="Path 12204" d="M17.335,170.256c7.183,27.994,22.391,52.192,46.426,63.92,49.969,24.378,162.594,11.8,246.663-2.626,43.5-7.466,81.7-28.053,109.472-57.065Z" transform="translate(-12.435 -8.037)" fill="#49be55" opacity="0.1"/>
      <path id="Path_12205" data-name="Path 12205" d="M458.2,38.493H412.07a3.837,3.837,0,0,1-3.991-3.635,3.834,3.834,0,0,1,3.991-3.635h7.981a3.837,3.837,0,0,1-3.991-3.635,3.831,3.831,0,0,1,3.991-3.631h-5.694a3.837,3.837,0,0,1-3.991-3.635,3.834,3.834,0,0,1,3.991-3.635h24.075a68.208,68.208,0,0,0-18.779-4.717C354,4.278,330.564,9.362,322.283,14.593a96.615,96.615,0,0,1-33.74,13.484C248.04,35.7,172.291,44.862,103.634,25.14c-34.123-9.8-59.483,6.784-74.687,34.442H466.206a60.172,60.172,0,0,0-5.415-21.976A4.182,4.182,0,0,1,458.2,38.493Z" transform="translate(-12.435 -8.037)" fill="#49be55" opacity="0.1"/>
      <path id="Path_12206" data-name="Path 12206" d="M13.42,111.827a169.175,169.175,0,0,0,1.792,48.84l404.991,13.5a172.852,172.852,0,0,0,28.137-39.107Zm160.168,34.841h-7.981a3.649,3.649,0,1,1,0,7.267H119.5a3.649,3.649,0,1,1,0-7.267h7.981a3.651,3.651,0,1,1,0-7.271h-5.7a3.649,3.649,0,1,1,0-7.267h46.127a3.649,3.649,0,1,1,0,7.267h5.683a3.651,3.651,0,1,1,0,7.271Z" transform="translate(-12.435 -8.037)" fill="#49be55" opacity="0.1"/>
      <path id="Path_12207" data-name="Path 12207" d="M466.226,59.834l-442.151,9.8A148.507,148.507,0,0,0,13.48,111.268h445A159.219,159.219,0,0,0,464.9,84.735,114.935,114.935,0,0,0,466.226,59.834ZM103.255,91.962H95.274a3.651,3.651,0,1,1,0,7.271H49.151a3.651,3.651,0,1,1,0-7.271h7.981a3.649,3.649,0,1,1,0-7.267h-5.7a3.651,3.651,0,1,1,0-7.271H97.557a3.651,3.651,0,1,1,0,7.271h5.7a3.649,3.649,0,1,1,0,7.267Z" transform="translate(-12.435 -8.037)" fill="#49be55" opacity="0.1"/>
      <ellipse id="Ellipse_401" data-name="Ellipse 401" cx="30.021" cy="6.74" rx="30.021" ry="6.74" transform="translate(235.086 292.526)" fill="#49be55" opacity="0.1"/>
      <ellipse id="Ellipse_402" data-name="Ellipse 402" cx="54.16" cy="4.445" rx="54.16" ry="4.445" transform="translate(280.706 316.226)" fill="#49be55" opacity="0.1"/>
      <ellipse id="Ellipse_403" data-name="Ellipse 403" cx="54.16" cy="6.74" rx="54.16" ry="6.74" transform="translate(63.25 307.191)" fill="#49be55" opacity="0.1"/>
      <ellipse id="Ellipse_404" data-name="Ellipse 404" cx="40.751" cy="6.74" rx="40.751" ry="6.74" transform="translate(159.234 273.451)" fill="#49be55" opacity="0.1"/>
      <ellipse id="Ellipse_405" data-name="Ellipse 405" cx="32.623" cy="6.74" rx="32.623" ry="6.74" transform="translate(178.74 329.59)" fill="#49be55" opacity="0.1"/>
      <path id="Path_12208" data-name="Path 12208" d="M242.872,127.885c-.862-5.8-6.133-19.342-6.133-19.342h0q-.138-.6-.311-1.2c-3.739-12.85-8.915-13.967-8.915-13.967l-18.54-3.991a1.437,1.437,0,0,1,.4.371,2.574,2.574,0,0,0-.291.044,7.263,7.263,0,0,1-1.624-3.512c-.036-.192-.068-.4-.092-.595A13.041,13.041,0,0,0,206.3,66.091c-.2-.152-.4-.3-.595-.439a2.955,2.955,0,0,0,.247-3.516c-1.461-3.033-4.637-4.952-7.9-5.89a13.4,13.4,0,0,0-7.67-.164,27.707,27.707,0,0,0-4.014,1.864c-2.462,1.229-5.188,2.2-7.027,4.226a2.062,2.062,0,0,0-.7,1.7,4.578,4.578,0,0,0,.7,1.233,3.721,3.721,0,0,1,.036,3.089,29.93,29.93,0,0,0-1.145,2.969,3.1,3.1,0,0,0,.619,2.981,13.135,13.135,0,0,0,1.157.8,6.07,6.07,0,0,1,1.105,1.241q1.1,1.477,2.195,2.965a30.543,30.543,0,0,1,2.749,4.178,20.362,20.362,0,0,0,1.7,3.192,4.732,4.732,0,0,0,.73.766l-.215-.084a3.324,3.324,0,0,0,2.438.994h.112a.67.67,0,0,0,.447-.184c0,.136,0,.271,0,.4.044,1.425.036,2.941-.064,4.366l-.172-.088a1.5,1.5,0,0,0-1.6.168l-17.068,13.7s-3.711,5.076-3.192,13.839l-2.993,13.141s-3.739,11.15-.862,19.111,4.545,12.514,4.545,12.514,1.149,9.047,2.877,9.785,2.474,1.137,2.474,1.137l.343,2.163h0s.116.212.319.567c1.257,2.187,5.914,9.9,8.62,9.078a34.6,34.6,0,0,1,.439,6.341l2.678,17.977s1.868,4.888,1.752,7.45,2.179,6.213,2.179,6.213a11.872,11.872,0,0,0-1.149,8.36c1.093,4.789,2.474,26.848,2.474,26.848l2,5.347-.056,6.269a5.986,5.986,0,0,1-1.237,2.793c-1.293,1.4-1.2,3.029-4.314,4.948s-5.092,2.646-5.092,5.188a6.672,6.672,0,0,1-.1,1.057c-.287,1.868-.846,2.881,4.884,3.424a15.108,15.108,0,0,0,11.221-3.751s.99-1.8,5.651-2.522c0,0,1.6-.084,1.68-1.492.032-.487.024-1.417,0-2.442-.076-1.951-.263-4.23-.511-4.342-.311-.14-.854-2.1-1.042-2.813h1.3s1.2-9.047,0-14.9a24.18,24.18,0,0,1-.116-10.012l-.231-15.471s-1.6-1.708-.343-4.725,0-17.917,0-17.917.463-5.347,1.784-6.6.064-7.833,0-8.177l2.354,7.9s1.034,15.7,3.224,18.54l.631,7.111s4.485,6.544,3.623,10.068.922,16.269.922,16.269v13.029s-2.015,5.232.8,7.111l1.2-.048c-.4.371-.706.93-1.173,1.413-.539.555-.846,2.666-1.018,4.481-.144,1.536-.192,2.857-.192,2.857a4.7,4.7,0,0,0,3.452,2.047c2.255.132,9.685,5.782,9.685,5.782a87.883,87.883,0,0,0,9.238-.4l.112-.028a2.494,2.494,0,0,0,1.433-1.169,2.993,2.993,0,0,0,.343-2.151c-.235-1.121-1.125-2.35-3.1-3.4-4.9-2.586-5.635-5.008-5.635-5.008l-3.22-4.833h.459a20.672,20.672,0,0,1,3.22-10.866l-.227-25.312s1.437-8.7-1.034-13.428c0,0-.2-5,1.449-6.54s-2.2-17.064-2.2-17.064-.8-8.336-1.736-15.942h0c3.883,3.683,7.909-9.577,8.588-11.936h.1l-.044-.172c.028-.112.044-.168.044-.168h0s-.862-3.065-.231-2.442,2.187-1.708,2.187-1.708-.231-12.686,2.474-19.079S242.872,127.885,242.872,127.885ZM231.3,135.957l.02-.036c.4,7.746-.076,24.274-.076,24.274s-.535,2.119-1.105,4.613l-.4-15.7h0l-.4-14.793Zm-49.526-5.339s1.955,24.458,0,27.986a18.477,18.477,0,0,0-1.409,4.833c-.646-1.7-2.015-5.679-1.524-7.79.634-2.73-1.265-9.9-1.265-10.068a17.013,17.013,0,0,1,1.2-6.912c1.369-2.921.471-4.186.471-4.186S180.392,129.692,181.773,130.618Z" transform="translate(-12.435 -8.037)" fill="url(#linear-gradient-5)"/>
      <path id="Path_12209" data-name="Path 12209" d="M186.537,185.7c-1.7,7.49-8.48-3.835-10.024-6.552-.2-.355-.311-.563-.311-.563l.734-3.444,3.883-1.6a10.847,10.847,0,0,1,1.74,1.133A10.49,10.49,0,0,1,186.537,185.7Z" transform="translate(-12.435 -8.037)" fill="#d38884"/>
      <path id="Path_12210" data-name="Path 12210" d="M239.1,173.449a.523.523,0,0,1-.044.168.849.849,0,0,1-.052.18c-.666,2.338-4.617,15.5-8.432,11.848-4.174-3.991-2.147-13.217-2.147-13.217h.028l8.779-.9,1.74,1.788h0Z" transform="translate(-12.435 -8.037)" fill="#d38884"/>
      <path id="Path_12211" data-name="Path 12211" d="M234.025,238.235l.223,25.14a20.619,20.619,0,0,0-3.161,10.774l-11.349.447c-2.769-1.864-.8-7.055-.8-7.055V254.6s-1.752-12.646-.906-16.15-3.556-9.976-3.556-9.976l-.623-7.059c-2.147-2.821-3.164-18.4-3.164-18.4l-2.3-7.869c.064.339,1.261,6.908,0,8.117s-1.752,6.548-1.752,6.548,1.241,14.8,0,17.786.335,4.689.335,4.689l.227,15.36a24.019,24.019,0,0,0,.112,9.936c1.185,5.814,0,14.8,0,14.8H195.137l.056-6.269-1.971-5.307s-1.357-21.908-2.43-26.653a11.908,11.908,0,0,1,1.125-8.3s-2.255-3.611-2.143-6.153-1.74-7.391-1.74-7.391l-2.626-17.842a34.662,34.662,0,0,0-1.3-10.164c-1.524-5.084-3.783-11.748-3.783-11.748l2.55.227,12.865,1.145s31.282-2.1,32.682-.355a5.87,5.87,0,0,1,.591,1.824c1.4,6.309,3.26,26.074,3.26,26.074s3.783,15.415,2.159,16.94-1.425,6.489-1.425,6.489C235.441,229.575,234.025,238.235,234.025,238.235Z" transform="translate(-12.435 -8.037)" fill="#444053"/>
      <path id="Path_12212" data-name="Path 12212" d="M207.58,281.9c-.088,1.4-1.648,1.484-1.648,1.484-4.573.718-5.547,2.5-5.547,2.5a14.688,14.688,0,0,1-11.01,3.727c-5.627-.543-5.08-1.544-4.789-3.4a7.031,7.031,0,0,0,.092-1.045c0-2.542,1.947-3.264,5-5.188s2.965-3.516,4.234-4.912,1.4-4.106,1.4-4.106c1.437-2.5,5.08.4,5.08.4.172.886,5.587.762,5.587.762s.718,2.881,1.089,3.049c.243.112.427,2.37.5,4.31C207.6,280.5,207.611,281.42,207.58,281.9Z" transform="translate(-12.435 -8.037)" fill="#b07473"/>
      <path id="Path_12213" data-name="Path 12213" d="M207.58,281.9c-.088,1.4-1.648,1.484-1.648,1.484-4.573.718-5.547,2.5-5.547,2.5a14.688,14.688,0,0,1-11.01,3.727c-5.627-.543-5.08-1.544-4.789-3.4,2.514.623,7.319,1.492,10.124-.032,3.9-2.115,6.7-3.591,6.7-3.591l6.161-3.1C207.6,280.5,207.611,281.42,207.58,281.9Z" transform="translate(-12.435 -8.037)" opacity="0.1"/>
      <path id="Path_12214" data-name="Path 12214" d="M242.046,289.441a2.434,2.434,0,0,1-1.4,1.161l-.108.028a84.652,84.652,0,0,1-9.066.4s-7.283-5.631-9.486-5.758a4.632,4.632,0,0,1-3.388-2.035s.044-1.309.184-2.833c.172-1.8.471-3.9,1-4.449.974-1.018,1.2-2.394,3.388-1.524,0,0,3.129-5.515,6.816-1.253l3.815,5.786s.718,2.394,5.551,4.992c1.931,1.038,2.793,2.259,3.037,3.372A2.973,2.973,0,0,1,242.046,289.441Z" transform="translate(-12.435 -8.037)" fill="#b07473"/>
      <path id="Path_12215" data-name="Path 12215" d="M242.046,289.441c-.431.363-.906.754-1.4,1.161l-.108.028a84.652,84.652,0,0,1-9.066.4s-7.283-5.631-9.486-5.758a4.632,4.632,0,0,1-3.388-2.035s.044-1.309.184-2.833c2.243.67,5.639,1.856,6.548,3.133,1.4,1.943,5.639,4.657,5.639,4.657s7.909-.762,11.421-.866A2.973,2.973,0,0,1,242.046,289.441Z" transform="translate(-12.435 -8.037)" opacity="0.1"/>
      <path id="Path_12216" data-name="Path 12216" d="M211.267,92.393,200.852,103.4s-12.622-.93-10.419-4.657c1.121-1.9,1.3-5.874,1.2-9.33-.092-3.332-.435-6.169-.435-6.169s17.7-8.811,16.361-.595a13.523,13.523,0,0,0-.048,4.689C208.262,91.491,211.267,92.393,211.267,92.393Z" transform="translate(-12.435 -8.037)" fill="#d38884"/>
      <path id="Path_12217" data-name="Path 12217" d="M207.54,82.652a13.524,13.524,0,0,0-.048,4.689,12.993,12.993,0,0,1-9.266,3.867c-2.394,0-4.984-1.967-6.92-3.1-.092-3.336-.112-4.856-.112-4.856S208.9,74.435,207.54,82.652Z" transform="translate(-12.435 -8.037)" opacity="0.1"/>
      <path id="Path_12218" data-name="Path 12218" d="M211.267,77.484a13.045,13.045,0,1,1-4.908-10.192A13.045,13.045,0,0,1,211.267,77.484Z" transform="translate(-12.435 -8.037)" fill="#d38884"/>
      <path id="Path_12219" data-name="Path 12219" d="M229.013,175.384c-3.248,7.73-24.143,7.889-24.143,7.889v-8.428l-1.265-.084c.547,2.414-.766,8.3-.766,8.3-16.513,2.33-20.539-7.079-20.539-7.079l.575-3.22,12.865,1.145s31.282-2.1,32.682-.355a5.871,5.871,0,0,1,.591,1.832Z" transform="translate(-12.435 -8.037)" opacity="0.1"/>
      <path id="Path_12220" data-name="Path 12220" d="M204.87,182.256v-8.428l-1.265-.08c.547,2.394-.766,8.3-.766,8.3-12.427,1.752-17.782-3.141-19.669-5.671a7.721,7.721,0,0,1-.87-1.4l5.044-28.373,1.2-41.757,1.808-7.327L190.767,94v-.04h.044l1.285.551,7.69,3.324,8.735-6.6.128-.092.435-.331.722.579,1.8,1.441,5.758,37.188s9.976,28.632,11.844,40.189c.076.463.136.894.184,1.3C230.621,182.06,204.87,182.256,204.87,182.256Z" transform="translate(-12.435 -8.037)" fill="#49be55"/>
      <circle id="Ellipse_406" data-name="Ellipse 406" cx="0.742" cy="0.742" r="0.742" transform="translate(187.543 89.879)" fill="#67647e"/>
      <circle id="Ellipse_407" data-name="Ellipse 407" cx="0.742" cy="0.742" r="0.742" transform="translate(187.886 96.655)" fill="#67647e"/>
      <circle id="Ellipse_408" data-name="Ellipse 408" cx="0.742" cy="0.742" r="0.742" transform="translate(188.629 107.625)" fill="#67647e"/>
      <circle id="Ellipse_409" data-name="Ellipse 409" cx="0.742" cy="0.742" r="0.742" transform="translate(189.854 119.441)" fill="#67647e"/>
      <circle id="Ellipse_410" data-name="Ellipse 410" cx="0.742" cy="0.742" r="0.742" transform="translate(190.596 130.534)" fill="#67647e"/>
      <circle id="Ellipse_411" data-name="Ellipse 411" cx="0.742" cy="0.742" r="0.742" transform="translate(191.338 142.35)" fill="#67647e"/>
      <circle id="Ellipse_412" data-name="Ellipse 412" cx="0.742" cy="0.742" r="0.742" transform="translate(191.043 154.039)" fill="#67647e"/>
      <path id="Path_12221" data-name="Path 12221" d="M191.262,150.726s-.83,10.866-2.354,14.027-2.2,12.027-2.2,12.027l-3.54-.4a7.722,7.722,0,0,1-.87-1.4L187.34,146.6l1.2-41.757,1.812-7.331L190.767,94l.048-.02a1.429,1.429,0,0,1,1.261.02l.168.088q-.076.215-.144.443c-1.381,4.322-1.9,12.287-1.9,12.287s2,14.569,2.2,21.345S191.262,150.726,191.262,150.726Z" transform="translate(-12.435 -8.037)" opacity="0.1"/>
      <path id="Path_12222" data-name="Path 12222" d="M182.559,174.694a2.043,2.043,0,0,1-.136.263c-1.373,2.318-4.853,3.791-5.91,4.194-.2-.355-.311-.563-.311-.563l.734-3.444,3.883-1.6a10.847,10.847,0,0,1,1.74,1.145Z" transform="translate(-12.435 -8.037)" opacity="0.1"/>
      <path id="Path_12223" data-name="Path 12223" d="M173.153,119.241l-3.22,1.919L167,134.206s-3.671,11.066-.85,18.971,4.461,12.43,4.461,12.43,1.129,8.979,2.825,9.713,2.426,1.129,2.426,1.129l.339,2.147s4.6-1.56,6.221-4.31-1.2-9.577-1.2-9.577-2.426-5.818-1.8-8.528-1.245-9.825-1.245-9.976a16.909,16.909,0,0,1,1.2-6.864c1.365-2.909.455-4.15.455-4.15l-.85-8.3Z" transform="translate(-12.435 -8.037)" fill="#67647e"/>
      <path id="Path_12224" data-name="Path 12224" d="M229.28,172.942s-8.528,3.216-11.237.4-2.43-16.038-2.43-16.038-2.594-24.394-4.234-28.4-.8-32.922-.8-32.922-1.1-3.739-2.063-4.717a1.045,1.045,0,0,0-.2-.164l.331.072,1.157.247,1.8,1.441,5.758,37.188s9.976,28.632,11.844,40.189Z" transform="translate(-12.435 -8.037)" opacity="0.1"/>
      <path id="Path_12225" data-name="Path 12225" d="M239.1,173.788h-.1c-1.073.14-10.547,1.285-10.587-.686a5.776,5.776,0,0,1,.036-.682l8.779-.9,1.74,1.788h0c.032.116.056.215.08.3Z" transform="translate(-12.435 -8.037)" opacity="0.1"/>
      <path id="Path_12226" data-name="Path 12226" d="M230.014,106.176l6.225,3.248s5.188,13.432,6.018,19.19c0,0,3.843,15.427,1.2,21.772s-2.426,18.939-2.426,18.939-1.524,2.315-2.147,1.7.227,2.426.227,2.426-10.643,1.413-10.687-.678,2.442-12.083,2.442-12.083.678-23.772-.283-27.5S230.014,106.176,230.014,106.176Z" transform="translate(-12.435 -8.037)" fill="#67647e"/>
      <path id="Path_12227" data-name="Path 12227" d="M211.438,131.5s-3.5,8.58-4.633,9.146.227,2.821.227,2.821S213.414,134.545,211.438,131.5Z" transform="translate(-12.435 -8.037)" opacity="0.1"/>
      <path id="Path_12228" data-name="Path 12228" d="M209.347,101.4c.04-.164-4.178,4.138-5.307,4.789S208.162,106.148,209.347,101.4Z" transform="translate(-12.435 -8.037)" opacity="0.1"/>
      <path id="Path_12229" data-name="Path 12229" d="M197.6,130.818s-6.437,4.162-5.587,5.81S197.6,130.818,197.6,130.818Z" transform="translate(-12.435 -8.037)" opacity="0.1"/>
      <path id="Path_12230" data-name="Path 12230" d="M209.291,191.574a34.456,34.456,0,0,0,14,4.39Z" transform="translate(-12.435 -8.037)" opacity="0.1"/>
      <path id="Path_12231" data-name="Path 12231" d="M196.135,200.045s5.08,6.385,7.4,6.548S196.135,200.045,196.135,200.045Z" transform="translate(-12.435 -8.037)" opacity="0.1"/>
      <path id="Path_12232" data-name="Path 12232" d="M203.25,225.066c-.227.112-2.881,5.758-5.587,5.93S203.25,225.066,203.25,225.066Z" transform="translate(-12.435 -8.037)" opacity="0.1"/>
      <path id="Path_12233" data-name="Path 12233" d="M226.794,237.437s5.036-1.129,6.157,2.482C232.951,239.907,232.612,238.778,226.794,237.437Z" transform="translate(-12.435 -8.037)" opacity="0.1"/>
      <path id="Path_12234" data-name="Path 12234" d="M223.406,258.092s6.1-1.245,7.4.451S223.406,258.092,223.406,258.092Z" transform="translate(-12.435 -8.037)" opacity="0.1"/>
      <path id="Path_12235" data-name="Path 12235" d="M206.147,260.981c0,.056-6.209,1.245-5.986,2.035s6.624.678,6.852-.567a1.2,1.2,0,0,0-.866-1.469Z" transform="translate(-12.435 -8.037)" opacity="0.1"/>
      <path id="Path_12236" data-name="Path 12236" d="M221.375,266.336s10.2-1.245,9.577.9S221.375,266.336,221.375,266.336Z" transform="translate(-12.435 -8.037)" opacity="0.1"/>
      <path id="Path_12237" data-name="Path 12237" d="M167.958,140.642c.056.168,6.72,1.073,7.622,3.22,0,0-6.548-3.053-7.582-3.053" transform="translate(-12.435 -8.037)" opacity="0.1"/>
      <path id="Path_12238" data-name="Path 12238" d="M177.331,158.089s-5.535,1.752-5.14,4.39S171.629,161.257,177.331,158.089Z" transform="translate(-12.435 -8.037)" opacity="0.1"/>
      <path id="Path_12239" data-name="Path 12239" d="M174.753,171.529s2.015-2.765,3.935-2.259S174.753,171.529,174.753,171.529Z" transform="translate(-12.435 -8.037)" opacity="0.1"/>
      <path id="Path_12240" data-name="Path 12240" d="M206.358,67.292a3.14,3.14,0,0,1-.646.483c-1.6.93-2.035,2.362-2.793,4.014-.706,1.512-1.484,3.113-2.909,3.971-1.84,1.109-4.262.7-6.173,1.668a4.789,4.789,0,0,0-2.554,4.721,13.62,13.62,0,0,0,.543,2.163,15.423,15.423,0,0,1,.583,4.7.8.8,0,0,1,0,.14,13.041,13.041,0,1,1,13.967-21.856Z" transform="translate(-12.435 -8.037)" opacity="0.1"/>
      <path id="Path_12241" data-name="Path 12241" d="M206.019,63.366c-1.433-3.009-4.549-4.916-7.754-5.846a13.022,13.022,0,0,0-7.53-.16,27.622,27.622,0,0,0-3.939,1.848c-2.418,1.221-5.076,2.187-6.9,4.194a2.1,2.1,0,0,0-.69,1.684,4.7,4.7,0,0,0,.682,1.221,3.706,3.706,0,0,1,.036,3.069,28.144,28.144,0,0,0-1.125,2.949,3.1,3.1,0,0,0,.607,2.957,11.058,11.058,0,0,0,1.141.8,6.007,6.007,0,0,1,1.081,1.229l2.155,2.945a29.869,29.869,0,0,1,2.7,4.146,19.757,19.757,0,0,0,1.668,3.164,3.611,3.611,0,0,0,3.025,1.616.587.587,0,0,0,.479-.227.63.63,0,0,0,.06-.3,15.315,15.315,0,0,0-.571-4.681,13.508,13.508,0,0,1-.543-2.163,4.809,4.809,0,0,1,2.554-4.721c1.915-.966,4.338-.559,6.173-1.664a8.481,8.481,0,0,0,2.909-3.991c.77-1.652,1.2-3.085,2.793-4.014S206.813,64.95,206.019,63.366Z" transform="translate(-12.435 -8.037)" fill="#585268"/>
      <path id="Path_12242" data-name="Path 12242" d="M200.177,276.568s2,2.542,1.477,3.991S200.177,276.568,200.177,276.568Z" transform="translate(-12.435 -8.037)" opacity="0.1"/>
      <path id="Path_12243" data-name="Path 12243" d="M227.173,282.929s.443-3.408,2.219-3.44,1.864-.184,3.22.339,2.63,1.333,2.223,1.453-2.334-1.947-4.314-.89a14.253,14.253,0,0,0-3.348,2.538Z" transform="translate(-12.435 -8.037)" opacity="0.1"/>
      <path id="Path_12244" data-name="Path 12244" d="M194.223,102.11,199.81,98.2s-8.173-4.829-9.146-4.15-1.644,6.784-1.644,6.784Z" transform="translate(-12.435 -8.037)" opacity="0.1"/>
      <path id="Path_12245" data-name="Path 12245" d="M194.2,101.858l5.587-3.991s-8.173-4.829-9.146-4.15S189,100.837,189,100.837Z" transform="translate(-12.435 -8.037)" fill="#e1e7ef"/>
      <path id="Path_12246" data-name="Path 12246" d="M194.2,101.858l5.587-3.991s-8.173-4.829-9.146-4.15S189,100.837,189,100.837Z" transform="translate(-12.435 -8.037)" fill="#49be55"/>
      <path id="Path_12247" data-name="Path 12247" d="M191.566,93.75l-.168-.084a1.449,1.449,0,0,0-1.568.164l-16.76,13.6s-3.643,5.04-3.137,13.735l9.885,14s1.129-4.741,2.482-3.839c0,0,1.919,24.282,0,27.782s-2.765,16.6-2.765,16.6l6.493.734s.678-8.867,2.2-12.027,2.354-14.027,2.354-14.027,1.373-15.787,1.145-22.562-2.2-21.345-2.2-21.345S190.081,97.94,191.566,93.75Z" transform="translate(-12.435 -8.037)" fill="#67647e"/>
      <path id="Path_12248" data-name="Path 12248" d="M208.262,99.636,201.3,97.058s8.867-9.713,9.976-4.326Z" transform="translate(-12.435 -8.037)" opacity="0.1"/>
      <path id="Path_12249" data-name="Path 12249" d="M208.262,99.3,201.3,96.719s8.867-9.713,9.976-4.326Z" transform="translate(-12.435 -8.037)" fill="#e1e7ef"/>
      <path id="Path_12250" data-name="Path 12250" d="M208.262,99.3,201.3,96.719s8.867-9.713,9.976-4.326Z" transform="translate(-12.435 -8.037)" fill="#49be55"/>
      <path id="Path_12251" data-name="Path 12251" d="M208.034,91.032a.4.4,0,0,1,.287.064Z" transform="translate(-12.435 -8.037)" opacity="0.1"/>
      <path id="Path_12252" data-name="Path 12252" d="M208.7,90.358l18.476,3.991s5.084,1.129,8.755,13.891-5.028,28.4-5.028,28.4L228.989,135l.962,37.268s-8.528,3.216-11.237.4-2.426-16.05-2.426-16.05-2.6-24.39-4.238-28.4-.8-32.918-.8-32.918S209.742,90.134,208.7,90.358Z" transform="translate(-12.435 -8.037)" fill="#67647e"/>
      <path id="Path_12253" data-name="Path 12253" d="M225.609,114.105c-.259.239-.563,11.517.567,20.1a109.541,109.541,0,0,0,3.192,15.471l-1.676-34.386S226.4,113.371,225.609,114.105Z" transform="translate(-12.435 -8.037)" opacity="0.1"/>
      <path id="Path_12254" data-name="Path 12254" d="M223.35,104.392c.451.283,2.43,4.968,1.524,6.888S223.35,104.392,223.35,104.392Z" transform="translate(-12.435 -8.037)" opacity="0.1"/>
      <path id="Path_12255" data-name="Path 12255" d="M205.911,63.366a10.2,10.2,0,0,0-4.062-4.254,9.661,9.661,0,0,1,3.045,3.591c.8,1.6.563,3.192-.99,4.066s-2.035,2.362-2.793,4.014a8.676,8.676,0,0,1-2.913,3.991c-1.836,1.109-4.258.7-6.173,1.664a4.821,4.821,0,0,0-2.554,4.725,13.568,13.568,0,0,0,.547,2.159,15.436,15.436,0,0,1,.583,4.7.63.63,0,0,1-.064.3.571.571,0,0,1-.475.227,2.749,2.749,0,0,1-1.393-.259,3.24,3.24,0,0,0,2.394.938.471.471,0,0,0,.535-.527,15.311,15.311,0,0,0-.579-4.7,13.109,13.109,0,0,1-.547-2.163,4.809,4.809,0,0,1,2.554-4.721c1.915-.966,4.338-.559,6.173-1.664a8.481,8.481,0,0,0,2.909-3.991c.77-1.652,1.2-3.085,2.793-4.014S206.71,64.95,205.911,63.366Z" transform="translate(-12.435 -8.037)" opacity="0.1"/>
      <path id="Path_12256" data-name="Path 12256" d="M319.59,113.479c-5.5-.108-10.351-3.991-13.1-8.735A8.779,8.779,0,0,1,305.164,101a4.315,4.315,0,0,1,.152-.894,9.277,9.277,0,0,0,.4-1.369,2.394,2.394,0,0,0,0-.559s0,0,0-.032a3.3,3.3,0,0,0-1.2-2.686c-.734-.69-1.656-1.2-2.422-1.884-2.362-2.075-3.081-5.4-3.125-8.572v-.168c.028-1.357.136-2.718.124-4.074a17.132,17.132,0,0,0-.1-2.307,7.622,7.622,0,0,0-2.466-5.1c-3.935-3.192-10.551.132-14.625-2.885-.99-.738-1.792-1.828-2.993-2.115a5.042,5.042,0,0,0-2.734.371c-3,.99-6.349,2.291-7.522,5.188-.67,1.664-.483,3.564-1.1,5.248a26.2,26.2,0,0,1-1.716,3.168,4.96,4.96,0,0,0-.638,2.646,2.985,2.985,0,0,0,.2,1.409,3.591,3.591,0,0,0,.978,1.4,4.652,4.652,0,0,1-.583.934c-.766.938-1.943,1.6-2.741,2.53a5.978,5.978,0,0,0-.694,6.05c.726,2.011,2.039,3.843,2.945,5.8a3.114,3.114,0,0,1,.3,2.646,7.586,7.586,0,0,1-1.325,1.54,4.84,4.84,0,0,0-1.2,2.674c-8.983,2.051-8.991,9.27-8.991,9.27h0l-4.852,12.2s-.778,2.055-1.692,4.769l-5.742-1.03,3.991,6.68c-.754,2.722-1.289,5.244-1.113,6.513,0,0-1.784,8.38,1.389,9.845l7,3.149a4.147,4.147,0,0,0,.97.435l.283.128a.75.75,0,0,0,.654,0h.1a.942.942,0,0,0,.4-.06.8.8,0,0,0,.351-.379.12.12,0,0,1,0-.04l2.1-.607,1.776,2.1c.8.563,1.6,1.049,2.35,1.488l-2.749,27.3s-.443,36.314-1.784,44.59a23.177,23.177,0,0,0-.311,6.576l-.052.088c.331,2.334,1.2,2.793,1.2,2.793v-.032a.26.26,0,0,0,.052.032,23.512,23.512,0,0,1,1.437-3.081v.6c-.028,3.081-.124,7.394-.443,10.2-.543,4.789,1.389,20.571,1.389,20.571l.666,14.366a13.281,13.281,0,0,1-1.636,7c-1.6,2.869-3.635,6.908-3.783,8.7a1.793,1.793,0,0,0,0,.291h0l-3.424,4.118s-1.337,2.067,1.684,2.9c1.624.451,4.426,0,6.676-.531a4.461,4.461,0,0,0,3.46-4.342,15.364,15.364,0,0,1,2.825-5.423l.563,3.308,3.767.934.483-9.066a3.991,3.991,0,0,0,.259-1.6h0c.742-6.449-1.748-5.87-1.748-5.87a.347.347,0,0,1,.12.223l-.12-.219h0c-1.528-3.017-.8-7.981-.8-7.981s2-14.366,2.678-18.161c.491-2.682.287-11.461.124-16.361a5.839,5.839,0,0,0-.02-.595c5.842-.076,13-.271,18.025-.758v.591l-.926,33.939a18.632,18.632,0,0,1-1.3,6.313.344.344,0,0,1-.044.116,27.535,27.535,0,0,0-1.84,8.895l-.431,10.774v.3h0c-.75.287-1.935,1.121-1.967,3.54-.052,3.544,6.193,2.362,6.193,2.362,6.241,0,6.293-6.5,6.293-6.5s.2-5.958.495-9.944-.942-3.109-.942-3.109l-.1,11.341v-9.853l.1-1.441v-.04h0v-.307l.786-11.7s5.75-19.49,6.64-23.229c.634-2.658.371-10.663.164-15.088a3.515,3.515,0,0,0-.032-.587c1.784-.16,3.36-.176,3.991-.176h.291s-.3-31.3-1.042-43.1-1.931-22.59-4.9-25.839c-1.8-1.963-4.3-8.025-5.986-12.514a62.6,62.6,0,0,0,11,3.591c9.414,1.971,8.125-6.2,8.125-6.2l-.954-15.455h.064a78.8,78.8,0,0,0-1.038-12.083,35.551,35.551,0,0,0-2.426-8.779c1.022-.4,2.031-.826,3.021-1.265,2.558-1.129,5.439-2.73,5.806-5.487h-.124a3.56,3.56,0,0,0,.1-.607Zm-58.354,22.347h0c.02,1.6-.04,4.366-.136,7.426l-2.989-3.991,3-4.86ZM301.285,143.931Zm1.245,6.038-4.98-1.6a22.347,22.347,0,0,1,3.077-3.807l.431-.4-.156.032.239-.219.144-.032-.227.219.271-.056a8.5,8.5,0,0,0,1.7,3.412c1.788,1.951-.491,2.446-.491,2.446Z" transform="translate(-12.435 -8.037)" fill="url(#linear-gradient-6)"/>
      <path id="Path_12257" data-name="Path 12257" d="M259.844,285.586l-.583,11.046-3.715-.93-.782-4.593Z" fill="#a27772"/>
      <path id="Path_12258" data-name="Path 12258" d="M259.844,285.586l-.583,11.046-3.715-.93-.782-4.593Z" opacity="0.1"/>
      <path id="Path_12259" data-name="Path 12259" d="M285.914,306.134l5.667,1.173,4.2-3.711V293.137l.1-1.429v-.044h0v-.3l.782-11.624s5.671-19.35,6.552-23.065c.623-2.634.363-10.583.156-14.976-.084-1.8-.156-3-.156-3l-12.51-3.029-.263,9.617-.914,33.7a18.673,18.673,0,0,1-1.281,6.269l-.044.116a27.423,27.423,0,0,0-1.816,8.827l-.423,10.715v.3Z" transform="translate(-12.435 -8.037)" fill="#cc818c"/>
      <path id="Path_12260" data-name="Path 12260" d="M295.878,291.369v.3h0v-.3Z" transform="translate(-12.435 -8.037)" opacity="0.1"/>
      <path id="Path_12261" data-name="Path 12261" d="M285.914,306.134l5.667,1.173,4.2-3.711v-.89a1.2,1.2,0,0,1-.6.958l-.06.036a11.293,11.293,0,0,1-6.361,1.257l-2.211-.188a2.071,2.071,0,0,0-.587.144v.3Z" transform="translate(-12.435 -8.037)" opacity="0.1"/>
      <path id="Path_12262" data-name="Path 12262" d="M295.12,303.991l.06-.032a1.2,1.2,0,0,0,.611-1.038l.092-11.257s1.221-.874.926,3.085-.487,9.873-.487,9.873-.048,6.449-6.205,6.449c0,0-6.157,1.173-6.11-2.346s2.542-3.663,2.542-3.663l2.211.192A11.266,11.266,0,0,0,295.12,303.991Z" transform="translate(-12.435 -8.037)" fill="#b07473"/>
      <path id="Path_12263" data-name="Path 12263" d="M256.4,303.739c.144,2.542,7.622,1.073,7.622,1.073l5.032-9.769s4.2-3.228,2.1-6.062a4.519,4.519,0,0,1-.307-.483l-.02-.024h0c-.044-.072-.084-.148-.124-.227h0c-1.508-2.993-.766-7.9-.766-7.9s1.951-14.27,2.638-18.033c.483-2.658.283-11.377.124-16.253-.064-2.027-.124-3.388-.124-3.388l-12.415-3.324v3.7c-.028,3.061-.124,7.343-.439,10.128-.535,4.737,1.369,20.424,1.369,20.424l.658,14.274a13.221,13.221,0,0,1-1.6,6.948c-1.556,2.849-3.591,6.864-3.731,8.64a1.747,1.747,0,0,0-.02.275Z" transform="translate(-12.435 -8.037)" fill="#cc818c"/>
      <path id="Path_12264" data-name="Path 12264" d="M256.4,303.739c.144,2.542,7.622,1.073,7.622,1.073l5.032-9.769s4.2-3.228,2.1-6.062a4.519,4.519,0,0,1-.307-.483c-.068,1.48-1.692,5.188-1.692,5.188S265,302,263.678,303.9s-7.059-.355-7.275-.435a1.748,1.748,0,0,0,0,.271Z" transform="translate(-12.435 -8.037)" opacity="0.1"/>
      <path id="Path_12265" data-name="Path 12265" d="M270.7,288.236s2.458-.571,1.724,5.83h0a4.122,4.122,0,0,1-1.943,3.659,13.974,13.974,0,0,0-5.846,8.109h0a4.421,4.421,0,0,1-3.412,4.31c-2.219.519-4.984.974-6.584.527-2.981-.83-1.66-2.881-1.66-2.881l3.42-4.058s5.962,2.346,7.279.439,5.475-10.212,5.475-10.212S271.432,288.775,270.7,288.236Z" transform="translate(-12.435 -8.037)" fill="#b07473"/>
      <path id="Path_12266" data-name="Path 12266" d="M290.7,236.846l-.263,9.617c3.332-.323,5.718-.774,6.125-1.409.882-1.365,4.082-1.939,6.8-2.175-.084-1.8-.156-3-.156-3Z" transform="translate(-12.435 -8.037)" opacity="0.1"/>
      <path id="Path_12267" data-name="Path 12267" d="M260.159,244.221a4.565,4.565,0,0,1,1.369-1.652c1.317-.73,1.173,4.693,1.173,4.693s4.39.04,10-.032c-.064-2.027-.124-3.392-.124-3.392l-12.415-3.32S260.183,242.058,260.159,244.221Z" transform="translate(-12.435 -8.037)" opacity="0.1"/>
      <path id="Path_12268" data-name="Path 12268" d="M258.742,245.506s1.469-3.991,2.793-4.7,1.173,4.689,1.173,4.689,32.251.3,33.864-2.2,10.994-2.346,10.994-2.346-.291-31.078-1.026-42.8-1.9-22.431-4.837-25.655c-1.9-2.087-4.593-8.839-6.261-13.34-.906-2.458-1.508-4.25-1.508-4.25l-30.783,1.756-.251,2.494-3.268,32.69s-.439,36.062-1.76,44.271S258.742,245.506,258.742,245.506Z" transform="translate(-12.435 -8.037)" fill="#444053"/>
      <g id="Group_2626" data-name="Group 2626" opacity="0.1">
        <path id="Path_12269" data-name="Path 12269" d="M294.066,243.295c1.6-2.49,10.994-2.346,10.994-2.346s-.291-31.078-1.026-42.8-1.9-22.431-4.837-25.655c-1.9-2.1-4.593-8.839-6.261-13.34-.762-2.067-1.309-3.659-1.461-4.114l2.394-.136s.6,1.792,1.512,4.25c1.668,4.5,4.362,11.253,6.257,13.34,2.933,3.224,4.106,13.927,4.837,25.655s1.03,42.8,1.03,42.8-9.382-.144-11,2.346c-1.377,2.127-25.108,2.227-32,2.207C273.352,245.482,292.821,245.218,294.066,243.295Z" transform="translate(-12.435 -8.037)"/>
        <path id="Path_12270" data-name="Path 12270" d="M259.029,240.8c.595-.331.89.587,1.038,1.7a23.016,23.016,0,0,0-1.385,3s-.85-.459-1.2-2.793A5.432,5.432,0,0,1,259.029,240.8Z" transform="translate(-12.435 -8.037)"/>
      </g>
      <path id="Path_12271" data-name="Path 12271" d="M268.256,79.707c-2.131,2.905.024,7.035-2.263,9.861-.754.934-1.915,1.6-2.7,2.514a5.971,5.971,0,0,0-.686,6.006c.714,2,2,3.815,2.905,5.762a3.083,3.083,0,0,1,.3,2.626A7.437,7.437,0,0,1,264.5,108a5.512,5.512,0,0,0-.718,5.85,18.932,18.932,0,0,0,3.787,5.228,2.585,2.585,0,0,0,3.755.858,14.765,14.765,0,0,0,6.72-19.27c-1.237-2.965-3.3-5.806-3.32-8.939,0-2.486,1.277-4.86,1.5-7.335.275-3.009-1.5-7.786-5.136-9.1C271.328,77.229,269.337,78.214,268.256,79.707Z" transform="translate(-12.435 -8.037)" fill="#585268"/>
      <path id="Path_12272" data-name="Path 12272" d="M268.256,79.707c-2.131,2.905.024,7.035-2.263,9.861-.754.934-1.915,1.6-2.7,2.514a5.971,5.971,0,0,0-.686,6.006c.714,2,2,3.815,2.905,5.762a3.083,3.083,0,0,1,.3,2.626A7.437,7.437,0,0,1,264.5,108a5.512,5.512,0,0,0-.718,5.85,18.932,18.932,0,0,0,3.787,5.228,2.585,2.585,0,0,0,3.755.858,14.765,14.765,0,0,0,6.72-19.27c-1.237-2.965-3.3-5.806-3.32-8.939,0-2.486,1.277-4.86,1.5-7.335.275-3.009-1.5-7.786-5.136-9.1C271.328,77.229,269.337,78.214,268.256,79.707Z" transform="translate(-12.435 -8.037)" opacity="0.1"/>
      <path id="Path_12273" data-name="Path 12273" d="M291.888,185.38c-4.266.223-8.28,2.059-12.015,4.134s-7.351,4.426-11.369,5.9" transform="translate(-12.435 -8.037)" opacity="0.1"/>
      <path id="Path_12274" data-name="Path 12274" d="M289.238,195.432a17.586,17.586,0,0,0-11.074,5.387c-1.038,1.1-1.931,2.326-3.013,3.38a13.384,13.384,0,0,1-5.938,3.364" transform="translate(-12.435 -8.037)" opacity="0.1"/>
      <path id="Path_12275" data-name="Path 12275" d="M290.112,203.082a19.362,19.362,0,0,0-8.907,5.371c-.654.706-1.249,1.461-1.9,2.167-3.532,3.791-8.52,5.8-13.336,7.706" transform="translate(-12.435 -8.037)" opacity="0.1"/>
      <path id="Path_12276" data-name="Path 12276" d="M289.749,96.994a87.563,87.563,0,0,0,.878,10.184c.4,2.394.958,4.549,1.76,5.5,2.346,2.793-11.433,6.525-11.433,6.525l-8.137-6.305s6.449-5.938,3.444-11.728S289.749,96.994,289.749,96.994Z" transform="translate(-12.435 -8.037)" fill="#cc818c"/>
      <path id="Path_12277" data-name="Path 12277" d="M262.892,159.15h32.543c-.906-2.458-1.508-4.25-1.508-4.25l-30.783,1.756Z" transform="translate(-12.435 -8.037)" opacity="0.1"/>
      <path id="Path_12278" data-name="Path 12278" d="M260.8,158.564h34.793a12.073,12.073,0,0,1,1.393-9.226,20.391,20.391,0,0,1,3.643-4.725l.239-.219,12.147-2.69.654-.144s.1-22.088-7.722-25.12a45.727,45.727,0,0,1-12.51-7.131l-10.747,3.32-7.917-3.991c-2.542,2.734-9.286,1.66-9.286,1.66-11.042,1.269-11.042,9.577-11.042,9.577s6.449,15.048,6.94,15.048S260.8,158.564,260.8,158.564Z" transform="translate(-12.435 -8.037)" fill="#49be55"/>
      <path id="Path_12279" data-name="Path 12279" d="M272.809,144.521s-7.1-1.572-9.509-4.322" transform="translate(-12.435 -8.037)" opacity="0.1"/>
      <path id="Path_12280" data-name="Path 12280" d="M308.584,136.281l-8.228,6.744a14.014,14.014,0,0,0,.271,1.6l.239-.219,12.147-2.69Z" transform="translate(-12.435 -8.037)" opacity="0.1"/>
      <path id="Path_12281" data-name="Path 12281" d="M286.3,156.217s1.8,1.014,4.557,2.346h4.729a12.073,12.073,0,0,1,1.393-9.226l-8.336-2.7C291.484,149.278,286.3,156.217,286.3,156.217Z" transform="translate(-12.435 -8.037)" opacity="0.1"/>
      <path id="Path_12282" data-name="Path 12282" d="M259.329,117.226l-4.884,2.638-4.789,12.119s-4.984,13.288-4.5,16.808c0,0-1.756,8.308,1.369,9.773l8.141,3.687a.758.758,0,0,0,.978-1.046c-1.161-2.2-2.438-5.639-.4-7.53l-2.346-4.884,8.48-13.879,2.833-4.789Z" transform="translate(-12.435 -8.037)" fill="#49be55"/>
      <path id="Path_12283" data-name="Path 12283" d="M270.2,141.748c.423,1.724,1.852,4.39,6.58,5.383l5.188,4.25,5.519,2.5,2.251,1.018.954-6.892-2.167-1.2-2.526-1.381s-5.7-10.324-14.721-5.986a2,2,0,0,0-1.077,2.3Z" transform="translate(-12.435 -8.037)" opacity="0.1"/>
      <path id="Path_12284" data-name="Path 12284" d="M270.49,141.161c.423,1.728,1.848,4.39,6.576,5.383l5.188,4.25,5.523,2.5,2.247,1.018.954-6.892-2.167-1.2-2.506-1.369s-5.7-10.324-14.725-5.966a2,2,0,0,0-1.089,2.271Z" transform="translate(-12.435 -8.037)" fill="#cc818c"/>
      <circle id="Ellipse_413" data-name="Ellipse 413" cx="12.606" cy="12.606" r="12.606" transform="translate(255.618 72.684)" opacity="0.1"/>
      <circle id="Ellipse_414" data-name="Ellipse 414" cx="12.606" cy="12.606" r="12.606" transform="translate(255.618 72.392)" fill="#cc818c"/>
      <path id="Path_12285" data-name="Path 12285" d="M288.468,119.971l-3.791-7.367s5.547-2.243,5.95-4.841,5.315,3.045,4.254,4.916S288.468,119.971,288.468,119.971Z" transform="translate(-12.435 -8.037)" opacity="0.1"/>
      <path id="Path_12286" data-name="Path 12286" d="M288.468,119.385l-3.791-7.367s5.547-2.243,5.95-4.841,5.315,3.049,4.254,4.916S288.468,119.385,288.468,119.385Z" transform="translate(-12.435 -8.037)" fill="#49be55"/>
      <path id="Path_12287" data-name="Path 12287" d="M257.441,138.416l20.946,28.161s-7.722,4.2-18.356-3.32l-4.593-5.475-13.113-22.1Z" transform="translate(-12.435 -8.037)" fill="#f6f8fb"/>
      <path id="Path_12288" data-name="Path 12288" d="M253.319,153.727l1.907-.052s11.652-11.309,14.514-5.587-7.259,11.07-7.259,11.07l-3.077,1.66-4.01,1.2-2.566-3.444Z" transform="translate(-12.435 -8.037)" fill="#cc818c"/>
      <path id="Path_12289" data-name="Path 12289" d="M256.132,159.837a2.847,2.847,0,0,1,.048,1.971.8.8,0,0,1-.347.379.89.89,0,0,1-.4.056,4.01,4.01,0,0,1-2.63-1.3,12.01,12.01,0,0,1-1.7-2.466,4.549,4.549,0,0,1-.874-2.937,4.284,4.284,0,0,1,2.167-2.53c1.931-1.277,2,.212,2.418,1.856S255.689,158.177,256.132,159.837Z" transform="translate(-12.435 -8.037)" opacity="0.1"/>
      <path id="Path_12290" data-name="Path 12290" d="M255.841,159.837a2.87,2.87,0,0,1,.048,1.971.8.8,0,0,1-.347.379.9.9,0,0,1-.4.056,3.99,3.99,0,0,1-2.63-1.3,11.873,11.873,0,0,1-1.708-2.466,4.522,4.522,0,0,1-.87-2.937,4.277,4.277,0,0,1,2.163-2.53c1.935-1.277,2,.212,2.422,1.856S255.394,158.177,255.841,159.837Z" transform="translate(-12.435 -8.037)" fill="#49be55"/>
      <path id="Path_12291" data-name="Path 12291" d="M248.949,126.875l.974-1.648-.85,3.061Z" opacity="0.1"/>
      <path id="Path_12292" data-name="Path 12292" d="M287.793,153.3l2.247,1.018.954-6.892-2.167-1.2C290.323,147.941,289.014,151.114,287.793,153.3Z" transform="translate(-12.435 -8.037)" opacity="0.1"/>
      <path id="Path_12293" data-name="Path 12293" d="M296.812,145.3s-7.255.443-10.336-1.536" transform="translate(-12.435 -8.037)" opacity="0.1"/>
      <g id="Group_2627" data-name="Group 2627" opacity="0.1">
        <path id="Path_12294" data-name="Path 12294" d="M295.91,149.924a20.423,20.423,0,0,1,3.643-4.729,9.731,9.731,0,0,1,1.073-.583l11.309-2.322.654-.144s.1-22.088-7.718-25.12a46.977,46.977,0,0,1-12.2-6.868l.858-.263a45.606,45.606,0,0,0,12.51,7.131c7.821,3.029,7.718,25.12,7.718,25.12H312.59l-11.573,2.215s-.5.483-.65.623a22.427,22.427,0,0,0-3.7,4.892,12.267,12.267,0,0,0-.97,9.274h-1.2A12.2,12.2,0,0,1,295.91,149.924Z" transform="translate(-12.435 -8.037)"/>
        <path id="Path_12295" data-name="Path 12295" d="M265.023,110.937c.188-.028.367-.056.563-.076a20.233,20.233,0,0,0,2.394.2A21.764,21.764,0,0,1,265.023,110.937Z" transform="translate(-12.435 -8.037)"/>
        <path id="Path_12296" data-name="Path 12296" d="M281.612,113.215l-7.159-3.623a3.785,3.785,0,0,0,.4-.379l7.47,3.779Z" transform="translate(-12.435 -8.037)"/>
      </g>
      <path id="Path_12297" data-name="Path 12297" d="M308.867,135.678l4.789,5.866.978,15.93s1.269,8.109-8.013,6.153-20.024-8-20.024-8,5.188-6.94,2.346-9.577l13.292,4.3s2.247-.491.487-2.442-2.071-5.475-2.071-5.475Z" transform="translate(-12.435 -8.037)" fill="#49be55"/>
      <path id="Path_12298" data-name="Path 12298" d="M311.03,152.506l2.638,3.029a3.8,3.8,0,0,1-2.638-3.029Z" transform="translate(-12.435 -8.037)" opacity="0.1"/>
      <path id="Path_12299" data-name="Path 12299" d="M294.1,143.978l4.106,5.275-2.051.491Z" opacity="0.1"/>
      <path id="Path_12300" data-name="Path 12300" d="M265.6,87.249a4.21,4.21,0,0,1,.439-3.436,27.131,27.131,0,0,0,1.7-3.149c.6-1.668.419-3.556,1.077-5.188,1.161-2.893,4.461-4.186,7.418-5.188a4.987,4.987,0,0,1,2.7-.367c1.2.283,1.975,1.369,2.953,2.1,4.014,2.993,10.543-.3,14.426,2.865a7.551,7.551,0,0,1,2.43,5.06,44.672,44.672,0,0,1-.024,5.754c-.064,3.36.567,7.035,3.081,9.262.758.67,1.652,1.173,2.394,1.868a3.269,3.269,0,0,1,1.2,2.67,9.258,9.258,0,0,1-.4,1.357c-.5,1.752.247,3.591,1.157,5.188,2.714,4.7,7.5,8.568,12.921,8.675-.363,2.738-3.192,4.326-5.726,5.447-3.192,1.433-6.592,2.837-10.108,2.658s-7.183-2.43-7.8-5.894c-.212-1.2-.184-2.638-1.2-3.26-.623-.379-1.429-.283-2.1-.567a3.7,3.7,0,0,1-1.768-2.49,22.411,22.411,0,0,1-1.041-6.385c-.044-2.57.3-5.375-1.161-7.49-1.349-1.959-3.743-2.953-5.3-4.753-1.437-1.668-3-3.679-5.351-3.991C274.261,87.536,267.525,91.962,265.6,87.249Z" transform="translate(-12.435 -8.037)" opacity="0.1"/>
      <path id="Path_12301" data-name="Path 12301" d="M265.6,86.662a4.21,4.21,0,0,1,.439-3.436,27.131,27.131,0,0,0,1.7-3.149c.6-1.668.419-3.556,1.077-5.188,1.161-2.9,4.461-4.19,7.418-5.188a4.987,4.987,0,0,1,2.7-.367c1.2.283,1.975,1.369,2.953,2.1,4.014,2.993,10.543-.3,14.426,2.865a7.552,7.552,0,0,1,2.43,5.064,44.607,44.607,0,0,1-.024,5.75c-.064,3.36.567,7.035,3.081,9.262.758.67,1.652,1.173,2.394,1.868a3.269,3.269,0,0,1,1.2,2.67,9.258,9.258,0,0,1-.4,1.357c-.5,1.752.247,3.591,1.157,5.188,2.721,4.681,7.486,8.564,12.909,8.671-.363,2.738-3.192,4.326-5.726,5.451-3.192,1.429-6.592,2.833-10.108,2.654s-7.183-2.43-7.8-5.894c-.212-1.2-.184-2.638-1.2-3.26-.623-.379-1.429-.283-2.1-.567a3.7,3.7,0,0,1-1.768-2.49,22.388,22.388,0,0,1-1.042-6.385c-.044-2.57.3-5.375-1.161-7.49-1.349-1.959-3.743-2.953-5.3-4.753-1.437-1.668-3-3.679-5.351-3.991C274.261,86.95,267.525,91.383,265.6,86.662Z" transform="translate(-12.435 -8.037)" fill="#585268"/>
      <path id="Path_12302" data-name="Path 12302" d="M274.549,119.058l7.227-5.866s-4.948-2.682-5.539-4.968-4.549,1.085-4.146,3.137S274.549,119.058,274.549,119.058Z" transform="translate(-12.435 -8.037)" opacity="0.1"/>
      <path id="Path_12303" data-name="Path 12303" d="M274.832,118.176l7.227-5.862s-4.948-2.682-5.515-4.968-4.549,1.085-4.146,3.137S274.832,118.176,274.832,118.176Z" transform="translate(-12.435 -8.037)" fill="#49be55"/>
      <circle id="Ellipse_415" data-name="Ellipse 415" cx="0.575" cy="0.575" r="0.575" transform="translate(269.333 108.61)" opacity="0.1"/>
      <circle id="Ellipse_416" data-name="Ellipse 416" cx="0.575" cy="0.575" r="0.575" transform="translate(269.333 111.803)" opacity="0.1"/>
      <circle id="Ellipse_417" data-name="Ellipse 417" cx="0.575" cy="0.575" r="0.575" transform="translate(269.333 114.991)" opacity="0.1"/>
      <g id="Group_2628" data-name="Group 2628" opacity="0.1">
        <path id="Path_12304" data-name="Path 12304" d="M268.519,78.514c.571-1.568.447-3.328.982-4.908a5.361,5.361,0,0,0-.611,1.125c-.662,1.648-.475,3.536-1.081,5.188l-.04.1a9.119,9.119,0,0,0,.75-1.5Z" transform="translate(-12.435 -8.037)"/>
        <path id="Path_12305" data-name="Path 12305" d="M314.111,118.016c-3.192,1.429-6.592,2.833-10.108,2.654s-7.183-2.43-7.8-5.89c-.211-1.2-.184-2.642-1.2-3.264-.623-.379-1.429-.283-2.1-.567a3.7,3.7,0,0,1-1.768-2.49,22.388,22.388,0,0,1-1.042-6.385c-.044-2.566.3-5.371-1.157-7.49-1.353-1.959-3.747-2.949-5.3-4.753-1.437-1.664-3-3.679-5.351-3.991-3.228-.439-9.976,3.991-11.884-.726a3.711,3.711,0,0,1,.124-2.726c-.14.235-.275.471-.4.71a4.227,4.227,0,0,0-.435,3.44c1.919,4.709,8.655.283,11.884.726,2.354.319,3.915,2.334,5.351,3.991,1.556,1.8,3.951,2.793,5.3,4.757,1.461,2.115,1.117,4.92,1.161,7.486a22.388,22.388,0,0,0,1.042,6.385,3.707,3.707,0,0,0,1.768,2.49c.67.283,1.477.192,2.1.567,1.03.623,1,2.079,1.2,3.264.623,3.46,4.286,5.71,7.8,5.89s6.9-1.221,10.108-2.654c2.314-1.03,4.892-2.454,5.587-4.789A12.089,12.089,0,0,1,314.111,118.016Z" transform="translate(-12.435 -8.037)"/>
      </g>
      <path id="Path_12306" data-name="Path 12306" d="M384.635,140.539c-8.448-4.86-11.64-6.058-11.656-6.058l-.176-.124a7.027,7.027,0,0,1-2.127-2.69,5.6,5.6,0,0,1,0-.579.244.244,0,0,0,0,.056c.132-2.574,1.963-4.916,3.7-6.959l4.441-5.224a5.148,5.148,0,0,0,1.145-1.812,4.179,4.179,0,0,0,.12-1.113q0-.227,0-.455c-.024-1.3-.06-2.6-.108-3.895-.04-1.133-.331-2.562-1.465-2.793-.591-.12-1.373.092-1.684-.4a.97.97,0,0,1-.076-.674.231.231,0,0,0,0,.056v-.064a15.031,15.031,0,0,0,.419-2.67,3.639,3.639,0,0,0-.184-1.353c-.654-1.88-2.917-2.654-4.916-3.009s-4.242-.658-5.495-2.223a16.263,16.263,0,0,0-1.093-1.5,4.314,4.314,0,0,0-2.043-1.01,11.573,11.573,0,0,0-7.434.646,6.673,6.673,0,0,1-3,.95c-1.061-.064-2.043-.83-3.129-1.014-1.756-.3-3.436.99-4.3,2.518a6.158,6.158,0,0,0-.8,2.969v.176h0a4.342,4.342,0,0,0,1.141,3.033c.758.8,1.884,1.325,2.2,2.358.128.419.1.874.212,1.3a1.165,1.165,0,0,0,.048.156l-.056.076a13.169,13.169,0,0,0-2.793,8.117,13.472,13.472,0,0,0,9.466,12.77c0,.132,0,.263,0,.4a5.741,5.741,0,0,1-1.836,4.469l-11.968,4.781s-7.215-.858-9.817,9.685a17.977,17.977,0,0,0-.447,5.347,15.5,15.5,0,0,1-2,8.009c-2.957,5.794-2.283,19.095,3.767,20.412,5.71,1.245,7.945.726,8.181.666v.231c-.1,2.5-1,24.023-4.294,26.625-.91.722-.742,1.2,0,1.536,0,0,0,.14-.02.4-.1,1.6-.607,7.582-2.793,10.982-2.558,3.951-2.291,26.737-2.291,26.737l-1.744,13.432s1.073,8.3,0,9.745c-.962,1.289-2.239,31.98-2.506,38.636h-.112a3.24,3.24,0,0,0-2.586,1.6c-1.413,2.295-6.361,6.536-6.361,6.536-1.073,1.524-5.044,2.985-7.143,3.671a4.435,4.435,0,0,0-.8.351,4.258,4.258,0,0,0-1.8,1.9,2.039,2.039,0,0,0-.192,1.6c.535,1.313,11.7,2.239,14.522.918,2.219-1.034,11.014-2.394,14.665-2.929a3.009,3.009,0,0,0,2.61-2.61,1.72,1.72,0,0,0-.335-1.3h0c-.7-.866-1.053-3.232-1.2-4.789a3.238,3.238,0,0,0,.822-.487,35.057,35.057,0,0,1,2-14.091c2.69-7.111,3.5-20.28,2.825-28.84,0,0,8.2-35.292,14.657-38.584h0c.1.128,3.232,4.146,3.631,16.593.4,12.642,4.972,20.938,4.972,20.938s-2.019,21.465,0,29.5l-2.638,12.67c-.2-.164-.319-.291-.319-.291s.08.351.188.914l-.056.271.116.024a24.937,24.937,0,0,1,.559,5.986c-.1.922-.363,2.187-.539,3.428-.279,1.951-.355,3.843.67,4.258,1.684.678,11.573,1.6,13.249-.575a3.109,3.109,0,0,0,.487-3.252,3.293,3.293,0,0,0-.487-.83s-2.626-4.29-1.884-7.315a2.227,2.227,0,0,0-.315-1.736,89.217,89.217,0,0,1,2.263-14.19c1.684-6.337,5.232-20.232,2.622-29.366h0q-.148-.539-.335-1.053a39.442,39.442,0,0,1-1.48-15.408,31.4,31.4,0,0,1,0-13.432c1.616-7.374,2.745-14.617,2.745-14.617s.89-9.745.112-15.719a3.918,3.918,0,0,0-.052-.4l.423-.1s-2.287-10.14-3.093-16.593c-.192-1.524-.439-3.452-.71-5.511a14.067,14.067,0,0,0,2.191-.547c7.259-2.5,9.545-25.14,9.545-25.14v-7.183S393.107,145.411,384.635,140.539ZM330.54,315.42c-.223-.112-.355-.188-.355-.188h0Z" transform="translate(-12.435 -8.037)" fill="url(#linear-gradient-7)"/>
      <path id="Path_12307" data-name="Path 12307" d="M380.254,271.241c3.149,9.055-.527,23.752-2.235,30.328a91.678,91.678,0,0,0-2.231,14.438,30.4,30.4,0,0,1-11.549-.263L367,302.227c-1.971-8.005,0-29.4,0-29.4s-4.461-8.268-4.856-20.866c-.4-12.4-3.444-16.409-3.54-16.533h0c-6.3,3.28-14.3,38.453-14.3,38.453.654,8.528-.136,21.653-2.757,28.732a35.515,35.515,0,0,0-1.967,14.039,4.269,4.269,0,0,1-3.591.686c-3.747-.607-8.24-3.835-8.24-3.835s1.441-38.309,2.494-39.762,0-9.713,0-9.713l1.7-13.384s-.263-22.706,2.231-26.641c2.155-3.4,2.65-9.378,2.745-10.946v-.4l3.8-4.549s36.745-2.757,39.506,0c.674.674,1.093,2.215,1.341,4.15.758,5.954-.112,15.663-.112,15.663s-1.1,7.219-2.678,14.565a31.972,31.972,0,0,0,0,13.388A40.077,40.077,0,0,0,380.254,271.241Z" transform="translate(-12.435 -8.037)" fill="#65617d"/>
      <path id="Path_12308" data-name="Path 12308" d="M377.955,328.784c-1.64,2.167-11.285,1.249-12.929.575-1-.4-.926-2.3-.654-4.246.172-1.233.423-2.494.527-3.412.259-2.362-.8-7.155-.8-7.155s2.163,2.3,2.686,0a2.5,2.5,0,0,1,1.876-1.78,4.9,4.9,0,0,1,3.408.212c1.7.742,4.545,2.318,4.038,4.449-.722,3.013,1.836,7.291,1.836,7.291a3.32,3.32,0,0,1,.479.822,3.149,3.149,0,0,1-.467,3.244Z" transform="translate(-12.435 -8.037)" fill="#a27772"/>
      <path id="Path_12309" data-name="Path 12309" d="M377.955,328.784c-1.64,2.167-11.285,1.249-12.929.575-1-.4-.926-2.3-.654-4.246a11.133,11.133,0,0,0,5.734.619,16.173,16.173,0,0,1,2.063-.064,47.981,47.981,0,0,0,6.265-.128A3.148,3.148,0,0,1,377.955,328.784Z" transform="translate(-12.435 -8.037)" opacity="0.1"/>
      <path id="Path_12310" data-name="Path 12310" d="M344.3,273.866c.654,8.528-.136,21.653-2.757,28.732a35.516,35.516,0,0,0-1.967,14.039,4.269,4.269,0,0,1-3.591.686c.8-5.535,4.166-29.382,6.325-48.226a78.913,78.913,0,0,1,13.967-36.218l2.295,2.526C352.3,238.694,344.3,273.866,344.3,273.866Z" transform="translate(-12.435 -8.037)" opacity="0.1"/>
      <path id="Path_12311" data-name="Path 12311" d="M374.017,135.938l-1.6,7.873L364.571,157l-9.677-4.134s-13.169-13.779-4.888-15.747a7.327,7.327,0,0,0,2.745-1.221,5.677,5.677,0,0,0,2.143-4.749,14.557,14.557,0,0,0-1.333-5.643l16.928-5.315a27.173,27.173,0,0,0-1.2,6.856c-.132,4.613,1.6,6.884,2.989,7.981A5.084,5.084,0,0,0,374.017,135.938Z" transform="translate(-12.435 -8.037)" fill="#fbbebe"/>
      <path id="Path_12312" data-name="Path 12312" d="M370.473,120.191a27.17,27.17,0,0,0-1.2,6.856,12.884,12.884,0,0,1-.986,1.05,13.392,13.392,0,0,1-13.384,3.053,14.558,14.558,0,0,0-1.345-5.643Z" transform="translate(-12.435 -8.037)" opacity="0.1"/>
      <path id="Path_12313" data-name="Path 12313" d="M372.417,118.024a13.324,13.324,0,1,1-3.9-9.483,13.388,13.388,0,0,1,3.9,9.483Z" transform="translate(-12.435 -8.037)" fill="#fbbebe"/>
      <path id="Path_12314" data-name="Path 12314" d="M374.017,135.938l-1.6,7.873L364.571,157l-9.677-4.134s-13.169-13.779-4.888-15.747a7.327,7.327,0,0,0,2.745-1.221c-1.492,4.1,4.669,12.638,4.669,12.638.718,1.057,2.362.4,2.362.4,3.971-.6,11.277-12.019,12.47-13.919a5.084,5.084,0,0,0,1.764.922Z" transform="translate(-12.435 -8.037)" opacity="0.1"/>
      <path id="Path_12315" data-name="Path 12315" d="M381.595,212.268c-2.33.531-15.224,3.384-20.112,2.67-5.379-.8-15.838-1.309-15.838-1.309s-6.66.359-8.711-.579v-.4l3.8-4.549s36.745-2.757,39.506,0C380.928,208.793,381.347,210.333,381.595,212.268Z" transform="translate(-12.435 -8.037)" opacity="0.1"/>
      <path id="Path_12316" data-name="Path 12316" d="M357.416,148.931s-6.924-9.577-4.314-13.328l-11.7,4.789s-7.039-.854-9.577,9.653a18.28,18.28,0,0,0-.435,5.331,15.773,15.773,0,0,1-1.927,7.981c-2.885,5.774-2.231,19.031,3.675,20.352s8,.654,8,.654-.8,24.015-4.2,26.772,8.7,2.1,8.7,2.1,10.459.527,15.842,1.313,20.471-2.757,20.471-2.757-2.231-10.1-3.021-16.533-2.63-20.124-2.63-20.124L389.691,157s2.362-10.958-5.906-15.814-11.377-6.046-11.377-6.046-8.308,13.528-12.638,14.182C359.778,149.322,358.134,149.984,357.416,148.931Z" transform="translate(-12.435 -8.037)" fill="#49be55"/>
      <path id="Path_12317" data-name="Path 12317" d="M342.061,152.734s-.128,4.334.658,6.038,3.675,11.173,3.675,11.173H339.83s3.544-3.807,3.284-5.647S342.061,152.734,342.061,152.734Z" transform="translate(-12.435 -8.037)" opacity="0.1"/>
      <path id="Path_12318" data-name="Path 12318" d="M361.486,185.412s-14.494-3.544-15.842-6.56-5.072-9.773-5.072-9.773l1.528-2.059,7.047,5.531s8.38,6.692,12.339,7.351S361.486,185.412,361.486,185.412Z" transform="translate(-12.435 -8.037)" fill="#fbbebe"/>
      <path id="Path_12319" data-name="Path 12319" d="M361.486,185.412s-14.494-3.544-15.842-6.56-5.072-9.773-5.072-9.773l1.528-2.059,7.047,5.531s8.38,6.692,12.339,7.351S361.486,185.412,361.486,185.412Z" transform="translate(-12.435 -8.037)" opacity="0.05"/>
      <path id="Path_12320" data-name="Path 12320" d="M374.017,168.353v7.861h-1.261a36.748,36.748,0,0,0-17.852,4.625l-2.364,1.309-.634.355-4.07-9.178,3.807-3.412h.2c.93.092,4.956.427,6.664-.148,1.62-.551,3.631-2.295,8.4-1.077,2.35.6,4.362,3.236,6.64,2.414Z" transform="translate(-12.435 -8.037)" fill="#fbbebe"/>
      <path id="Path_12321" data-name="Path 12321" d="M386.683,154.035l2.622,2.953v7.155s-2.231,22.57-9.314,25.065-19.737-1.445-19.737-1.445-3.268-8.659-1.74-9.178,13.508-3.687,13.508-3.687-.168-13.241,2.454-17.179c0,0-1.7-12.335,4.2-12.6S386.683,154.035,386.683,154.035Z" transform="translate(-12.435 -8.037)" opacity="0.1"/>
      <path id="Path_12322" data-name="Path 12322" d="M387.082,154.035l2.626,2.953v7.155s-2.231,22.57-9.318,25.065-19.737-1.445-19.737-1.445-3.268-8.659-1.736-9.178,13.508-3.687,13.508-3.687-.172-13.241,2.454-17.179c0,0-1.708-12.335,4.2-12.6S387.082,154.035,387.082,154.035Z" transform="translate(-12.435 -8.037)" fill="#49be55"/>
      <path id="Path_12323" data-name="Path 12323" d="M368.745,123.707a5.275,5.275,0,0,0-.3-2.558,1.947,1.947,0,0,0-2.083-1.2c-1.121.263-1.6,1.724-2.706,2.075a2.162,2.162,0,0,1-2.394-1.229,6.122,6.122,0,0,1-.455-2.857v-3.288a5.442,5.442,0,0,0-.774-3.42c-.914-1.165-3.065-1.676-4.5-1.628a3.819,3.819,0,0,0-2.57,1.034,3.307,3.307,0,0,1-2.7.962,2.326,2.326,0,0,1-1.884-1.628v-.04a13.384,13.384,0,1,1,19.9,17.766,36.08,36.08,0,0,0,.471-3.991Z" transform="translate(-12.435 -8.037)" opacity="0.1"/>
      <path id="Path_12324" data-name="Path 12324" d="M350.261,111.212a2.346,2.346,0,0,1-1.888-1.632c-.108-.423-.08-.874-.2-1.293-.307-1.034-1.409-1.568-2.147-2.354-1.477-1.568-1.381-4.146-.335-6.034.846-1.52,2.482-2.793,4.2-2.506,1.061.184,2,.938,3.057,1.01a6.167,6.167,0,0,0,2.925-.946,11.022,11.022,0,0,1,7.271-.646,4.19,4.19,0,0,1,2,1.01,17.449,17.449,0,0,1,1.065,1.5c1.221,1.556,3.412,1.864,5.363,2.215s4.158,1.125,4.789,3c.427,1.245,0,2.594-.231,3.887a1.173,1.173,0,0,0,.052.8c.307.5,1.069.291,1.644.4,1.105.235,1.389,1.66,1.433,2.793q.068,1.939.1,3.883a4.945,4.945,0,0,1-.116,1.437,5.072,5.072,0,0,1-1.113,1.808l-4.334,5.208c-1.923,2.307-3.963,5-3.591,7.981a1.859,1.859,0,0,1-2.291-1.333,5.961,5.961,0,0,1,.144-2.957,36.256,36.256,0,0,0,.694-5.128,5.26,5.26,0,0,0-.3-2.554,1.947,1.947,0,0,0-2.083-1.2c-1.125.263-1.6,1.724-2.706,2.075a2.162,2.162,0,0,1-2.394-1.229,6.106,6.106,0,0,1-.455-2.853v-3.292a5.442,5.442,0,0,0-.774-3.42c-.914-1.165-3.065-1.676-4.5-1.628a3.819,3.819,0,0,0-2.566,1.034A3.313,3.313,0,0,1,350.261,111.212Z" transform="translate(-12.435 -8.037)" fill="#7c5c5c"/>
      <path id="Path_12325" data-name="Path 12325" d="M353.282,152.406l4.11,16.884S360.632,169.27,353.282,152.406Z" transform="translate(-12.435 -8.037)" opacity="0.1"/>
      <path id="Path_12326" data-name="Path 12326" d="M367.325,149.585s-5.379,8.811-3.28,17.925l1,.072S363.258,163.364,367.325,149.585Z" transform="translate(-12.435 -8.037)" opacity="0.1"/>
      <path id="Path_12327" data-name="Path 12327" d="M370.721,199.455s6.608-2.187,7.087,2.885C377.824,202.34,376.579,198.864,370.721,199.455Z" transform="translate(-12.435 -8.037)" opacity="0.1"/>
      <path id="Path_12328" data-name="Path 12328" d="M351.642,170.32s-1.313,9.178,1.049,12.861a28.782,28.782,0,0,1-11.549,1.576l-.8-14.438Z" transform="translate(-12.435 -8.037)" opacity="0.1"/>
      <path id="Path_12329" data-name="Path 12329" d="M352.54,182.148l-.634.355-4.07-9.178,3.807-3.412h.2C351.777,170.368,350.716,178.257,352.54,182.148Z" transform="translate(-12.435 -8.037)" opacity="0.1"/>
      <path id="Path_12330" data-name="Path 12330" d="M351.642,169.929s-1.313,9.178,1.049,12.857a28.7,28.7,0,0,1-11.549,1.576l-4.593-14.434Z" transform="translate(-12.435 -8.037)" fill="#49be55"/>
      <path id="Path_12331" data-name="Path 12331" d="M340.293,323.2a2.973,2.973,0,0,1-2.55,2.6c-3.564.531-12.147,1.888-14.314,2.921-2.757,1.313-13.648.4-14.174-.918a2.083,2.083,0,0,1,.188-1.6,4.206,4.206,0,0,1,1.76-1.891,4.667,4.667,0,0,1,.8-.351c2.051-.682,5.926-2.135,6.971-3.659,0,0,4.833-4.226,6.209-6.509a3.153,3.153,0,0,1,2.522-1.572c1.149-.052,2.43.527,2.957,3.045,0,0,6.293,3.591,7.981.443,0,0,.263,4.837,1.309,6.161h0a1.756,1.756,0,0,1,.343,1.325Z" transform="translate(-12.435 -8.037)" fill="#a27772"/>
      <path id="Path_12332" data-name="Path 12332" d="M340.293,323.2a2.973,2.973,0,0,1-2.55,2.6c-3.564.531-12.147,1.888-14.314,2.921-2.757,1.313-13.648.4-14.174-.918a2.083,2.083,0,0,1,.188-1.6,4.206,4.206,0,0,1,1.76-1.891c1.776,1.2,5.718,2.33,14.39.978,8.272-1.293,12.371-2.558,14.366-3.42h0a1.756,1.756,0,0,1,.335,1.325Z" transform="translate(-12.435 -8.037)" opacity="0.1"/>
      <g id="Group_2629" data-name="Group 2629" opacity="0.1">
        <path id="Path_12333" data-name="Path 12333" d="M376.1,108.6v-.064a11.753,11.753,0,0,0,.4-2.981,19.672,19.672,0,0,1-.4,2.394A1.453,1.453,0,0,0,376.1,108.6Z" transform="translate(-12.435 -8.037)"/>
        <path id="Path_12334" data-name="Path 12334" d="M368.442,120.885a3.8,3.8,0,0,1,.323,1.5,4.525,4.525,0,0,0-.323-2.091,1.94,1.94,0,0,0-2.079-1.2c-1.125.263-1.6,1.724-2.71,2.075a2.167,2.167,0,0,1-2.394-1.229,6.072,6.072,0,0,1-.455-2.857V113.8a5.442,5.442,0,0,0-.774-3.42c-.918-1.169-3.065-1.676-4.5-1.632a3.823,3.823,0,0,0-2.57,1.038,3.316,3.316,0,0,1-2.706.962,2.338,2.338,0,0,1-1.884-1.628c-.108-.423-.08-.878-.2-1.3-.307-1.03-1.409-1.568-2.147-2.35a4.3,4.3,0,0,1-1.105-2.793,4.473,4.473,0,0,0,1.105,3.364c.738.8,1.84,1.321,2.147,2.35.124.4.1.874.2,1.3a2.338,2.338,0,0,0,1.884,1.628,3.316,3.316,0,0,0,2.706-.962,3.823,3.823,0,0,1,2.57-1.038c1.437-.044,3.591.463,4.5,1.632a5.474,5.474,0,0,1,.774,3.42v3.288a6.039,6.039,0,0,0,.455,2.853,2.172,2.172,0,0,0,2.394,1.233c1.1-.351,1.6-1.812,2.71-2.075A2.016,2.016,0,0,1,368.442,120.885Z" transform="translate(-12.435 -8.037)"/>
        <path id="Path_12335" data-name="Path 12335" d="M379.228,117.274a5.044,5.044,0,0,1-1.117,1.8l-4.334,5.208c-1.824,2.191-3.751,4.729-3.591,7.526.132-2.566,1.919-4.9,3.591-6.936l4.334-5.208a5.043,5.043,0,0,0,1.117-1.8,4.981,4.981,0,0,0,.116-1.441,3.792,3.792,0,0,1-.116.85Z" transform="translate(-12.435 -8.037)"/>
        <path id="Path_12336" data-name="Path 12336" d="M367.927,130.933a3.07,3.07,0,0,1-.132-.7,3.539,3.539,0,0,0,.132,1.293,1.852,1.852,0,0,0,2.291,1.329,5.6,5.6,0,0,1-.048-.575A1.855,1.855,0,0,1,367.927,130.933Z" transform="translate(-12.435 -8.037)"/>
      </g>
      <path id="Path_12337" data-name="Path 12337" d="M324.307,315s1.373,2.394,6.345.287" transform="translate(-12.435 -8.037)" opacity="0.1"/>
      <path id="Path_12338" data-name="Path 12338" d="M366.331,315.579s4.286,5.048,9.689,1.656" transform="translate(-12.435 -8.037)" opacity="0.1"/>
      <path id="Path_12339" data-name="Path 12339" d="M378.805,255.885s-3.029,1.892-3.125,2.973,1.564-.8,1.564-.8Z" transform="translate(-12.435 -8.037)" opacity="0.1"/>
      <path id="Path_12340" data-name="Path 12340" d="M380,270.395a6.332,6.332,0,0,1-3.731,1.457c-2.267.1-2.075,3.053-.595,2.167A37.136,37.136,0,0,0,380,270.395Z" transform="translate(-12.435 -8.037)" opacity="0.1"/>
      <path id="Path_12341" data-name="Path 12341" d="M380.577,272.29s-1.453,7.139-2.634,5.762" transform="translate(-12.435 -8.037)" opacity="0.1"/>
      <path id="Path_12342" data-name="Path 12342" d="M99.955,325.8s9.118,2.5,13.508-.826,6.293-2.259,6.293-2.259,10.467-.579,11.329-3.053-4.014-11.461-4.014-11.461c-.347-.8-.854-1.812-1.081-1.812l.048-3.791h0l1.516-15.862c3.5-8.975.064-20.571.064-20.571l-.627-2.877a7.279,7.279,0,0,1,.595-4.789l6.357-12.77a19.11,19.11,0,0,1,1.2-2.45c.4-.73.93-1.632,1.6-2.714.2-.311.4-.635.623-.974.77-1.2,1.7-2.554,2.833-4.118a33.7,33.7,0,0,0,5.06-12.371l.339,1.125h.076l.092.02h.152l.164.028h.06l1.955,24.885c.12,9.7,3.683,15.076,3.683,15.076l-.491,21.425c.67,5.16-.8,12.039-1.473,14.785l-1.54,3.476a4.178,4.178,0,0,0-2.271,3.16c-.3,2.566-3,8.1-3,8.1-1.046,1.325-3.316,4.9-3.316,4.9s-1.069,3.456-.407,4.749,6.2,1.161,6.2,1.161c6.325,1.4,11.173-2,10.866-4.334s.986-2.933.986-2.933c2.514-.8,2.271-2.5,2.271-2.5a15.659,15.659,0,0,0-1.9-10.192l-.4.922a14.034,14.034,0,0,1,.758-5.439l-.231.16-.072.044h-.024c.4-3.5,4.074-9.976,4.074-9.976,6.752-11.844,4.3-27.894,4.3-27.894l-1.046-5-.06-1.888a63,63,0,0,1,1.018-13.448c.363-1.963.738-4.334,1.026-6.947a61.407,61.407,0,0,1,3.464-13.636l.267-.048h.032c.367-.064.738-.128,1.113-.2h.072s.215-1.165.4-3.149c.108-1.265.2-2.869.2-4.713a53.023,53.023,0,0,0-2.518-16.405l.2-.291s.483-.654,1.365-1.788h0c1.62-2.059,4.142-5.188,7.251-8.715,5.567-6.349,3.931-12.77,3.931-12.77s-4.03-14.769-5.826-23.636a26.879,26.879,0,0,0-4.422-10.515,20.927,20.927,0,0,0,.559-4.262,15.569,15.569,0,0,0-1.153-7.722c-1.181-2.358-3.7-4.222-6.321-3.907a2.419,2.419,0,0,1-1.133,0,1.724,1.724,0,0,1-.746-.65c-1.536-2.119-1.636-4.968-1.157-7.538s1.461-5.028,1.9-7.606.239-5.439-1.4-7.482c-1.927-2.394-5.287-3.069-7.794-4.868-1.76-1.265-3.081-3.081-4.936-4.2s-3.591-.694-5.607-.271c-3.388.714-6.608,1.042-9.813,2.5A26.134,26.134,0,0,0,126.4,100.9a8.117,8.117,0,0,0-1.907,3.009c-.8,2.638.762,5.447.435,8.177-.231,1.935-1.373,3.619-2.279,5.347s-1.6,3.779-.886,5.587c1.117,2.825,4.761,3.424,7.41,4.928a2.262,2.262,0,0,1,.878.762c.654,1.141-.682,2.326-1.524,3.34a5.032,5.032,0,0,0-1,2.027,7.231,7.231,0,0,0-4.338,5.236c-.9,4.018.483,9.09,1.7,12.442-1.329,7.466.4,10.411,1.672,11.541a6.4,6.4,0,0,1,2.219,4.366v.14c.084,1.357.227,2.71.419,4.058h0c-.044-.315-.088-.65-.112-.8-1.042,1.927-3.025,6.852-4.142,15.136a45.489,45.489,0,0,1-1.01,5.271,28.828,28.828,0,0,0-.846,9.426l.2,2.686a.846.846,0,0,1-.543-.18l1.4,2.566v4.33a15.963,15.963,0,0,1-1.061,5.71c-.1.263-.208.527-.323.8a4.645,4.645,0,0,0-.471,2.35c-3.013,4.617-9.92,30.492-9.92,30.492-3.747,8.484.307,13.967.307,13.967s1.963,23.62,2.33,24.841,1.181,15.619,1.181,15.619h0v1.145a2.685,2.685,0,0,0-.682-.2c-3.284-.184-4.174,5-4.174,5l-6.72,6.417s-3.069-.519-7.582,2.869S99.955,325.8,99.955,325.8Zm67.1-136.512-.02-.072-.184.108h0l-.076.044-.036.024h0l-3.1-10.93a18.149,18.149,0,0,1-.227-8.991l2.394-10.487h0v-2.522l7.61,20.28C173.907,179.47,169.386,186.091,167.056,189.283Z" transform="translate(-12.435 -8.037)" fill="url(#linear-gradient-8)"/>
      <path id="Path_12343" data-name="Path 12343" d="M170.4,222.273a62.846,62.846,0,0,0-3.855,14.645c-.283,2.586-.65,4.924-1.01,6.864a62.723,62.723,0,0,0-.982,13.277l.06,1.864,1,4.936s2.394,15.854-4.218,27.535c0,0-3.919,7-4.038,10.308l-2.654,1.026-5.363-1.5s2.59-9.286,1.748-15.795l.483-21.15s-3.484-5.291-3.6-14.869l-2.047-26.282Z" transform="translate(-12.435 -8.037)" fill="#fdc2cc"/>
      <path id="Path_12344" data-name="Path 12344" d="M145.914,218.53s-.658,10.248-5.726,17.311-6.145,10.128-6.145,10.128L127.8,258.587a7.227,7.227,0,0,0-.587,4.721l.615,2.841s3.376,11.453-.06,20.316l-1.628,17.119h-9.521s-.8-14.226-1.145-15.431-2.291-24.534-2.291-24.534-3.991-5.427-.3-13.8c0,0,8.32-31.346,10.547-30.8S145.914,218.53,145.914,218.53Z" transform="translate(-12.435 -8.037)" fill="#fdc2cc"/>
      <g id="Group_2630" data-name="Group 2630" opacity="0.1">
        <path id="Path_12345" data-name="Path 12345" d="M126.863,266.169l-.611-2.841a7.183,7.183,0,0,1,.583-4.741l6.241-12.63s1.081-3.073,6.145-10.128c4.864-6.784,5.667-16.5,5.722-17.251l.97-.048s-.658,10.248-5.726,17.311-6.145,10.128-6.145,10.128L127.8,258.587a7.227,7.227,0,0,0-.587,4.721l.615,2.841s3.376,11.453-.06,20.316l-1.628,17.119h-.966l1.628-17.119C130.239,277.6,126.863,266.169,126.863,266.169Z" transform="translate(-12.435 -8.037)"/>
      </g>
      <path id="Path_12346" data-name="Path 12346" d="M156.4,301.712c.12-3.312,4.038-10.308,4.038-10.308,6.632-11.692,4.218-27.535,4.218-27.535l-1.022-4.94-.06-1.864a62.722,62.722,0,0,1,.982-13.277c.355-1.939.722-4.278,1.006-6.864a62.836,62.836,0,0,1,3.843-14.613l.99-.04a62.846,62.846,0,0,0-3.855,14.645c-.283,2.586-.65,4.924-1.01,6.864a62.723,62.723,0,0,0-.982,13.277l.06,1.864,1,4.936s2.394,15.854-4.218,27.535c0,0-3.919,7-4.038,10.308l-2.654,1.026-.559-.156Z" transform="translate(-12.435 -8.037)" opacity="0.1"/>
      <path id="Path_12347" data-name="Path 12347" d="M153.328,301.593a4.613,4.613,0,0,0,4.39-.543,14.166,14.166,0,0,0-.359,7.957c1.085,4.342-10.128-3.5-10.128-3.5l2.394-5.471S150.555,301.772,153.328,301.593Z" transform="translate(-12.435 -8.037)" fill="#d39999"/>
      <path id="Path_12348" data-name="Path 12348" d="M154.162,301.836a4.481,4.481,0,0,0,3.564-.8,14.166,14.166,0,0,0-.359,7.957c1.085,4.342-10.128-3.5-10.128-3.5l2.394-5.471a3.421,3.421,0,0,0,2.734,1.54C152.985,301.64,153.576,301.724,154.162,301.836Z" transform="translate(-12.435 -8.037)" opacity="0.1"/>
      <path id="Path_12349" data-name="Path 12349" d="M115.454,192.144h4.685V165.563l-3.516-.631Z" fill="#fdc2cc"/>
      <path id="Path_12350" data-name="Path 12350" d="M115.454,192.144h4.685V165.563l-3.516-.631Z" opacity="0.05"/>
      <path id="Path_12351" data-name="Path 12351" d="M150.675,303.644a4.671,4.671,0,0,1,4.278,2.47l1.628,1.265.8-1.868a15.563,15.563,0,0,1,1.844,10.068s.239,1.684-2.231,2.47c0,0-1.265.6-.966,2.893s-4.457,5.667-10.667,4.278c0,0-5.427.124-6.09-1.145s.423-4.641.423-4.641,2.231-3.536,3.252-4.841c0,0,2.654-5.467,2.957-7.981S149.106,302.255,150.675,303.644Z" transform="translate(-12.435 -8.037)" fill="#7e5659"/>
      <path id="Path_12352" data-name="Path 12352" d="M126.233,305.874l.048-3.747s-5.391,1.552-9.757-.2c0,0,.367,3.767-.239,4.282s2.019,5.363,2.019,5.363l2.933,3.073,5.044-1.836,1.369-4.31S126.592,305.874,126.233,305.874Z" transform="translate(-12.435 -8.037)" fill="#d39999"/>
      <path id="Path_12353" data-name="Path 12353" d="M126.233,305.874l.048-3.747s-5.391,1.552-9.757-.2c0,0,.367,3.767-.239,4.282s2.019,5.363,2.019,5.363l2.933,3.073,5.044-1.836,1.369-4.31S126.592,305.874,126.233,305.874Z" transform="translate(-12.435 -8.037)" opacity="0.1"/>
      <path id="Path_12354" data-name="Path 12354" d="M115.953,304.518s2.865.331,2.5,3.991.152,0,.152,0,3.045,1.233,4.13,2.953,3.045-1.536,3.192-2.47,1.369-1.321,1.369-1.321,4.789,8.879,3.943,11.321-11.126,3-11.126,3-1.872-1.053-6.181,2.231-13.261.8-13.261.8-7.295-3.045-2.861-6.385,7.442-2.833,7.442-2.833l6.6-6.361S112.729,304.334,115.953,304.518Z" transform="translate(-12.435 -8.037)" fill="#7e5659"/>
      <path id="Path_12355" data-name="Path 12355" d="M150.172,94.612c1.824,1.105,3.121,2.9,4.848,4.15,2.458,1.776,5.758,2.438,7.65,4.809,1.6,2.019,1.8,4.841,1.373,7.386s-1.4,4.976-1.864,7.514-.371,5.351,1.137,7.442a1.688,1.688,0,0,0,.73.642,2.394,2.394,0,0,0,1.113,0c2.578-.311,5.052,1.532,6.209,3.859a15.454,15.454,0,0,1,1.129,7.626,15.761,15.761,0,0,1-1.273,6.213c-1.6,3.256-4.916,5.268-8.193,6.808a63.456,63.456,0,0,1-6.54,2.642,9.843,9.843,0,0,1-4.741.714c-2.726-.471-4.657-2.949-7.243-3.919-2.119-.8-4.469-.511-6.724-.311-1.923.168-4.122.164-5.447-1.241-1.7-1.8-.934-4.713-.064-7.035a5.008,5.008,0,0,1-3.544-8.189c.822-1,2.135-2.171,1.492-3.3a2.187,2.187,0,0,0-.862-.75c-2.6-1.484-6.177-2.079-7.271-4.864-.7-1.792-.024-3.819.866-5.523s2-3.372,2.239-5.279c.319-2.7-1.2-5.471-.427-8.073a8.093,8.093,0,0,1,1.872-2.977,25.683,25.683,0,0,1,8.38-6.141c3.149-1.441,6.305-1.764,9.633-2.466C146.648,93.925,148.3,93.478,150.172,94.612Z" transform="translate(-12.435 -8.037)" fill="#865a61"/>
      <path id="Path_12356" data-name="Path 12356" d="M132.569,134.784s-7.634-.4-9.078,6.11,3.133,15.83,3.133,15.83Z" transform="translate(-12.435 -8.037)" fill="#fdc2cc"/>
      <path id="Path_12357" data-name="Path 12357" d="M132.569,134.784s-7.634-.4-9.078,6.11,3.133,15.83,3.133,15.83Z" transform="translate(-12.435 -8.037)" opacity="0.05"/>
      <path id="Path_12358" data-name="Path 12358" d="M127.7,154.154l2.893,2.291,13.5.6,8.428-5.786,8.572-14.709a10.6,10.6,0,0,1-8.149-8.34,18.26,18.26,0,0,1-.168-6.967s-13.743-7.115-12.055,3.991a15.084,15.084,0,0,1,.128,4.126c-.8,6.5-7.111,5.279-7.111,5.279l-2.422,3.735-2.773,9.178Z" transform="translate(-12.435 -8.037)" fill="#fdc2cc"/>
      <path id="Path_12359" data-name="Path 12359" d="M140.73,125.219a15.084,15.084,0,0,1,.128,4.126,12.183,12.183,0,0,0,12.1-1.133,18.261,18.261,0,0,1-.168-6.967S139.042,114.129,140.73,125.219Z" transform="translate(-12.435 -8.037)" opacity="0.1"/>
      <circle id="Ellipse_418" data-name="Ellipse 418" cx="12.175" cy="12.175" r="12.175" transform="translate(121.312 97.577)" fill="#fdc2cc"/>
      <path id="Path_12360" data-name="Path 12360" d="M137.31,151.832c.3,0,.587.044.878.072,1.6.16,8.264.519,12.063-4.018,4.25-5.076,9.908-11.345,10.14-11.6l5.758,1.74s-4.557-1.62-7.582,6.856a8.779,8.779,0,0,0,2.965,10.1,9.122,9.122,0,0,0,3.767,1.6.02.02,0,0,1,0,.02v3.719h0l-2.354,10.375a17.985,17.985,0,0,0,.223,8.879l3.591,12.694c-.543.375-22.826,15.531-37.711,5.064h0c.056-.455,1.9-15.352.619-22.642a50.349,50.349,0,0,1-.666-5.635c0-.048,0-.092,0-.14a6.353,6.353,0,0,0-2.183-4.31c-1.341-1.2-3.157-4.39-1.361-12.826a30.991,30.991,0,0,1,2-6.078l4.992-11.281h0l4.6.092v.032c-.4.495-5.734,7.159-6.313,11.453C130.167,150.076,129.469,151.329,137.31,151.832Z" transform="translate(-12.435 -8.037)" fill="#49be55"/>
      <path id="Path_12361" data-name="Path 12361" d="M170.025,140.008s4.5,3.859,6.269,12.618S182,175.935,182,175.935s1.6,6.349-3.859,12.618-9.082,11.173-9.082,11.173l-3.591,5.291a4.505,4.505,0,0,1-2.586,1.828,8.734,8.734,0,0,1-6.329-.451,3.687,3.687,0,0,1-1.6-4.657l.8-1.848s-7.394,4.661-8.037,2.087,8.6-5.144,8.6-5.144,7.634-1.285,9.178-4.9c0,0,8.2-10.531,7.554-14.146l-7.917-21.218s-9.9-1.309-6.525-12.43S170.025,140.008,170.025,140.008Z" transform="translate(-12.435 -8.037)" fill="#fdc2cc"/>
      <path id="Path_12362" data-name="Path 12362" d="M122.685,220.058s18.085,3.615,22.347,3.133l.459,1.528s6.864,1.536,22.383-.926q1.52-.239,3.157-.539l.363-.064s.211-1.149.379-3.109a53.91,53.91,0,0,0-2.63-21.884l-2.61-8.037s-16.13,9.669-26.808,8.779c-.954-.08-1.9-.156-2.853-.188-2.191-.084-5.587,0-7.794-1.768l-4.629.8v13.169a15.778,15.778,0,0,1-1.046,5.635c-.1.263-.2.523-.319.8A4.19,4.19,0,0,0,122.685,220.058Z" transform="translate(-12.435 -8.037)" fill="#65617d"/>
      <path id="Path_12363" data-name="Path 12363" d="M145.487,220.621v4.1s7.9,1.768,25.9-1.528c0,0,.211-1.149.379-3.109C166.246,220.968,151.014,223.1,145.487,220.621Z" transform="translate(-12.435 -8.037)" opacity="0.1"/>
      <path id="Path_12364" data-name="Path 12364" d="M122.685,220.058s18.085,3.615,22.347,3.133l.459,1.528v-4.1c-2.059.854-16.76-2.69-22.088-4.018-.1.263-.2.523-.319.8a4.19,4.19,0,0,0-.4,2.658Z" transform="translate(-12.435 -8.037)" opacity="0.1"/>
      <path id="Path_12365" data-name="Path 12365" d="M166.529,215.489l1.341,8.316q1.52-.239,3.157-.539c-.419-2.43-1.333-7.981-1.081-8.9l-1.688-1.445Z" transform="translate(-12.435 -8.037)" fill="#65617d"/>
      <path id="Path_12366" data-name="Path 12366" d="M166.716,215.309l1.341,8.32q1.52-.243,3.157-.539c-.419-2.43-1.333-7.981-1.081-8.9l-1.688-1.449Z" transform="translate(-12.435 -8.037)" opacity="0.1"/>
      <g id="Group_2631" data-name="Group 2631" opacity="0.05">
        <path id="Path_12367" data-name="Path 12367" d="M138.755,198.936c-.95-.08-1.9-.156-2.853-.188-2.131-.08-5.383,0-7.6-1.632l.774-.136c2.219,1.76,5.587,1.684,7.794,1.768.954.032,1.9.108,2.853.188.311.028.63.044.954.052a17.9,17.9,0,0,1-1.919-.052Z" transform="translate(-12.435 -8.037)"/>
        <path id="Path_12368" data-name="Path 12368" d="M166.9,223.793q1.52-.239,3.157-.535l.367-.068s.212-1.149.375-3.109a53.768,53.768,0,0,0-2.63-21.884l-2.458-7.582c.523-.3.8-.467.8-.467l2.61,8.037a53.91,53.91,0,0,1,2.63,21.884c-.168,1.959-.379,3.109-.379,3.109l-.363.068q-1.632.3-3.157.535a99.4,99.4,0,0,1-16.261,1.4A102.559,102.559,0,0,0,166.9,223.793Z" transform="translate(-12.435 -8.037)"/>
        <path id="Path_12369" data-name="Path 12369" d="M144.058,223.191v.044h-.519Q143.835,223.214,144.058,223.191Z" transform="translate(-12.435 -8.037)"/>
      </g>
      <ellipse id="Ellipse_419" data-name="Ellipse 419" cx="0.682" cy="1.405" rx="0.682" ry="1.405" transform="translate(155.659 206.195)" fill="#d39999"/>
      <path id="Path_12370" data-name="Path 12370" d="M125.223,187.192c1.1-8.181,3.045-13.041,4.07-14.945.04.259.144,1.1.192,1.361a39.517,39.517,0,0,1,.088,4.226l-1.022,18.5,1.369,5.786c1.285,4.581-3.476.962-3.476.962a2.833,2.833,0,0,1-2.793,1.931l-.247-3.32a28.676,28.676,0,0,1,.83-9.31,44.361,44.361,0,0,0,.99-5.192Z" transform="translate(-12.435 -8.037)" fill="#fdc2cc"/>
      <path id="Path_12371" data-name="Path 12371" d="M125.223,187.192c1.1-8.181,3.045-13.041,4.07-14.945.04.259.144,1.1.192,1.361a39.517,39.517,0,0,1,.088,4.226l-1.022,18.5,1.369,5.786c1.285,4.581-3.476.962-3.476.962a2.833,2.833,0,0,1-2.793,1.931l-.247-3.32a28.676,28.676,0,0,1,.83-9.31,44.361,44.361,0,0,0,.99-5.192Z" transform="translate(-12.435 -8.037)" opacity="0.05"/>
      <path id="Path_12372" data-name="Path 12372" d="M171.026,197.172c-.866,1.121-1.341,1.764-1.341,1.764l-3.591,5.287a4.485,4.485,0,0,1-2.586,1.828,8.714,8.714,0,0,1-6.329-.451,3.679,3.679,0,0,1-1.6-4.653l.8-1.852s-7.394,4.661-8.037,2.091,8.6-5.144,8.6-5.144,7.634-1.285,9.178-4.9c0,0,.666-.854,1.6-2.163" transform="translate(-12.435 -8.037)" fill="#fdc2cc"/>
      <path id="Path_12373" data-name="Path 12373" d="M166.529,206.035s-8.743-.85-11.513-5.85l-1.269,4.13s9.178,6.337,11.273,5.515Z" transform="translate(-12.435 -8.037)" fill="#65617d"/>
      <path id="Path_12374" data-name="Path 12374" d="M166.218,206s-8.739-.85-11.513-5.854l-1.265,4.118s9.178,6.337,11.269,5.515Z" transform="translate(-12.435 -8.037)" opacity="0.1"/>
      <path id="Path_12375" data-name="Path 12375" d="M126.731,203.7s-3.061,1.085-3.663.483l1.377,2.534,2.6-2Z" transform="translate(-12.435 -8.037)" fill="#65617d"/>
      <path id="Path_12376" data-name="Path 12376" d="M126.731,203.7s-3.061,1.085-3.663.483l1.377,2.534,2.6-2Z" transform="translate(-12.435 -8.037)" opacity="0.1"/>
      <path id="Path_12377" data-name="Path 12377" d="M133.052,212.584V207.3l-1.257,5.415Z" opacity="0.1"/>
      <path id="Path_12378" data-name="Path 12378" d="M157.885,111.36a4.7,4.7,0,0,1-3.28,1.728,25.848,25.848,0,0,1-3.811,0,9.558,9.558,0,0,0-5.75,1.449,14.62,14.62,0,0,0-2.638,2.793c-2.466,3.013-5.89,5.834-9.777,5.519a2.534,2.534,0,0,1-1.816-.766,2.913,2.913,0,0,1-.463-1.652,37.767,37.767,0,0,1,.235-7.446,15.7,15.7,0,0,1,1.125-4.441,15.164,15.164,0,0,1,2.706-3.863,16.549,16.549,0,0,1,4.721-3.783,8.468,8.468,0,0,1,5.906-.762c2.326.634,4.138,2.454,6.357,3.392C153.935,104.592,160.663,107.437,157.885,111.36Z" transform="translate(-12.435 -8.037)" opacity="0.1"/>
      <path id="Path_12379" data-name="Path 12379" d="M157.885,110.877a4.7,4.7,0,0,1-3.28,1.728,25.848,25.848,0,0,1-3.811,0,9.527,9.527,0,0,0-5.75,1.445,14.62,14.62,0,0,0-2.638,2.793c-2.466,3.013-5.89,5.834-9.777,5.519a2.518,2.518,0,0,1-1.816-.766,2.9,2.9,0,0,1-.463-1.652,37.766,37.766,0,0,1,.235-7.446,15.7,15.7,0,0,1,1.125-4.441,15.06,15.06,0,0,1,2.706-3.859,16.492,16.492,0,0,1,4.721-3.787,8.468,8.468,0,0,1,5.906-.762c2.326.634,4.138,2.454,6.357,3.392C153.935,104.109,160.663,106.946,157.885,110.877Z" transform="translate(-12.435 -8.037)" fill="#865a61"/>
      <path id="Path_12380" data-name="Path 12380" d="M116.643,188.94l-.032,1.457L116.284,189Z" fill="#fdc2cc"/>
      <path id="Path_12381" data-name="Path 12381" d="M116.643,188.94l-.032,1.457L116.284,189Z" opacity="0.05"/>
      <g id="Group_2632" data-name="Group 2632" opacity="0.05">
        <path id="Path_12382" data-name="Path 12382" d="M159.853,143.376c-3.38,11.122,6.473,12.427,6.473,12.427l7.917,21.218c.642,3.615-7.558,14.146-7.558,14.146a7.013,7.013,0,0,1-3.552,3.133,5.563,5.563,0,0,0,2.107-2.315s8.2-10.527,7.554-14.142l-7.917-21.222s-9.849-1.3-6.473-12.427c1.129-3.715,2.793-5.407,4.477-6.014A10.245,10.245,0,0,0,159.853,143.376Z" transform="translate(-12.435 -8.037)"/>
      </g>
      <g id="Group_2633" data-name="Group 2633" opacity="0.1">
        <path id="Path_12383" data-name="Path 12383" d="M160.02,153.48a8.316,8.316,0,0,0,1.6,1.512,9.071,9.071,0,0,0,3.767,1.6v.419a9.043,9.043,0,0,1-3.416-1.512A8.28,8.28,0,0,1,160.02,153.48Z" transform="translate(-12.435 -8.037)"/>
        <path id="Path_12384" data-name="Path 12384" d="M129.4,169.39v.14a51.541,51.541,0,0,0,.686,5.655c1.2,6.88-.371,20.539-.595,22.427-.128-.084-.255-.164-.4-.255.06-.455,1.9-15.352.623-22.638a50.568,50.568,0,0,1-.666-5.635v-.14a6.157,6.157,0,0,0-1.073-3.053,6.205,6.205,0,0,1,1.425,3.5Z" transform="translate(-12.435 -8.037)"/>
        <path id="Path_12385" data-name="Path 12385" d="M136.752,134.96l-3.9-.076a.02.02,0,0,0-.02,0l-4.988,11.277a31.092,31.092,0,0,0-2,6.078c-1.453,6.824-.539,10.224.571,11.9-1.249-1.473-2.538-4.829-.93-12.371a30.762,30.762,0,0,1,1.975-6.082l5.024-11.277h0l4.6.092v.028C137.051,134.581,136.927,134.732,136.752,134.96Z" transform="translate(-12.435 -8.037)"/>
        <path id="Path_12386" data-name="Path 12386" d="M166.162,138.021l.068.02Z" transform="translate(-12.435 -8.037)"/>
        <path id="Path_12387" data-name="Path 12387" d="M164.729,137.957l-3.911-1.177h-.02c-.231.255-5.886,6.525-10.136,11.6-3.8,4.537-10.459,4.182-12.063,4.022-.291-.032-.587-.056-.878-.076-4.362-.279-6.078-.8-6.652-1.9.818.8,2.618,1.2,6.289,1.421.3,0,.587.044.878.072,1.6.16,8.264.515,12.063-4.018,4.25-5.08,9.908-11.349,10.14-11.6h0l5.691,1.724a3.555,3.555,0,0,0-1.4-.064Z" transform="translate(-12.435 -8.037)"/>
      </g>
      <path id="Path_12388" data-name="Path 12388" d="M118.427,310.316s-5.507,1.5-6.572-.858" transform="translate(-12.435 -8.037)" opacity="0.1"/>
      <path id="Path_12389" data-name="Path 12389" d="M153.388,309.186s-6.385,1.648-7.861-.9" transform="translate(-12.435 -8.037)" opacity="0.1"/>
      <path id="Path_12390" data-name="Path 12390" d="M245.458,305.615c.092-.8.223-1.6.367-2.394a16.688,16.688,0,0,0-.8-8.093h0c-.148-.419-.255-.654-.255-.654-2.542-.694-12.562,7.079-16.214,10.008-1.265,0-2.638.056-4.138.156-.654.048-1.309.064-1.963.052h-2.394c-3.388-2.73-13.875-10.938-16.485-10.228,0,0-.108.235-.255.654h0a16.4,16.4,0,0,0-.818,8.093c.144.8.275,1.6.367,2.394a11.457,11.457,0,0,0,3.591,7.386,48.412,48.412,0,0,0,4.35,12.917,9.25,9.25,0,0,0,.559,1.824c-.678,2.618-1.461,6.034-1.237,7.183,0,0-3.544-.858-3.9,3.408v.132c-1.281.587-2.881,1.931-1.081,4.749a1.848,1.848,0,0,0,.926.754c.319.112.631.112.6-.335l2.215,2.494s4.014.463,4.062-1.868l.235.036c.539.08,1.1.148,1.68.208l.279.922s-3.013-.064-2.191,1.792c0,0,.758.7,1.018.447,0,0-.4,1.217,1.173,1.217,0,0,1.688.894,2.346.255s2.023-1.6,2.151-2c.036-.108.052-1.053.06-2.362h.259c3.364.08,6.936-.028,10.184-.2h.263c0,1.417.02,2.462.056,2.574.132.4,1.5,1.345,2.155,2s2.342-.255,2.342-.255c1.564,0,1.173-1.217,1.173-1.217.263.255,1.022-.447,1.022-.447.822-1.856-2.195-1.792-2.195-1.792l.359-1.2,1.664-.14.263-.024c-.16,2.534,4.058,2.047,4.058,2.047l2.219-2.494c-.036.447.275.447.595.335a1.831,1.831,0,0,0,.9-.762c2.718-4.25-2.3-5.152-2.3-5.152a2.461,2.461,0,0,0-.475-.076.818.818,0,0,1,.02-.219h0a8.757,8.757,0,0,0,.032-1.684,3.7,3.7,0,0,0-2.989-2.175c-1.022-.128-1.042-4.821-.938-8.073a9.287,9.287,0,0,0,.16-1.852,9.769,9.769,0,0,0-.4-2.965,38.021,38.021,0,0,0,3.771-7.981A11.61,11.61,0,0,0,245.458,305.615Z" transform="translate(-12.435 -8.037)" fill="url(#linear-gradient-9)"/>
      <path id="Path_12391" data-name="Path 12391" d="M241.595,337.958h0c-.16,2.211-.587,5.758-.587,5.758s-1.776.215-4.521.463l-1.864.16c-1.429.116-3.033.227-4.729.323-3.133.172-6.572.279-9.817.2-1.62-.036-3.192-.12-4.649-.263-.65-.064-1.281-.14-1.88-.227-3.719-.555-6.385-1.616-6.612-3.48a10.775,10.775,0,0,1-.084-2.394c.347-4.19,3.759-3.344,3.759-3.344-.219-1.157.607-4.753,1.277-7.355.423-1.64.8-2.885.8-2.885l23.991-1.6h.08a1.173,1.173,0,0,1,1.173,1.233c-.144,2.877-.347,9.466.83,9.613a3.617,3.617,0,0,1,2.885,2.135A8.955,8.955,0,0,1,241.595,337.958Z" transform="translate(-12.435 -8.037)" fill="#49be55"/>
      <path id="Path_12392" data-name="Path 12392" d="M221.219,306.377s-9.047,10.89-13.4,7.873c-.1-.072-.2-.144-.3-.219-2.929-2.219-3.7-5.794-3.9-7.61-.088-.8-.215-1.568-.355-2.346a16.294,16.294,0,0,1,.8-7.945h0c.144-.4.243-.642.243-.642C207.312,294.649,221.219,306.377,221.219,306.377Z" transform="translate(-12.435 -8.037)" fill="#49be55"/>
      <path id="Path_12393" data-name="Path 12393" d="M216.359,307.383s-2.849,2-6.868,5.275a14.511,14.511,0,0,1-2,1.373c-2.929-2.219-3.7-5.794-3.9-7.61-.088-.8-.215-1.568-.355-2.346a16.294,16.294,0,0,1,.8-7.945h0C209.671,296.521,216.359,307.383,216.359,307.383Z" transform="translate(-12.435 -8.037)" fill="#49be55"/>
      <path id="Path_12394" data-name="Path 12394" d="M216.359,307.383s-2.849,2-6.868,5.275a14.511,14.511,0,0,1-2,1.373c-2.929-2.219-3.7-5.794-3.9-7.61-.088-.8-.215-1.568-.355-2.346a16.294,16.294,0,0,1,.8-7.945h0C209.671,296.521,216.359,307.383,216.359,307.383Z" transform="translate(-12.435 -8.037)" fill="#fff" opacity="0.5"/>
      <path id="Path_12395" data-name="Path 12395" d="M213.258,306.309s-1.52,1.073-3.667,2.817a7.722,7.722,0,0,1-1.053.73,5.875,5.875,0,0,1-2.083-4.058c-.044-.423-.112-.838-.188-1.257a8.723,8.723,0,0,1,.443-4.238h0C209.691,300.511,213.258,306.309,213.258,306.309Z" transform="translate(-12.435 -8.037)" opacity="0.1"/>
      <path id="Path_12396" data-name="Path 12396" d="M227.081,306.377s9.047,10.89,13.4,7.873c.1-.072.2-.144.3-.219,2.929-2.219,3.7-5.794,3.9-7.61.088-.8.215-1.568.351-2.346a16.245,16.245,0,0,0-.8-7.945h0c-.144-.4-.247-.642-.247-.642C240.988,294.649,227.081,306.377,227.081,306.377Z" transform="translate(-12.435 -8.037)" fill="#49be55"/>
      <path id="Path_12397" data-name="Path 12397" d="M231.938,307.383s2.853,2,6.872,5.275a14.512,14.512,0,0,0,1.975,1.373c2.929-2.219,3.7-5.794,3.9-7.61.088-.8.215-1.568.351-2.346a16.245,16.245,0,0,0-.8-7.945h0C238.634,296.521,231.938,307.383,231.938,307.383Z" transform="translate(-12.435 -8.037)" fill="#49be55"/>
      <path id="Path_12398" data-name="Path 12398" d="M231.938,307.383s2.853,2,6.872,5.275a14.512,14.512,0,0,0,1.975,1.373c2.929-2.219,3.7-5.794,3.9-7.61.088-.8.215-1.568.351-2.346a16.245,16.245,0,0,0-.8-7.945h0C238.634,296.521,231.938,307.383,231.938,307.383Z" transform="translate(-12.435 -8.037)" fill="#fff" opacity="0.5"/>
      <path id="Path_12399" data-name="Path 12399" d="M235.062,306.3s1.512,1.069,3.643,2.793a7.308,7.308,0,0,0,1.05.726,5.893,5.893,0,0,0,2.071-4.034c.044-.4.112-.834.188-1.249a8.739,8.739,0,0,0-.419-4.214h0C238.61,300.539,235.062,306.3,235.062,306.3Z" transform="translate(-12.435 -8.037)" opacity="0.1"/>
      <path id="Path_12400" data-name="Path 12400" d="M236.663,323.325a21.67,21.67,0,0,1-3.464,4.414c-3.591,3.192-19.1,1.923-20.1,1.76-.212-.036-.65-.662-1.2-1.68.423-1.64.8-2.885.8-2.885Z" transform="translate(-12.435 -8.037)" opacity="0.1"/>
      <path id="Path_12401" data-name="Path 12401" d="M224.388,305.463c-.631.044-1.261.06-1.9.048-3.236-.056-14.138.088-15.348,4.489-1.425,5.188,4.944,19.079,5.946,19.246s16.5,1.425,20.108-1.76,8.292-13.169,8.041-14.075C241.24,313.412,245.709,303.987,224.388,305.463Z" transform="translate(-12.435 -8.037)" fill="#49be55"/>
      <path id="Path_12402" data-name="Path 12402" d="M224.044,313.875A11.448,11.448,0,0,0,212.32,320.5a9.577,9.577,0,0,0,.706,9.653c1.245,1.752,3.073,3.057,5.615,2C224.292,329.822,224.044,313.875,224.044,313.875Z" transform="translate(-12.435 -8.037)" opacity="0.1"/>
      <path id="Path_12403" data-name="Path 12403" d="M223.793,313.373A11.448,11.448,0,0,0,212.069,320a9.577,9.577,0,0,0,.706,9.653c1.245,1.752,3.073,3.057,5.615,2C224.04,329.319,223.793,313.373,223.793,313.373Z" transform="translate(-12.435 -8.037)" opacity="0.1"/>
      <path id="Path_12404" data-name="Path 12404" d="M223.793,313.624a11.448,11.448,0,0,0-11.724,6.624,9.577,9.577,0,0,0,.706,9.653c1.245,1.752,3.073,3.057,5.615,2C224.04,329.57,223.793,313.624,223.793,313.624Z" transform="translate(-12.435 -8.037)" fill="#49be55"/>
      <path id="Path_12405" data-name="Path 12405" d="M223.793,313.624a11.448,11.448,0,0,0-11.724,6.624,9.577,9.577,0,0,0,.706,9.653c1.245,1.752,3.073,3.057,5.615,2C224.04,329.57,223.793,313.624,223.793,313.624Z" transform="translate(-12.435 -8.037)" fill="#fff" opacity="0.5"/>
      <path id="Path_12406" data-name="Path 12406" d="M215.186,320.492s-1.089,1.006-.67,1.257S215.186,320.492,215.186,320.492Z" transform="translate(-12.435 -8.037)" fill="#3f2b3b"/>
      <path id="Path_12407" data-name="Path 12407" d="M216.359,321.777s-.595,1.313-.172,1.457.674-.942.674-.942Z" transform="translate(-12.435 -8.037)" fill="#3f2b3b"/>
      <path id="Path_12408" data-name="Path 12408" d="M213.729,323.76s-.583,1.548,0,1.548S213.729,323.76,213.729,323.76Z" transform="translate(-12.435 -8.037)" fill="#3f2b3b"/>
      <path id="Path_12409" data-name="Path 12409" d="M213.007,327.906s1.165,2.977,4.2,2.765" transform="translate(-12.435 -8.037)" fill="none" stroke="#3f2b3b" stroke-miterlimit="10" stroke-width="0.399"/>
      <path id="Path_12410" data-name="Path 12410" d="M215.732,328.784a2.1,2.1,0,0,0,2.51.335" transform="translate(-12.435 -8.037)" fill="none" stroke="#3f2b3b" stroke-miterlimit="10" stroke-width="0.399"/>
      <path id="Path_12411" data-name="Path 12411" d="M225.066,313.875A11.448,11.448,0,0,1,236.79,320.5a9.577,9.577,0,0,1-.706,9.653c-1.241,1.752-3.073,3.057-5.615,2C224.8,329.822,225.066,313.875,225.066,313.875Z" transform="translate(-12.435 -8.037)" opacity="0.1"/>
      <path id="Path_12412" data-name="Path 12412" d="M225.3,313.373A11.448,11.448,0,0,1,237.026,320a9.577,9.577,0,0,1-.706,9.653c-1.241,1.752-3.073,3.057-5.615,2C225.066,329.319,225.3,313.373,225.3,313.373Z" transform="translate(-12.435 -8.037)" opacity="0.1"/>
      <path id="Path_12413" data-name="Path 12413" d="M225.3,313.624a11.448,11.448,0,0,1,11.724,6.624,9.577,9.577,0,0,1-.706,9.653c-1.241,1.752-3.073,3.057-5.615,2C225.066,329.57,225.3,313.624,225.3,313.624Z" transform="translate(-12.435 -8.037)" fill="#49be55"/>
      <path id="Path_12414" data-name="Path 12414" d="M225.3,313.624a11.448,11.448,0,0,1,11.724,6.624,9.577,9.577,0,0,1-.706,9.653c-1.241,1.752-3.073,3.057-5.615,2C225.066,329.57,225.3,313.624,225.3,313.624Z" transform="translate(-12.435 -8.037)" fill="#fff" opacity="0.5"/>
      <path id="Path_12415" data-name="Path 12415" d="M233.909,320.492s1.089,1.006.67,1.257S233.909,320.492,233.909,320.492Z" transform="translate(-12.435 -8.037)" fill="#3f2b3b"/>
      <path id="Path_12416" data-name="Path 12416" d="M232.736,321.777s.595,1.313.172,1.457-.674-.942-.674-.942Z" transform="translate(-12.435 -8.037)" fill="#3f2b3b"/>
      <path id="Path_12417" data-name="Path 12417" d="M235.37,323.76s.579,1.548,0,1.548S235.37,323.76,235.37,323.76Z" transform="translate(-12.435 -8.037)" fill="#3f2b3b"/>
      <path id="Path_12418" data-name="Path 12418" d="M236.088,327.906s-1.165,2.977-4.2,2.765" transform="translate(-12.435 -8.037)" fill="none" stroke="#3f2b3b" stroke-miterlimit="10" stroke-width="0.399"/>
      <path id="Path_12419" data-name="Path 12419" d="M233.366,328.784a2.1,2.1,0,0,1-2.514.335" transform="translate(-12.435 -8.037)" fill="none" stroke="#3f2b3b" stroke-miterlimit="10" stroke-width="0.399"/>
      <path id="Path_12420" data-name="Path 12420" d="M220.756,336.366a11.589,11.589,0,0,1,8.292,0Z" transform="translate(-12.435 -8.037)" fill="#3f2b3b"/>
      <path id="Path_12421" data-name="Path 12421" d="M213.549,344.383c-3.719-.555-6.385-1.616-6.612-3.48a10.775,10.775,0,0,1-.084-2.394,5.37,5.37,0,0,1,1.421-.519c.674-.188,1.508-.06,3.268.443s1.632,2.574,2,5.275a2.232,2.232,0,0,1,.012.674Z" transform="translate(-12.435 -8.037)" opacity="0.1"/>
      <path id="Path_12422" data-name="Path 12422" d="M208.022,338.25s-4.837.886-2.219,5.06a1.784,1.784,0,0,0,.894.738c.307.108.6.108.571-.331l2.139,2.45s4.27.5,3.895-2.2-.251-4.789-2-5.275S208.7,338.062,208.022,338.25Z" transform="translate(-12.435 -8.037)" fill="#49be55"/>
      <path id="Path_12423" data-name="Path 12423" d="M209.176,341.059s1.026,2.342,2.45.375" transform="translate(-12.435 -8.037)" fill="none" stroke="#3f2b3b" stroke-miterlimit="10" stroke-width="0.399"/>
      <path id="Path_12424" data-name="Path 12424" d="M206.821,341.989s.531,2.219,2.542.567" transform="translate(-12.435 -8.037)" fill="none" stroke="#3f2b3b" stroke-miterlimit="10" stroke-width="0.399"/>
      <path id="Path_12425" data-name="Path 12425" d="M241.595,337.958h0c-.16,2.211-.587,5.758-.587,5.758s-1.776.215-4.521.463a2.316,2.316,0,0,1,0-.463c.375-2.7.251-4.789,2-5.275A7.674,7.674,0,0,1,241.595,337.958Z" transform="translate(-12.435 -8.037)" opacity="0.1"/>
      <path id="Path_12426" data-name="Path 12426" d="M242.034,338.25s4.841.886,2.223,5.06a1.8,1.8,0,0,1-.894.738c-.307.108-.607.108-.575-.331l-2.135,2.45s-4.274.5-3.895-2.2.251-4.789,2-5.275S241.363,338.062,242.034,338.25Z" transform="translate(-12.435 -8.037)" fill="#49be55"/>
      <path id="Path_12427" data-name="Path 12427" d="M240.885,341.059s-1.03,2.342-2.45.375" transform="translate(-12.435 -8.037)" fill="none" stroke="#3f2b3b" stroke-miterlimit="10" stroke-width="0.399"/>
      <path id="Path_12428" data-name="Path 12428" d="M243.239,341.989s-.535,2.219-2.546.567" transform="translate(-12.435 -8.037)" fill="none" stroke="#3f2b3b" stroke-miterlimit="10" stroke-width="0.399"/>
      <path id="Path_12429" data-name="Path 12429" d="M220.078,344.862c-1.62-.036-3.192-.12-4.649-.263l-1.449-4.876a3.165,3.165,0,0,1-.132-.89,3.1,3.1,0,0,1,6.205-.02C220.07,340.712,220.086,343.118,220.078,344.862Z" transform="translate(-12.435 -8.037)" opacity="0.1"/>
      <path id="Path_12430" data-name="Path 12430" d="M213.729,339.722l1.708,5.754s-2.905-.064-2.111,1.76c0,0,.73.69.982.439,0,0-.379,1.2,1.129,1.2,0,0,1.628.882,2.259.251s1.951-1.572,2.079-1.947c.08-.247.056-5.06.028-8.38a3.1,3.1,0,0,0-3.1-3.073h0a3.1,3.1,0,0,0-2.973,4Z" transform="translate(-12.435 -8.037)" fill="#49be55"/>
      <path id="Path_12431" data-name="Path 12431" d="M216.035,346.965s-1.269,1.2-.6,1.9" transform="translate(-12.435 -8.037)" fill="none" stroke="#3f2b3b" stroke-miterlimit="10" stroke-width="0.399"/>
      <path id="Path_12432" data-name="Path 12432" d="M215.489,346.2a1.723,1.723,0,0,0-1.173,1.473" transform="translate(-12.435 -8.037)" fill="none" stroke="#3f2b3b" stroke-miterlimit="10" stroke-width="0.399"/>
      <path id="Path_12433" data-name="Path 12433" d="M236.124,338.832a3.157,3.157,0,0,1-.128.89l-1.353,4.617c-1.429.116-3.033.227-4.729.323,0-1.724,0-4.018.028-5.85a3.1,3.1,0,0,1,6.2.02Z" transform="translate(-12.435 -8.037)" opacity="0.1"/>
      <path id="Path_12434" data-name="Path 12434" d="M236.24,339.722l-1.708,5.754s2.909-.064,2.115,1.76c0,0-.73.69-.982.439,0,0,.375,1.2-1.133,1.2,0,0-1.628.882-2.259.251s-1.947-1.572-2.075-1.947c-.08-.247-.056-5.06-.028-8.38a3.1,3.1,0,0,1,3.1-3.073h0a3.1,3.1,0,0,1,2.969,4Z" transform="translate(-12.435 -8.037)" fill="#49be55"/>
      <path id="Path_12435" data-name="Path 12435" d="M233.937,346.965s1.269,1.2.6,1.9" transform="translate(-12.435 -8.037)" fill="none" stroke="#3f2b3b" stroke-miterlimit="10" stroke-width="0.399"/>
      <path id="Path_12436" data-name="Path 12436" d="M234.5,346.2a1.723,1.723,0,0,1,1.173,1.473" transform="translate(-12.435 -8.037)" fill="none" stroke="#3f2b3b" stroke-miterlimit="10" stroke-width="0.399"/>
      <path id="Path_12437" data-name="Path 12437" d="M223.8,312.367s-5.91-.188-6.1,4.39,9.234,2.638,9.234,2.638,3.959-.531,3.268-3.312S228.071,312.618,223.8,312.367Z" transform="translate(-12.435 -8.037)" opacity="0.1"/>
      <path id="Path_12438" data-name="Path 12438" d="M223.8,311.864s-5.91-.188-6.1,4.39,9.234,2.638,9.234,2.638,3.959-.531,3.268-3.312S228.071,312.116,223.8,311.864Z" transform="translate(-12.435 -8.037)" opacity="0.1"/>
      <path id="Path_12439" data-name="Path 12439" d="M223.8,312.116s-5.91-.188-6.1,4.39,9.234,2.638,9.234,2.638,3.959-.531,3.268-3.312S228.071,312.367,223.8,312.116Z" transform="translate(-12.435 -8.037)" fill="#3f2b3b"/>
      <path id="Path_12440" data-name="Path 12440" d="M210.612,335.173s2,.71,2.394,2.071" transform="translate(-12.435 -8.037)" opacity="0.1"/>
      <path id="Path_12441" data-name="Path 12441" d="M238.746,334.167s-1.417.595-1.317,3.077" transform="translate(-12.435 -8.037)" opacity="0.1"/>
      <ellipse id="Ellipse_420" data-name="Ellipse 420" cx="0.925" cy="1.534" rx="0.925" ry="1.534" transform="translate(197.451 336.641) rotate(-29.887)" fill="#49be55"/>
      <ellipse id="Ellipse_421" data-name="Ellipse 421" cx="1.528" cy="0.922" rx="1.528" ry="0.922" transform="matrix(0.5, -0.866, 0.866, 0.5, 225.538, 337.001)" fill="#49be55"/>
      <ellipse id="Ellipse_422" data-name="Ellipse 422" cx="0.925" cy="1.534" rx="0.925" ry="1.534" transform="translate(197.451 336.641) rotate(-29.887)" fill="#fff" opacity="0.5"/>
      <ellipse id="Ellipse_423" data-name="Ellipse 423" cx="1.528" cy="0.922" rx="1.528" ry="0.922" transform="matrix(0.5, -0.866, 0.866, 0.5, 225.538, 337.001)" fill="#fff" opacity="0.5"/>
      <ellipse id="Ellipse_424" data-name="Ellipse 424" cx="10.747" cy="1.816" rx="10.747" ry="1.816" transform="translate(66.111 283.93)" fill="#49be55" opacity="0.1"/>
      <ellipse id="Ellipse_425" data-name="Ellipse 425" cx="10.747" cy="1.816" rx="10.747" ry="1.816" transform="translate(23.776 309.681)" fill="#49be55" opacity="0.1"/>
      <ellipse id="Ellipse_426" data-name="Ellipse 426" cx="16.046" cy="2.714" rx="16.046" ry="2.714" transform="translate(7.287 285.746)" fill="#49be55"/>
      <path id="Path_12442" data-name="Path 12442" d="M29.131,292.059a4.641,4.641,0,0,1-1.532-2.307,2.057,2.057,0,0,1,1.069-2.35c.982-.375,2.031.3,2.825.99s1.708,1.473,2.749,1.329A4.186,4.186,0,0,1,32.95,285.8a1.6,1.6,0,0,1,.359-.8c.543-.583,1.532-.331,2.187.128,2.071,1.461,2.654,4.278,2.662,6.816a12.57,12.57,0,0,0,.04-2.793,2.874,2.874,0,0,1,1.053-2.482,3.192,3.192,0,0,1,1.6-.4,3.338,3.338,0,0,1,2.61.742,2.567,2.567,0,0,1-.1,3.192,10.434,10.434,0,0,1-2.7,2.163,5.953,5.953,0,0,0-1.931,1.84,1.882,1.882,0,0,0-.144.327H32.75a16.137,16.137,0,0,1-3.619-2.478Z" transform="translate(-12.435 -8.037)" fill="#49be55"/>
      <ellipse id="Ellipse_427" data-name="Ellipse 427" cx="10.747" cy="1.816" rx="10.747" ry="1.816" transform="translate(400.211 299.118)" fill="#49be55" opacity="0.1"/>
      <path id="Path_12443" data-name="Path 12443" d="M416.177,300.531s6.129-.188,7.981-1.5,9.426-2.885,9.885-.774,9.214,10.491,2.291,10.547-16.078-1.077-17.922-2.2S416.177,300.531,416.177,300.531Z" transform="translate(-12.435 -8.037)" fill="#a8a8a8"/>
      <path id="Path_12444" data-name="Path 12444" d="M436.453,308.069c-6.92.056-16.078-1.077-17.922-2.2-1.4-.854-1.963-3.923-2.151-5.339h-.2s.4,4.944,2.231,6.066,11,2.259,17.921,2.2c2,0,2.69-.726,2.65-1.78C438.7,307.67,437.941,308.069,436.453,308.069Z" transform="translate(-12.435 -8.037)" opacity="0.2"/>
    </g>
  </g>
</svg>
