<svg id="undraw_web_browsing_p77h" xmlns="http://www.w3.org/2000/svg" width="555.675" height="384" viewBox="0 0 555.675 384">
  <path id="Path_12163" data-name="Path 12163" d="M177.421,386.718H41.854s-2.748-40.3,13.511-40.762,14.427,17.862,34.808-7.328,45.112-23.816,48.318-8.931-6.183,26.793,10.992,23.129S191.39,358.78,177.421,386.718Z" transform="translate(-26.958 -36.595)" fill="#49be55"/>
  <path id="Path_12164" data-name="Path 12164" d="M107.349,386.727l-.458-.018c1.067-26.535,6.624-43.585,11.1-53.215,4.858-10.456,9.539-14.689,9.586-14.731l.3.342c-.046.041-4.673,4.232-9.492,14.617C113.939,343.312,108.412,360.291,107.349,386.727Z" transform="translate(-26.958 -36.595)" fill="#f2f2f2"/>
  <path id="Path_12165" data-name="Path 12165" d="M156.414,386.782l-.44-.128A71.046,71.046,0,0,1,173.861,356.9l.308.339A70.567,70.567,0,0,0,156.414,386.782Z" transform="translate(-26.958 -36.595)" fill="#f2f2f2"/>
  <path id="Path_12166" data-name="Path 12166" d="M63.206,386.749l-.454-.063a49.881,49.881,0,0,0-4.487-29.156A40.142,40.142,0,0,0,51.185,347.2l.317-.331a40.648,40.648,0,0,1,7.174,10.46A50.335,50.335,0,0,1,63.206,386.749Z" transform="translate(-26.958 -36.595)" fill="#f2f2f2"/>
  <path id="Path_12167" data-name="Path 12167" d="M195.82,387.33H27.232l-.039-.571c-.1-1.421-2.248-34.931,8.61-46.888a11.892,11.892,0,0,1,8.69-4.17c7.078-.2,11.525,2.45,15.113,4.578,6.762,4.011,11.229,6.661,27.47-13.412,17.594-21.746,36.578-26.425,47.491-23.823,7.051,1.681,11.911,6.433,13.333,13.036,1.347,6.253.918,12.128.573,16.849-.369,5.051-.66,9.041,1.414,10.849,1.732,1.509,5.188,1.646,10.878.432,11.572-2.469,27.719-.356,35.823,10.115,4.36,5.634,7.8,15.874-.6,32.667ZM28.383,386.105H195.061c6.257-12.694,6.452-23.418.56-31.03-7.435-9.606-23.033-12.134-34.6-9.667-6.181,1.319-9.864,1.1-11.938-.706-2.536-2.21-2.225-6.469-1.832-11.862.339-4.643.761-10.421-.549-16.5-1.319-6.124-5.846-10.535-12.42-12.1-10.565-2.521-29.018,2.1-46.254,23.4-16.907,20.9-22,17.876-29.047,13.7-3.632-2.154-7.755-4.6-14.453-4.407a10.711,10.711,0,0,0-7.818,3.769C26.952,351.441,28.144,381.575,28.383,386.105Z" transform="translate(-26.958 -36.595)" fill="#cfcce0"/>
  <path id="Path_12168" data-name="Path 12168" d="M558.924,386.718H423.357s-2.748-40.3,13.511-40.762,14.427,17.862,34.808-7.328,45.112-23.816,48.318-8.931-6.183,26.793,10.992,23.129S572.893,358.78,558.924,386.718Z" transform="translate(-26.958 -36.595)" fill="#49be55"/>
  <path id="Path_12169" data-name="Path 12169" d="M488.851,386.727l-.458-.018c1.067-26.535,6.624-43.585,11.1-53.215,4.858-10.456,9.539-14.689,9.586-14.731l.3.342c-.046.041-4.673,4.232-9.492,14.617C495.441,343.312,489.914,360.291,488.851,386.727Z" transform="translate(-26.958 -36.595)" fill="#f2f2f2"/>
  <path id="Path_12170" data-name="Path 12170" d="M537.918,386.782l-.44-.128A71.045,71.045,0,0,1,555.365,356.9l.308.339A70.48,70.48,0,0,0,537.918,386.782Z" transform="translate(-26.958 -36.595)" fill="#f2f2f2"/>
  <path id="Path_12171" data-name="Path 12171" d="M444.709,386.749l-.454-.063a49.881,49.881,0,0,0-4.487-29.156,40.143,40.143,0,0,0-7.081-10.332l.317-.331a40.647,40.647,0,0,1,7.174,10.46A50.336,50.336,0,0,1,444.709,386.749Z" transform="translate(-26.958 -36.595)" fill="#f2f2f2"/>
  <path id="Path_12172" data-name="Path 12172" d="M577.323,387.33H408.735l-.039-.571c-.1-1.421-2.247-34.931,8.61-46.888A11.892,11.892,0,0,1,426,335.7c7.078-.2,11.525,2.45,15.113,4.578,6.762,4.011,11.229,6.661,27.47-13.412,17.594-21.746,36.578-26.425,47.491-23.823,7.051,1.681,11.911,6.433,13.333,13.036,1.347,6.253.918,12.128.573,16.849-.369,5.051-.66,9.041,1.414,10.849,1.732,1.509,5.188,1.646,10.878.432,11.572-2.469,27.719-.356,35.823,10.115,4.36,5.634,7.8,15.874-.6,32.667Zm-167.437-1.225H576.565c6.257-12.694,6.452-23.418.56-31.03-7.435-9.606-23.033-12.134-34.6-9.667-6.181,1.319-9.864,1.1-11.938-.706-2.536-2.21-2.225-6.469-1.832-11.862.339-4.643.761-10.421-.549-16.5-1.319-6.124-5.846-10.535-12.42-12.1-10.565-2.521-29.018,2.1-46.254,23.4-16.907,20.9-22,17.876-29.047,13.7-3.632-2.154-7.755-4.6-14.453-4.407a10.711,10.711,0,0,0-7.818,3.769c-9.76,10.746-8.569,40.88-8.33,45.41Z" transform="translate(-26.958 -36.595)" fill="#cfcce0"/>
  <path id="Path_12173" data-name="Path 12173" d="M288.229,272.266c-11.882,0-22.3,12.41-28.046,30.942-.406,1.3-.787,2.636-1.143,3.993a115.643,115.643,0,0,0-3.576,29.072c0,35.3,14.7,64.007,32.765,64.007s32.766-28.712,32.766-64.007S306.3,272.266,288.229,272.266Zm0,127c-17.505,0-31.75-28.26-31.75-62.991a114.987,114.987,0,0,1,3.622-29.189q.5-1.913,1.077-3.749c5.593-18.018,15.626-30.053,27.051-30.053,17.505,0,31.75,28.26,31.75,62.991S305.735,399.264,288.229,399.264Z" transform="translate(-26.958 -36.595)" fill="#3f3d56"/>
  <path id="Path_12174" data-name="Path 12174" d="M296.1,373.28c-6.267,0-11.176-16.256-11.176-37.008s4.909-37.008,11.176-37.008,11.176,16.256,11.176,37.008S302.37,373.28,296.1,373.28Zm0-73c-5.507,0-10.16,16.482-10.16,35.992s4.653,35.992,10.16,35.992,10.16-16.482,10.16-35.992S301.61,300.281,296.1,300.281Z" transform="translate(-26.958 -36.595)" fill="#3f3d56"/>
  <ellipse id="Ellipse_397" data-name="Ellipse 397" cx="4.318" cy="8.5" rx="4.318" ry="8.5" transform="translate(266.097 291.178)" fill="#cfcce0"/>
  <path id="Path_12175" data-name="Path 12175" d="M261.017,184.364l69.595-.254v27.418l-69.595,2.808Z" fill="#3f3d56"/>
  <path id="Path_12176" data-name="Path 12176" d="M201.581,277.354l-1.014-.055,3.074-55.852h62.964v1.016h-62Z" fill="#3f3d56"/>
  <path id="Path_12177" data-name="Path 12177" d="M201.477,367.738l-35.559-6.1.211-.994,35.559,6.1Z" fill="#3f3d56"/>
  <rect id="Rectangle_666" data-name="Rectangle 666" width="1.016" height="43.326" transform="translate(208.653 380.444) rotate(-85.292)" fill="#3f3d56"/>
  <path id="Path_12178" data-name="Path 12178" d="M335.853,314q-.571,1.836-1.077,3.749l-1.062.117-33.04,3.673-75.691-7.62,78.739-4.064,31.135,4.018Z" transform="translate(-26.958 -36.595)" fill="#3f3d56"/>
  <path id="Path_12179" data-name="Path 12179" d="M318.546,132.217s-11-3.929-18.075,11.788S282.4,177.012,282.4,177.012l6.287,1.572s1.572-11,5.5-12.574l-1.572,14.146s47.152,16.5,68.371-1.572l-.786-5.5s3.144.786,3.144,5.5l2.358-2.358s-2.358-4.715-9.43-11c-4.642-4.126-6.238-11.977-6.786-16.886a20.434,20.434,0,0,0-4.7-11.127C340.077,131.764,331.513,125.973,318.546,132.217Z" transform="translate(-26.958 -36.595)" fill="#2f2e41"/>
  <path id="Path_12180" data-name="Path 12180" d="M257.75,147.046l-4.572-47.751s-9.144-25.908,4.572-23.876,5.588,21.844,5.588,21.844l7.62,49.783Z" transform="translate(-26.958 -36.595)" fill="#ffb9b9"/>
  <path id="Path_12181" data-name="Path 12181" d="M195.232,327.363l-5.08,17.272,9.652,8.128,7.112-21.844Z" fill="#ffb9b9"/>
  <path id="Path_12182" data-name="Path 12182" d="M261.306,376.659l-5.08,18.288,17.78,11.176s.508-20.828,3.048-24.892Z" transform="translate(-26.958 -36.595)" fill="#ffb9b9"/>
  <path id="Path_12183" data-name="Path 12183" d="M283.149,279.124l-2.54,5.08s-28.956-13.208-36.575,5.08-24.384,76.2-24.384,76.2l14.732,6.1,26.924-61.467,61.467-1.524,2.54-34.035Z" transform="translate(-26.958 -36.595)" fill="#2f2e41"/>
  <path id="Path_12184" data-name="Path 12184" d="M304.485,287.76s-41.655-8.636-44.7,12.192,1.524,60.451,2.032,61.467-2.032,19.812-2.032,19.812l18.288,2.54s11.684-55.371,6.6-69.595l34.371-2.126a23.607,23.607,0,0,0,22.239-21.974c.261-4.543-.876-8.666-4.795-10.952-12.192-7.112-34.543-7.112-34.543-7.112Z" transform="translate(-26.958 -36.595)" fill="#2f2e41"/>
  <path id="Path_12185" data-name="Path 12185" d="M223.714,380.722s-3.556-7.62-8.636-4.064-16.764,11.176-16.764,11.176-18.074,6.364-2.032,10.668c14.269,3.828,17.78,3.048,17.78,3.048s11.684,2.032,13.208,1.016,2.54-17.272,2.54-17.272S222.7,383.77,223.714,380.722Z" transform="translate(-26.958 -36.595)" fill="#2f2e41"/>
  <path id="Path_12186" data-name="Path 12186" d="M263.338,396.47s-5.08-7.112-8.636-4.064-16.256,11.684-16.256,11.684-21.336,6.1-2.54,11.684,39.623,4.572,40.131,2.54-1.016-16.764-1.016-16.764S264.354,401.042,263.338,396.47Z" transform="translate(-26.958 -36.595)" fill="#2f2e41"/>
  <circle id="Ellipse_398" data-name="Ellipse 398" cx="18.288" cy="18.288" r="18.288" transform="translate(279.051 109.435)" fill="#ffb9b9"/>
  <path id="Path_12187" data-name="Path 12187" d="M311.089,172.446s-1.016,20.828-6.1,22.352-19.3,18.288-12.7,23.368,44.7,1.524,44.7,1.524l-3.556-26.416s-8.128-5.588-1.524-15.24Z" transform="translate(-26.958 -36.595)" fill="#ffb9b9"/>
  <path id="Path_12188" data-name="Path 12188" d="M310.581,206.989l-3.556-16.764-11.684-4.572-9.652,22.352s-10.922,72.389-7.874,73.4a13.737,13.737,0,0,0,5.334.762s16.256-5.08,21.336-2.54,31.5,4.572,31.5,4.572,18.288-9.652,17.272-18.288,0-56.9,0-56.9l-2.286-21.59-20.044,3.135Z" transform="translate(-26.958 -36.595)" fill="#cfcce0"/>
  <path id="Path_12189" data-name="Path 12189" d="M268.891,151.6l-.508-3.048-14.224-17.272-8.128-28.956-19.812,7.62,14.224,35.051,20.32,25.908Z" fill="#cfcce0"/>
  <path id="Path_12190" data-name="Path 12190" d="M300.272,166.5s6.287-8.645,11.788-10.216,6.287-9.431,6.287-9.431,14.146,15.717,22.79,16.5.786-18.861.786-18.861l-15.717-3.929-14.932,1.572L299.486,150Z" transform="translate(-26.958 -36.595)" fill="#2f2e41"/>
  <path id="Path_12191" data-name="Path 12191" d="M332.137,247.372l-.492-20.845H284.372l-1.511,55.893-1.016-.028,1.538-56.881h49.245l.016.491.508,21.336Z" fill="#3f3d56"/>
  <path id="Path_12192" data-name="Path 12192" d="M331.12,218.907H330.1V180.132l16.4,4.76-.284.976-15.1-4.383Z" fill="#3f3d56"/>
  <path id="Path_12193" data-name="Path 12193" d="M362.9,282.934c-11.882,0-22.3,12.41-28.046,30.942-.406,1.3-.787,2.636-1.143,3.993a115.643,115.643,0,0,0-3.576,29.072c0,35.3,14.7,64.007,32.766,64.007s32.766-28.712,32.766-64.007S380.973,282.934,362.9,282.934Zm0,127c-17.505,0-31.75-28.26-31.75-62.991a114.987,114.987,0,0,1,3.622-29.189q.5-1.913,1.077-3.749c5.593-18.018,15.626-30.053,27.051-30.053,17.505,0,31.75,28.26,31.75,62.991S380.41,409.932,362.9,409.932Z" transform="translate(-26.958 -36.595)" fill="#3f3d56"/>
  <path id="Path_12194" data-name="Path 12194" d="M370.778,383.948c-6.267,0-11.176-16.256-11.176-37.008s4.909-37.008,11.176-37.008,11.176,16.256,11.176,37.008S377.045,383.948,370.778,383.948Zm0-73c-5.507,0-10.16,16.482-10.16,35.992s4.653,35.992,10.16,35.992,10.16-16.482,10.16-35.992S376.285,310.949,370.778,310.949Z" transform="translate(-26.958 -36.595)" fill="#3f3d56"/>
  <ellipse id="Ellipse_399" data-name="Ellipse 399" cx="4.318" cy="8.5" rx="4.318" ry="8.5" transform="translate(340.772 301.846)" fill="#cfcce0"/>
  <path id="Path_12195" data-name="Path 12195" d="M338.232,179.284l10.668,4.064-2.032,5.588-8.636-3.556Z" fill="#3f3d56"/>
  <path id="Path_12196" data-name="Path 12196" d="M296.069,222.971V231.1h30.267v-7.588Z" fill="#3f3d56"/>
  <path id="Path_12197" data-name="Path 12197" d="M218.346,218.907v8.128h30.267v-7.588Z" fill="#3f3d56"/>
  <path id="Path_12198" data-name="Path 12198" d="M348.758,83.49H141.688v-46.9h207.07ZM142.905,82.272H347.539V37.813H142.905Z" transform="translate(-26.958 -36.595)" fill="#3f3d56"/>
  <rect id="Rectangle_667" data-name="Rectangle 667" width="23.143" height="23.143" transform="translate(131.173 15.835)" fill="#49be55"/>
  <path id="Path_12199" data-name="Path 12199" d="M178.229,72.528H153.868V48.166h24.361ZM155.086,71.31h21.925V49.385H155.086Z" transform="translate(-26.958 -36.595)" fill="#3f3d56"/>
  <rect id="Rectangle_668" data-name="Rectangle 668" width="108.407" height="1.218" transform="translate(189.64 16.444)" fill="#3f3d56"/>
  <rect id="Rectangle_669" data-name="Rectangle 669" width="108.407" height="1.218" transform="translate(189.64 24.97)" fill="#3f3d56"/>
  <rect id="Rectangle_670" data-name="Rectangle 670" width="108.407" height="1.218" transform="translate(189.64 33.497)" fill="#3f3d56"/>
  <path id="Path_12200" data-name="Path 12200" d="M300.675,235.781h-.247v-6.764a3.915,3.915,0,0,0-3.915-3.915H282.182a3.915,3.915,0,0,0-3.915,3.915v37.11a3.915,3.915,0,0,0,3.915,3.915h14.331a3.915,3.915,0,0,0,3.915-3.915V240.6h.247Z" transform="translate(-26.958 -36.595)" fill="#3f3d56"/>
  <circle id="Ellipse_400" data-name="Ellipse 400" cx="2.398" cy="2.398" r="2.398" transform="translate(260.115 197.636)" fill="#d0cde1"/>
  <path id="Path_12201" data-name="Path 12201" d="M350.244,260.055l-47.961-.9s-26.781,6.13-23.2-7.264,22.338-3.061,22.338-3.061l50.327-1.894Z" transform="translate(-26.958 -36.595)" fill="#ffb9b9"/>
  <path id="Path_12202" data-name="Path 12202" d="M345.378,190.987l4.572-3.556s7.62-4.064,9.144,10.16,12.7,61.467,1.524,61.975-39.623,1.016-39.623,1.016l3.048-15.748,23.368-1.524Z" transform="translate(-26.958 -36.595)" fill="#cfcce0"/>
  <path id="Path_12203" data-name="Path 12203" d="M319.944,176.236l-1.524,28.956-22.352,4.572,20.32-8.128Z" opacity="0.15"/>
</svg>
