<svg id="undraw_collab_8oes" xmlns="http://www.w3.org/2000/svg" width="210" height="134.689" viewBox="0 0 210 134.689">
  <path id="Path_12505" data-name="Path 12505" d="M78.592,50.888C43.471,78.1,61.166,89.811,39.67,89.811a38.923,38.923,0,1,1,0-77.845C61.166,11.966,113.714,23.673,78.592,50.888Z" transform="translate(-0.747 -11.966)" fill="#f2f2f2"/>
  <path id="Path_12506" data-name="Path 12506" d="M86.847,91.072c0,4.523-16.668,14.8-38.642,14.8S7.184,95.6,7.184,91.072c0-1.131,1.866.274,3.877-.7,5.857-2.854,19.821-.75,35.671-.868q.733-.007,1.472-.007C70.179,89.493,86.847,86.549,86.847,91.072Z" transform="translate(-0.747 -11.966)" fill="#3f3d56"/>
  <path id="Path_12507" data-name="Path 12507" d="M86.847,91.072c0,4.523-16.668,14.8-38.642,14.8S7.184,95.6,7.184,91.072c0-1.131,1.866.274,3.877-.7,5.857-2.854,19.821-.75,35.671-.868q.733-.007,1.472-.007C70.179,89.493,86.847,86.549,86.847,91.072Z" transform="translate(-0.747 -11.966)" opacity="0.1"/>
  <path id="Path_12508" data-name="Path 12508" d="M86.759,90.988c0,4.523-17.813,8.192-39.787,8.192S7.184,95.511,7.184,90.988c0-1.131,1.112-2.207,3.123-3.186,5.857-2.854,19.342-4.882,35.191-5q.733-.007,1.472-.007C68.946,82.8,86.759,86.464,86.759,90.988Z" transform="translate(-0.747 -11.966)" fill="#3f3d56"/>
  <path id="Path_12509" data-name="Path 12509" d="M45.972,82.97a21.413,21.413,0,0,1-33.36,3.98C18.164,84.678,30.947,83.064,45.972,82.97Z" transform="translate(-0.747 -11.966)" opacity="0.1"/>
  <ellipse id="Ellipse_433" data-name="Ellipse 433" cx="19.739" cy="21.149" rx="19.739" ry="21.149" transform="translate(7.671 35.398)" fill="#3f3d56"/>
  <path id="Path_12510" data-name="Path 12510" d="M49.632,35.744V40.7l-2.546,2.948s-1.072-.4-1.072-3.082l-.4-3.886Z" transform="translate(-0.747 -11.966)" fill="#ffb9b9"/>
  <path id="Path_12511" data-name="Path 12511" d="M47.086,40.7s4.154-2.814,4.288-3.752,6.03-5.226,5.092-2.546A7.469,7.469,0,0,1,52.58,38.29s-2.278,6.164-4.288,6.03S46.283,41.64,47.086,40.7Z" transform="translate(-0.747 -11.966)" fill="#ffb9b9"/>
  <path id="Path_12512" data-name="Path 12512" d="M43.928,58.885l-.4,2.412,2.144-.536V58.885Z" fill="#ffb9b9"/>
  <path id="Path_12513" data-name="Path 12513" d="M45.076,72.191s2.478-1.468,2.579-.8,1.173,3.213,1.709,3.481,1.206,3.216,0,3.082c-.934-.1-4.36-1.9-5.857-2.7a.818.818,0,0,1-.352-1.069,1.688,1.688,0,0,0,.179-.52C43.334,73.4,45.076,72.191,45.076,72.191Z" transform="translate(-0.747 -11.966)" fill="#2f2e41"/>
  <path id="Path_12514" data-name="Path 12514" d="M43.87,44.989s9.782,4.556,8.844,8.04-4.422,18.224-4.422,18.224-3.886.938-4.154,0,2.546-15.544,2.278-16.08-5.226-4.02-5.226-4.02L31.007,46.865l4.288-4.02Z" transform="translate(-0.747 -11.966)" fill="#2f2e41"/>
  <path id="Path_12515" data-name="Path 12515" d="M50.493,59.689,51.7,62.771l-2.144.938L48.215,61.3Z" fill="#ffb9b9"/>
  <path id="Path_12516" data-name="Path 12516" d="M44,23.014s-1.206,1.608-.268,2.412S44,29.178,44,29.178L42.8,32.528l-4.824-.938V26.1l.268-2.68s2.412-2.278,2.68-4.02S44,23.014,44,23.014Z" transform="translate(-0.747 -11.966)" fill="#ffb9b9"/>
  <path id="Path_12517" data-name="Path 12517" d="M44,23.014s-1.206,1.608-.268,2.412S44,29.178,44,29.178L42.8,32.528l-4.824-.938V26.1l.268-2.68s2.412-2.278,2.68-4.02S44,23.014,44,23.014Z" transform="translate(-0.747 -11.966)" opacity="0.1"/>
  <path id="Path_12518" data-name="Path 12518" d="M35.965,43.918s6.3,6.968,6.3,7.236,3.35,5.762,3.35,5.762l6.566,14.606S49.632,75,48.56,74.737s-8.71-15.812-8.71-15.812a7.44,7.44,0,0,0-4.958-4.288c-3.618-.8-6.432-3.618-5.092-6.834S35.965,43.918,35.965,43.918Z" transform="translate(-0.747 -11.966)" fill="#2f2e41"/>
  <circle id="Ellipse_434" data-name="Ellipse 434" cx="4.288" cy="4.288" r="4.288" transform="translate(38.97 3.41)" fill="#ffb9b9"/>
  <path id="Path_12519" data-name="Path 12519" d="M43.87,26.632s-.536,3.082-1.072,3.35-.938,1.206-2.144-.134a16.9,16.9,0,0,1-2.278-4.02L34.223,30.92l-.4,14.07s4.69-1.206,6.164,0,4.69,1.072,4.69,1.072L44,43.381l.536-4.556-.134-4.154-.134-2.948Z" transform="translate(-0.747 -11.966)" fill="#f2f2f2"/>
  <path id="Path_12520" data-name="Path 12520" d="M43.4,24.376s1.812.915,1.946,1.451,2.546,1.608,2.546,1.608.938.938.938,1.474-3.216,6.7-3.216,6.7-.67,4.154-.4,4.958-.536,3.886-.536,3.886l1.608,1.876H44.808s-1.608-.8-1.608-1.206.268-3.216.4-4.422a40.843,40.843,0,0,0-.134-6.968,51.4,51.4,0,0,1-.134-6.3C43.335,26.5,43.4,24.376,43.4,24.376Z" transform="translate(-0.747 -11.966)" fill="#3f3d56"/>
  <path id="Path_12521" data-name="Path 12521" d="M39.248,22.342s-.6.136-2.345.672-4.422,1.34-5.36,2.412A16.611,16.611,0,0,0,29.8,27.972l.536,9.648A7.534,7.534,0,0,0,29.4,40.7c.134,1.072,1.206,1.206.4,3.484s-2.412,4.288-.938,4.556,5.36-.67,7.1-.134,3.752-2.01,3.752-2.01-2.68.268-2.278-.8,4.824-13.132,3.886-15.812S39.248,22.342,39.248,22.342Z" transform="translate(-0.747 -11.966)" fill="#3f3d56"/>
  <path id="Path_12522" data-name="Path 12522" d="M48.159,28.24l.67.536s1.876,6.7,1.34,7.37-4.824,2.144-5.092,1.206S48.159,28.24,48.159,28.24Z" transform="translate(-0.747 -11.966)" fill="#3f3d56"/>
  <path id="Path_12523" data-name="Path 12523" d="M28.327,32.93s-2.01,5.762-2.01,7.37.268,10.988.268,10.988.134,4.02,2.948,2.412,0-2.68,0-2.68.134-10.586,1.206-12.06a10.41,10.41,0,0,0,1.474-3.618Z" transform="translate(-0.747 -11.966)" fill="#ffb9b9"/>
  <path id="Path_12524" data-name="Path 12524" d="M50.3,74.6s2.01-1.072,2.412-.268,2.546,5.226,2.278,5.762-1.742,2.68-3.484,2.144-1.876-3.35-1.876-3.35L49.5,75.675Z" transform="translate(-0.747 -11.966)" fill="#2f2e41"/>
  <path id="Path_12525" data-name="Path 12525" d="M44.844,18.628a1.887,1.887,0,0,0-.831.491,4.135,4.135,0,0,0-.252.678.958.958,0,0,1-1.233.451,1.063,1.063,0,0,0-.434-.658.631.631,0,0,0-.75.041c-.276.263-.178.722-.307,1.082a2.283,2.283,0,0,1-.491.673,6.927,6.927,0,0,1-.88,1.011,1.041,1.041,0,0,1-1.24.116,1.059,1.059,0,0,1-.285-1.035c.072-.37.249-.71.35-1.073.326-1.179-.194-2.439-.033-3.651a4.4,4.4,0,0,1,3-3.315,3.511,3.511,0,0,1,1.938-.205,14.5,14.5,0,0,1,1.9.825,14.423,14.423,0,0,0,2.164.462,2.962,2.962,0,0,1,1.886,1.059,13.642,13.642,0,0,1,.635,1.406,2.522,2.522,0,0,0,1.278,1.145l-.764-.044a2.252,2.252,0,0,0,.609.888,1.634,1.634,0,0,1-1.058-.14,1.15,1.15,0,0,0,.394.824,3.325,3.325,0,0,1-1.7-.36c-.243-.154-.442-.369-.671-.544a4.963,4.963,0,0,0-1.684-.719c-.31-.089-.683-.213-.963-.013C45.183,18.188,45.146,18.486,44.844,18.628Z" transform="translate(-0.747 -11.966)" fill="#2f2e41"/>
  <path id="Path_12526" data-name="Path 12526" d="M31.811,26.364,29.8,27.972l-2.68,6.164s3.752,2.948,4.69,2.546,2.546-7.5,2.546-7.5Z" transform="translate(-0.747 -11.966)" fill="#3f3d56"/>
  <path id="Path_12527" data-name="Path 12527" d="M61.957,33.719,53.5,38.364a.4.4,0,0,1-.592-.175l-2.072-4.331a.541.541,0,0,1,.277-.649l7.022-3.619a.41.41,0,0,1,.537.1L62.179,33a.521.521,0,0,1-.222.721Z" transform="translate(-0.747 -11.966)" fill="#2f2e41"/>
  <path id="Path_12528" data-name="Path 12528" d="M60.646,21.113l-7.929,4.532-2.11-3.8,6.8-3.7Z" fill="#49be55"/>
  <ellipse id="Ellipse_435" data-name="Ellipse 435" cx="0.117" cy="0.1" rx="0.117" ry="0.1" transform="matrix(0.641, -0.768, 0.768, 0.641, 53.766, 19.766)" fill="#f2f2f2"/>
  <ellipse id="Ellipse_436" data-name="Ellipse 436" cx="0.078" cy="0.066" rx="0.078" ry="0.066" transform="matrix(0.641, -0.768, 0.768, 0.641, 56.76, 23.647)" fill="#f2f2f2"/>
  <path id="Path_12529" data-name="Path 12529" d="M17.85,89.457c0,3.07-1.825,4.141-4.076,4.141l-.156,0c-.1,0-.208-.007-.31-.014-2.032-.144-3.61-1.271-3.61-4.125,0-2.954,3.774-6.681,4.059-6.958h0l.017-.016S17.85,86.388,17.85,89.457Z" transform="translate(-0.747 -11.966)" fill="#49be55"/>
  <path id="Path_12530" data-name="Path 12530" d="M13.625,93.129l1.491-2.083-1.494,2.312,0,.239c-.1,0-.208-.007-.31-.014l.161-3.071v-.024l0,0,.015-.29-1.5-2.317,1.5,2.1,0,.062.121-2.32-1.283-2.394,1.3,1.987.126-4.811v0l-.021,3.793,1.277-1.5-1.282,1.831L13.7,88.7,14.89,86.7l-1.2,2.3-.019,1.155,1.73-2.775L13.667,90.56Z" transform="translate(-0.747 -11.966)" fill="#3f3d56"/>
  <path id="Path_12531" data-name="Path 12531" d="M74.777,83.113c0,3.07-1.825,4.141-4.076,4.141l-.156,0c-.1,0-.208-.007-.31-.014-2.032-.144-3.61-1.271-3.61-4.125,0-2.954,3.774-6.681,4.059-6.958h0l.017-.016S74.777,80.043,74.777,83.113Z" transform="translate(-0.747 -11.966)" fill="#49be55"/>
  <path id="Path_12532" data-name="Path 12532" d="M70.553,86.784,72.043,84.7l-1.494,2.312,0,.239c-.1,0-.208-.007-.31-.014l.161-3.071v-.024l0,0,.015-.29-1.5-2.317,1.5,2.1,0,.062.121-2.32-1.283-2.394,1.3,1.987.126-4.811v0l-.021,3.793,1.277-1.5-1.282,1.831-.034,2.077,1.193-1.994-1.2,2.3L70.6,83.813l1.73-2.775-1.737,3.178Z" transform="translate(-0.747 -11.966)" fill="#3f3d56"/>
  <rect id="Rectangle_690" data-name="Rectangle 690" width="67.758" height="37.308" transform="translate(90.726 46.083)" fill="#f2f2f2"/>
  <circle id="Ellipse_437" data-name="Ellipse 437" cx="5.584" cy="5.584" r="5.584" transform="translate(96.497 53.98)" fill="#49be55" opacity="0.3"/>
  <circle id="Ellipse_438" data-name="Ellipse 438" cx="5.584" cy="5.584" r="5.584" transform="translate(119.021 53.98)" fill="#49be55" opacity="0.3"/>
  <circle id="Ellipse_439" data-name="Ellipse 439" cx="5.584" cy="5.584" r="5.584" transform="translate(141.545 53.98)" fill="#49be55" opacity="0.3"/>
  <rect id="Rectangle_691" data-name="Rectangle 691" width="15.264" height="1.489" transform="translate(94.356 69.337)" fill="#49be55" opacity="0.3"/>
  <rect id="Rectangle_692" data-name="Rectangle 692" width="15.264" height="1.489" transform="translate(117.066 69.337)" fill="#49be55" opacity="0.3"/>
  <rect id="Rectangle_693" data-name="Rectangle 693" width="15.264" height="1.489" transform="translate(139.776 69.337)" fill="#49be55"/>
  <path id="Path_12533" data-name="Path 12533" d="M210.747,131.019c0,4.777-17.6,15.636-40.813,15.636s-43.326-10.859-43.326-15.636c0-1.195,1.971.289,4.1-.745,6.186-3.014,20.935-.792,37.675-.916q.775-.007,1.555-.007C193.144,129.351,210.747,126.241,210.747,131.019Z" transform="translate(-0.747 -11.966)" fill="#3f3d56"/>
  <path id="Path_12534" data-name="Path 12534" d="M210.747,131.019c0,4.777-17.6,15.636-40.813,15.636s-43.326-10.859-43.326-15.636c0-1.195,1.971.289,4.1-.745,6.186-3.014,20.935-.792,37.675-.916q.775-.007,1.555-.007C193.144,129.351,210.747,126.241,210.747,131.019Z" transform="translate(-0.747 -11.966)" opacity="0.1"/>
  <path id="Path_12535" data-name="Path 12535" d="M210.654,130.929c0,4.777-18.814,8.652-42.023,8.652s-42.022-3.875-42.022-8.652c0-1.195,1.174-2.331,3.3-3.365,6.186-3.014,20.428-5.156,37.169-5.28q.775-.007,1.555-.007C191.839,122.277,210.654,126.152,210.654,130.929Z" transform="translate(-0.747 -11.966)" fill="#3f3d56"/>
  <ellipse id="Ellipse_440" data-name="Ellipse 440" cx="10.06" cy="11.408" rx="10.06" ry="11.408" transform="translate(160.002 88.463)" fill="#36334a"/>
  <path id="Path_12536" data-name="Path 12536" d="M175.228,91.2l-15.118.465s-15.51,14.556-4.462,18.51c0,0,15.742.679,19-1.88C174.646,108.291,178.716,92.242,175.228,91.2Zm-.7,4.3-16.165,1.047a5.91,5.91,0,0,1,5.815-3.954c4.652,0,9.885-1.047,10.35,1.4s0,1.512,0,1.512Z" transform="translate(-0.747 -11.966)" fill="#3f3d56"/>
  <path id="Path_12537" data-name="Path 12537" d="M190.7,100.382l-19.886-.7,4.652-19.654s18.607-1.4,18.142,3.373S190.7,100.382,190.7,100.382Z" transform="translate(-0.747 -11.966)" fill="#36334a"/>
  <path id="Path_12538" data-name="Path 12538" d="M171.5,109.778s-11.969,2.118-16.272-4.162,16.281-2.907,16.281-2.907l1.744,4.768Z" transform="translate(-0.747 -11.966)" fill="#36334a"/>
  <circle id="Ellipse_441" data-name="Ellipse 441" cx="5.466" cy="5.466" r="5.466" transform="translate(161.688 113.537)" fill="#36334a"/>
  <ellipse id="Ellipse_442" data-name="Ellipse 442" cx="3.431" cy="3.954" rx="3.431" ry="3.954" transform="translate(164.247 115.048)" fill="#3f3d56"/>
  <path id="Path_12539" data-name="Path 12539" d="M197.79,79.449s-4.535-2.558-4.768,3.489l-3.838,28.143h1.628l4.419-30.12s2.21.349,2.558.349S197.79,79.449,197.79,79.449Z" transform="translate(-0.747 -11.966)" fill="#3f3d56"/>
  <path id="Path_12540" data-name="Path 12540" d="M202.308,82.555h0a1.088,1.088,0,0,1-1.476.709l-5.261-2.249.954-2.1,5.185,2.362a1.088,1.088,0,0,1,.6,1.281Z" transform="translate(-0.747 -11.966)" fill="#36334a"/>
  <path id="Path_12541" data-name="Path 12541" d="M170.343,109.1s-8.373-.93-10.7,7.094-2.093,14.188-4.07,13.723-6.164-2.093-6.164-2.093l.349,2.442s7.327,3.721,8.49-.233,1.861-18.491,8.49-18.142,7.792-.349,7.792-.349Z" transform="translate(-0.747 -11.966)" fill="#3f3d56"/>
  <path id="Path_12542" data-name="Path 12542" d="M154.411,105.267s-6.513.814-9.071,5.582-3.838,13.374-3.838,13.374h2.442s1.4-17.1,8.722-16.165Z" transform="translate(-0.747 -11.966)" fill="#3f3d56"/>
  <path id="Path_12543" data-name="Path 12543" d="M149.992,131.9l-10.35-6.4s-.581-2.326,6.047-3.256c0,0,12.533,4.383,11.325,6.029S151.736,132.48,149.992,131.9Z" transform="translate(-0.747 -11.966)" fill="#36334a"/>
  <path id="Path_12544" data-name="Path 12544" d="M169.208,95.136c.319.347,6.184,5.927,6.184,5.927s-.583,3.895-6.858,4.378l-10.458.806s-1.977,7.254-4.327,9.573-1.272,2.448-2.154,3.578.356,1.433-.983,1.543-4.105-1.509-4.135-2.761a2.921,2.921,0,0,1,1.1-2.288c.347-.319,1.227-3.367,1.755-4.012s2.526-8.4,2.526-8.4,1.994-3.751,4.759-4.05a23.669,23.669,0,0,0,5.841-1.644" transform="translate(-0.747 -11.966)" fill="#2f2e41"/>
  <path id="Path_12545" data-name="Path 12545" d="M169.208,95.136c.319.347,6.184,5.927,6.184,5.927s-.583,3.895-6.858,4.378l-10.458.806s-1.977,7.254-4.327,9.573-1.272,2.448-2.154,3.578.356,1.433-.983,1.543-4.105-1.509-4.135-2.761a2.921,2.921,0,0,1,1.1-2.288c.347-.319,1.227-3.367,1.755-4.012s2.526-8.4,2.526-8.4,1.994-3.751,4.759-4.05a23.669,23.669,0,0,0,5.841-1.644" transform="translate(-0.747 -11.966)" opacity="0.1"/>
  <path id="Path_12546" data-name="Path 12546" d="M159.063,76.512s-2.2-5.98-3.707-4.075,2.424,5.035,2.424,5.035Z" transform="translate(-0.747 -11.966)" fill="#a0616a"/>
  <path id="Path_12547" data-name="Path 12547" d="M170.657,79.634,169.4,79.1s-2.3,1.554-2.452,2.059.177.328-.727.772-3.372,1.519-3.7,1.7-4.043-6.4-3.155-7.34a5.672,5.672,0,0,1-2.42.372s1.89,9.163,2.177,10.4.959,1.388,2.211,1.434,8.853-2.185,8.853-2.185Z" transform="translate(-0.747 -11.966)" fill="#575a89"/>
  <path id="Path_12548" data-name="Path 12548" d="M151.05,119.014s-.063,1.3.154,1.449,1.558,3.312-.507,3.617-3.2-.092-3.7.076-8.733-.511-8.67-1.811,4.18-.96,4.18-.96,4.078-1.927,4.841-3.128S151.05,119.014,151.05,119.014Z" transform="translate(-0.747 -11.966)" fill="#2f2e41"/>
  <path id="Path_12549" data-name="Path 12549" d="M151.05,119.014s-.063,1.3.154,1.449,1.558,3.312-.507,3.617-3.2-.092-3.7.076-8.733-.511-8.67-1.811,4.18-.96,4.18-.96,4.078-1.927,4.841-3.128S151.05,119.014,151.05,119.014Z" transform="translate(-0.747 -11.966)" opacity="0.1"/>
  <path id="Path_12550" data-name="Path 12550" d="M155.3,125.861s-1.252,5.456-2.171,5.4-7.4-3.212-8.2-3.837c-1.025-.8-.984-2.221.192-1.923s4.5.031,5.068-.57l1.454-1.544Z" transform="translate(-0.747 -11.966)" fill="#2f2e41"/>
  <path id="Path_12551" data-name="Path 12551" d="M168.137,95.548c.343.323,10.78,9.177,10.78,9.177s-.3,3.927-6.522,4.865l-10.372,1.564s-1.444,7.379-3.62,9.862-1.09,2.534-1.888,3.725.459,1.4-.868,1.61-4.2-1.207-4.325-2.453a2.921,2.921,0,0,1,.929-2.362c.323-.343.979-3.447,1.459-4.129s1.909-8.56,1.909-8.56,1.716-3.886,4.452-4.386a23.669,23.669,0,0,0,5.706-2.064" transform="translate(-0.747 -11.966)" fill="#2f2e41"/>
  <circle id="Ellipse_443" data-name="Ellipse 443" cx="4.949" cy="4.949" r="4.949" transform="translate(172.049 54.503)" fill="#a0616a"/>
  <path id="Path_12552" data-name="Path 12552" d="M180.338,74.507s-.742,3.023.388,4.573-7.561.812-7.561.812,2.352-4.906,1.484-6.046S180.338,74.507,180.338,74.507Z" transform="translate(-0.747 -11.966)" fill="#a0616a"/>
  <path id="Path_12553" data-name="Path 12553" d="M169.228,79.261c-1.05,1.115-.692,7.44-.692,7.44l.671,5.648s-.8,1.025-.54,1.433.691.813-.136,1-2.736.5-2.125,1.4a8.661,8.661,0,0,0,.64.728c.195.206.426.445.688.711.614.62,1.395,1.382,2.261,2.186q.368.344.755.694c3.3,2.989,7.414,6.154,8.264,4.635,1.424-2.544,2.413-2.907,2.347-5.072s1.767-7.722,1.767-7.722,2.131-9.484-.872-12.31l-.469-.751a1.962,1.962,0,0,0-2.123-.869,21.7,21.7,0,0,1-4.686.756c-1.5-.121-1.174-.74-1.174-.74S170.279,78.145,169.228,79.261Z" transform="translate(-0.747 -11.966)" fill="#575a89"/>
  <path id="Path_12554" data-name="Path 12554" d="M164.588,99.49s-6.122,1.519-5.224,3.659,6.2-1.771,6.2-1.771Z" transform="translate(-0.747 -11.966)" fill="#a0616a"/>
  <path id="Path_12555" data-name="Path 12555" d="M180.482,73.229c-.122-.148,0-.363.1-.523a2.543,2.543,0,0,0,.052-2.88,2.742,2.742,0,0,0-.9-.723,4.378,4.378,0,0,0-1.577-.484,2.442,2.442,0,0,1-.857-.169c-.173-.088-.987-.373-1.162-.456-.384-.183-.919-.1-1.165-.451-.236-.332-.016-.787.213-1.124a5.067,5.067,0,0,1,2.745-1.6,3.234,3.234,0,0,1,2.041.362,12.459,12.459,0,0,1,2.079,1.3,7.777,7.777,0,0,1,2.3,2.362,3.147,3.147,0,0,1,.06,3.164c-.126.194-.28.368-.4.567a10.187,10.187,0,0,0-.543,1.6,2.953,2.953,0,0,1-1.707,1.681c-.619.229-1.38.292-1.746.841l-.171-1.145a.66.66,0,0,1,.309-.771l.877-.738a1,1,0,0,0,.379-.489C181.6,72.755,180.687,73.475,180.482,73.229Z" transform="translate(-0.747 -11.966)" fill="#2f2e41"/>
  <path id="Path_12556" data-name="Path 12556" d="M171.705,95.024l-3.972,2.6c.788.8,1.852,1.827,3.015,2.881,1.1-.593,2.227-1.236,3.232-1.881,3.68-2.362,6.835-8.292,8.248-11.169a5.915,5.915,0,0,0,.263-5.093,10.746,10.746,0,0,0-2.942-.828C177.708,81.255,171.705,95.024,171.705,95.024Z" transform="translate(-0.747 -11.966)" opacity="0.1"/>
  <path id="Path_12557" data-name="Path 12557" d="M171.18,94.206l-4.135,2.707c.195.206.426.445.688.711.614.62,1.395,1.382,2.261,2.186,1.175-.627,2.387-1.315,3.462-2.005,3.68-2.362,6.835-8.292,8.248-11.169s-2.39-1.845-2.39-1.845,1.974-.893.131-1.171S171.18,94.206,171.18,94.206Z" transform="translate(-0.747 -11.966)" opacity="0.1"/>
  <path id="Path_12558" data-name="Path 12558" d="M182.31,81.866a5.914,5.914,0,0,1-.263,5.093c-1.413,2.877-4.569,8.807-8.248,11.169a79.434,79.434,0,0,1-8.944,4.688s-.5-2.736-1.342-3.044l8.01-5.243s6-13.768,7.845-13.491A10.746,10.746,0,0,1,182.31,81.866Z" transform="translate(-0.747 -11.966)" fill="#575a89"/>
  <path id="Path_12559" data-name="Path 12559" d="M165.293,99.116v13.606h1.512V98.883Z" fill="#3f3d56"/>
  <path id="Path_12560" data-name="Path 12560" d="M168.25,119.455s2.907,11.4,1.047,13.025c0,0-2.442-7.21-4.3-6.28l.581-6.745Z" transform="translate(-0.747 -11.966)" fill="#36334a"/>
  <path id="Path_12561" data-name="Path 12561" d="M190.812,94.684l-15.118.465s-13.374,13.025-2.326,16.979c0,0,13.606,2.21,16.863-.349C190.23,111.779,194.3,95.731,190.812,94.684Zm-.7,4.3-16.165,1.047a5.91,5.91,0,0,1,5.815-3.954c4.652,0,9.885-1.047,10.35,1.4s0,1.512,0,1.512Z" transform="translate(-0.747 -11.966)" fill="#3f3d56"/>
  <ellipse id="Ellipse_444" data-name="Ellipse 444" cx="15.176" cy="17.212" rx="15.176" ry="17.212" transform="translate(171.457 90.045)" fill="#36334a"/>
  <ellipse id="Ellipse_445" data-name="Ellipse 445" cx="11.455" cy="12.792" rx="11.455" ry="12.792" transform="translate(175.876 94.464)" fill="#3f3d56"/>
  <path id="Path_12562" data-name="Path 12562" d="M191.043,119.048a3.4,3.4,0,0,0-.066-.665l8.556-4.278-.581-1.279-8.643,4.211a1.8,1.8,0,0,0-.287-.24h.007l2.527-12.578-2.235-.051-1.486,12.378.142.03a1.4,1.4,0,0,0-.333.114l-7.475-7.673-1.056,1.482,7.68,7.065a3.089,3.089,0,0,0-.34,1.191l-10.829,4.42-.233,1.861,11.288-4.747a2.467,2.467,0,0,0,.441.713l-3.472,11.826h1.279l2.914-11.345a1.328,1.328,0,0,0,.4.064,1.386,1.386,0,0,0,.739-.222l6.064,8.013,1.861-1.279L190.8,120.3A3.252,3.252,0,0,0,191.043,119.048Z" transform="translate(-0.747 -11.966)" fill="#36334a"/>
  <circle id="Ellipse_446" data-name="Ellipse 446" cx="5.584" cy="5.584" r="5.584" transform="translate(144.849 53.901)" fill="#49be55"/>
  <path id="Path_12563" data-name="Path 12563" d="M207.666,128.76c0,3.07-1.825,4.141-4.076,4.141l-.156,0c-.1,0-.208-.007-.31-.014-2.032-.144-3.61-1.271-3.61-4.125,0-2.954,3.774-6.681,4.059-6.958h0l.016-.016S207.666,125.691,207.666,128.76Z" transform="translate(-0.747 -11.966)" fill="#49be55"/>
  <path id="Path_12564" data-name="Path 12564" d="M203.442,132.432l1.491-2.083-1.494,2.312,0,.239c-.1,0-.208-.007-.31-.014l.161-3.071v-.024l0,0,.015-.29-1.5-2.317,1.5,2.1,0,.062.121-2.32-1.283-2.394,1.3,1.987.126-4.811v0l-.021,3.793,1.277-1.5-1.282,1.831L203.514,128l1.193-1.994-1.2,2.3-.019,1.155,1.73-2.775-1.737,3.178Z" transform="translate(-0.747 -11.966)" fill="#3f3d56"/>
</svg>
