<svg id="undraw_knowledge_g5gf" xmlns="http://www.w3.org/2000/svg" width="210" height="154.65" viewBox="0 0 210 154.65">
  <rect id="Rectangle_703" data-name="Rectangle 703" width="175.805" height="94.664" transform="translate(22.7 20.382)" fill="#f2f2f2"/>
  <rect id="Rectangle_704" data-name="Rectangle 704" width="56.799" height="69.742" transform="translate(39.701 36.61)" fill="#49be55" opacity="0.3"/>
  <rect id="Rectangle_705" data-name="Rectangle 705" width="45.4" height="2.511" transform="translate(118.33 41.633)" fill="#3f3d56"/>
  <rect id="Rectangle_706" data-name="Rectangle 706" width="66.072" height="2.511" transform="translate(118.33 46.27)" fill="#3f3d56"/>
  <rect id="Rectangle_707" data-name="Rectangle 707" width="45.4" height="2.511" transform="translate(118.33 57.475)" fill="#3f3d56"/>
  <rect id="Rectangle_708" data-name="Rectangle 708" width="45.4" height="2.511" transform="translate(118.33 76.021)" fill="#3f3d56"/>
  <rect id="Rectangle_709" data-name="Rectangle 709" width="66.072" height="2.511" transform="translate(118.33 62.111)" fill="#3f3d56"/>
  <rect id="Rectangle_710" data-name="Rectangle 710" width="66.072" height="2.511" transform="translate(118.33 66.748)" fill="#3f3d56"/>
  <rect id="Rectangle_711" data-name="Rectangle 711" width="66.072" height="2.511" transform="translate(118.33 71.385)" fill="#3f3d56"/>
  <rect id="Rectangle_712" data-name="Rectangle 712" width="23.763" height="6.569" transform="translate(118.33 87.226)" fill="#49be55"/>
  <rect id="Rectangle_713" data-name="Rectangle 713" width="56.799" height="69.742" transform="translate(43.372 32.843)" fill="#3f3d56"/>
  <path id="Path_12593" data-name="Path 12593" d="M102.971,81.017c0,13.545-8.052,18.274-17.985,18.274S67,94.562,67,81.017,84.986,50.241,84.986,50.241,102.971,67.472,102.971,81.017Z" transform="translate(-10.915 -9.611)" fill="#49be55"/>
  <path id="Path_12594" data-name="Path 12594" d="M73.416,87.608,73.6,76.272l7.666-14.024L73.629,74.494l.083-5.1L78.995,59.25l-5.261,8.8h0l.149-9.167L79.54,50.8l-5.634,6.636L74,40.629l-.585,22.253.048-.918-5.752-8.8,5.66,10.566-.536,10.238-.016-.272-6.631-9.265L72.8,74.653l-.067,1.28-.012.019.005.105-1.36,25.975h1.817L73.4,88.616l6.594-10.2Z" fill="#3f3d56"/>
  <ellipse id="Ellipse_459" data-name="Ellipse 459" cx="25.308" cy="3.284" rx="25.308" ry="3.284" transform="translate(0.097 148.082)" fill="#3f3d56"/>
  <path id="Path_12595" data-name="Path 12595" d="M24.366,70.057l-.841,2,.946,12.925s-.525.736,0,1.261.42.736.42.736-.841,0-.42.631a2.015,2.015,0,0,1,.42.946l-.21.63a1.967,1.967,0,0,1,.42.946c0,.42,2.732,13.346,2.732,13.346l2.627-5.149L28.99,77.833Z" transform="translate(-10.915 -9.611)" fill="#49be55"/>
  <path id="Path_12596" data-name="Path 12596" d="M52.009,102.389s4.624,3.405,4.786,6.129-5.96-4.055-6-4.819S52.009,102.389,52.009,102.389Z" transform="translate(-10.915 -9.611)" fill="#ffb9b9"/>
  <path id="Path_12597" data-name="Path 12597" d="M23,153.914,21.844,157.7s-1.681,3.678.631,4.2,4.519-1.471,4.519-1.471v-2.522l.841-3.993Z" transform="translate(-10.915 -9.611)" fill="#2f2e41"/>
  <path id="Path_12598" data-name="Path 12598" d="M41.915,153.914s-.525,7.146.631,7.566,5.254.525,5.359,0,1.366-1.051.42-1.786-1.576-5.044-1.576-5.044Z" transform="translate(-10.915 -9.611)" fill="#2f2e41"/>
  <path id="Path_12599" data-name="Path 12599" d="M31.3,86.24v3.153A63.321,63.321,0,0,0,26.573,108.1C25.312,119.552,21,154.44,22.054,155.07s12.4,1.051,12.715.21.631-25.431.631-25.431l3.888-17.339s.736,6.2,1.366,7.251-1.051,35.2,0,35.729,15.237,1.471,15.027-.21-4.939-47.288-4.939-47.288S48.326,86.45,47.59,86.24a56.5,56.5,0,0,0-8.512-.21C38.027,86.24,31.3,86.24,31.3,86.24Z" transform="translate(-10.915 -9.611)" fill="#2f2e41"/>
  <circle id="Ellipse_460" data-name="Ellipse 460" cx="5.99" cy="5.99" r="5.99" transform="translate(22.383 38.588)" fill="#ffb9b9"/>
  <path id="Path_12600" data-name="Path 12600" d="M40.549,59.233s-3.047,4.729-2.312,5.99-7.776-1.261-7.776-1.261,5.149-6.305,5.044-7.041S40.549,59.233,40.549,59.233Z" transform="translate(-10.915 -9.611)" fill="#ffb9b9"/>
  <path id="Path_12601" data-name="Path 12601" d="M46.854,66.273s-5.569-1.786-6.305-2.522a10.107,10.107,0,0,1-1.261-1.576s-6.725-.946-6.936-.946a24.39,24.39,0,0,0-2.207,2.312c-.42.42-5.78,3.258-5.78,3.993s-.841,4.519-.841,4.519,1.892,3.888,3.047,4.729,1.471.631,1.576,2a10.574,10.574,0,0,0,1.576,3.573s.946,2.417.736,3.153S29.3,86.87,31.512,86.66s13.136.42,13.136-.736-2.1-12.19-2.1-12.19Z" transform="translate(-10.915 -9.611)" fill="#49be55"/>
  <path id="Path_12602" data-name="Path 12602" d="M44.858,66.484l2-.21s.736.42.841,4.519.105,13.976.841,14.817S52.319,99.48,52.319,99.48s.841.21.841.946.946,1.366.525,2.207.42.631-.105,1.156-3.047,1.576-3.153.946.315-.736-.105-.946-.42-.315-.525-1.051-1.051-1.471-.946-1.786-4.624-9.458-4.624-9.773-.315-1.471-.736-1.681-1.051-.42-.736-.946-.841-16.288-.841-16.288Z" transform="translate(-10.915 -9.611)" fill="#49be55"/>
  <path id="Path_12603" data-name="Path 12603" d="M44.353,50.39a7.927,7.927,0,0,0-7.367-2.459,6.566,6.566,0,0,0-5.08,5.645,9.036,9.036,0,0,1-.15,1.653c-.241.9-.957,1.615-1.209,2.513-.169.6-.119,1.249-.3,1.847-.331,1.106-1.356,1.827-2.137,2.677a2.709,2.709,0,0,0-.684,1.12,4.222,4.222,0,0,0-.052,1.139,7.932,7.932,0,0,1-2.127,5.533A13.649,13.649,0,0,1,27.9,68.52a4.113,4.113,0,0,0,1.129,4.247,3.591,3.591,0,0,0,4.3.279,6.568,6.568,0,0,0,1.7-2.147L36.8,67.891a4.631,4.631,0,0,1,1.161-1.476c.4-.3.9-.452,1.3-.744a3.524,3.524,0,0,0,1.113-3.425A35.943,35.943,0,0,0,39.3,58.613a3.511,3.511,0,0,1,.239-2.894c.761-1.087,2.326-1.226,3.36-2.058a4.668,4.668,0,0,0,.842-1.086c.258-.362.323-.232.722-.249C45.558,52.281,44.759,50.831,44.353,50.39Z" transform="translate(-10.915 -9.611)" fill="#2f2e41"/>
  <ellipse id="Ellipse_461" data-name="Ellipse 461" cx="0.483" cy="1.159" rx="0.483" ry="1.159" transform="translate(27.723 45.497)" fill="#ffb9b9"/>
  <circle id="Ellipse_462" data-name="Ellipse 462" cx="6.182" cy="6.182" r="6.182" transform="translate(124.029 127.893)" fill="#f2f2f2"/>
  <circle id="Ellipse_463" data-name="Ellipse 463" cx="6.182" cy="6.182" r="6.182" transform="translate(0 6.182)" fill="#f2f2f2"/>
  <circle id="Ellipse_464" data-name="Ellipse 464" cx="6.182" cy="6.182" r="6.182" transform="translate(197.636)" fill="#f2f2f2"/>
</svg>
