<svg id="undraw_access_account_99n5" xmlns="http://www.w3.org/2000/svg" width="292" height="261.102" viewBox="0 0 292 261.102">
  <path id="Path_12639" data-name="Path 12639" d="M109.712,237.914l-3.261-12.863a167.021,167.021,0,0,0-17.721-6.358l-.412,5.978-1.67-6.586c-7.468-2.132-12.548-3.072-12.548-3.072s6.863,26.1,21.256,46.047l16.772,2.946L99.1,265.885a67.575,67.575,0,0,0,5.828,6.176c20.939,19.436,44.26,28.353,52.09,19.917s-2.8-31.03-23.735-50.465c-6.491-6.025-14.645-10.86-22.808-14.666Z" transform="translate(-74.101 -34.524)" fill="#e6e6e6"/>
  <path id="Path_12640" data-name="Path 12640" d="M140.729,223.945l3.857-12.7a167.022,167.022,0,0,0-11.883-14.6l-3.443,4.9,1.975-6.5c-5.291-5.686-9.154-9.116-9.154-9.116s-7.614,25.887-5.605,50.405l12.835,11.191L117.186,242.4a67.575,67.575,0,0,0,1.8,8.3c7.878,27.461,23.233,47.15,34.3,43.975s13.646-28.008,5.767-55.469c-2.442-8.513-6.923-16.867-11.944-24.344Z" transform="translate(-74.101 -34.524)" fill="#e6e6e6"/>
  <path id="Path_12641" data-name="Path 12641" d="M324.347,275.88l2.427-2.621a44.96,44.96,0,0,0-1.161-4.933l-1.41.783,1.243-1.342c-.613-2-1.145-3.284-1.145-3.284a43.087,43.087,0,0,0-7.284,11.546l1.792,4.219-2.333-2.667a18.182,18.182,0,0,0-.541,2.221c-1.321,7.576.082,14.148,3.134,14.68s6.6-5.178,7.918-12.753a23.947,23.947,0,0,0-.03-7.3Z" transform="translate(-74.101 -34.524)" fill="#e6e6e6"/>
  <path id="Path_12642" data-name="Path 12642" d="M360.249,281.063l3.432-.989a44.956,44.956,0,0,0,1.556-4.823l-1.612-.059,1.757-.507c.509-2.028.717-3.4.717-3.4a43.088,43.088,0,0,0-12.2,6.119l-.647,4.538-.619-3.489a18.193,18.193,0,0,0-1.611,1.622c-5.047,5.8-7.243,12.154-4.905,14.187s8.324-1.022,13.37-6.824a23.948,23.948,0,0,0,3.747-6.264Z" transform="translate(-74.101 -34.524)" fill="#e6e6e6"/>
  <path id="Path_12643" data-name="Path 12643" d="M264.3,52.239V276.8a17.718,17.718,0,0,1-17.711,17.715H159.32A17.721,17.721,0,0,1,141.6,276.8V52.239A17.72,17.72,0,0,1,159.32,34.524h10.586a8.425,8.425,0,0,0,7.794,11.6h49.754a8.425,8.425,0,0,0,7.794-11.6h11.34A17.718,17.718,0,0,1,264.3,52.236Z" transform="translate(-74.101 -34.524)" fill="#3f3d56"/>
  <path id="Path_12644" data-name="Path 12644" d="M190.654,127.532a8.76,8.76,0,0,1,4.384-7.59,8.764,8.764,0,1,0,0,15.179A8.759,8.759,0,0,1,190.654,127.532Z" transform="translate(-74.101 -34.524)" fill="#fff"/>
  <path id="Path_12645" data-name="Path 12645" d="M201.672,127.532a8.76,8.76,0,0,1,4.384-7.59,8.764,8.764,0,1,0,0,15.179A8.759,8.759,0,0,1,201.672,127.532Z" transform="translate(-74.101 -34.524)" fill="#fff"/>
  <circle id="Ellipse_471" data-name="Ellipse 471" cx="8.764" cy="8.764" r="8.764" transform="translate(129.575 84.243)" fill="#49be55"/>
  <rect id="Rectangle_721" data-name="Rectangle 721" width="78.343" height="0.734" transform="translate(89.718 150.367)" fill="#fff"/>
  <circle id="Ellipse_472" data-name="Ellipse 472" cx="2.474" cy="2.474" r="2.474" transform="translate(89.718 140.837)" fill="#49be55"/>
  <rect id="Rectangle_722" data-name="Rectangle 722" width="78.343" height="0.734" transform="translate(89.718 175.106)" fill="#fff"/>
  <circle id="Ellipse_473" data-name="Ellipse 473" cx="2.474" cy="2.474" r="2.474" transform="translate(89.718 165.578)" fill="#49be55"/>
  <path id="Path_12646" data-name="Path 12646" d="M227.087,154.906H176.007a1.836,1.836,0,0,1-1.834-1.834V101.992a1.836,1.836,0,0,1,1.834-1.834h51.081a1.836,1.836,0,0,1,1.834,1.834v51.081A1.836,1.836,0,0,1,227.087,154.906Zm-51.081-54.015a1.1,1.1,0,0,0-1.1,1.1v51.081a1.1,1.1,0,0,0,1.1,1.1h51.081a1.1,1.1,0,0,0,1.1-1.1V101.992a1.1,1.1,0,0,0-1.1-1.1Z" transform="translate(-74.101 -34.524)" fill="#fff"/>
  <rect id="Rectangle_723" data-name="Rectangle 723" width="27.626" height="11.545" rx="1.467" transform="translate(140.435 191.554)" fill="#49be55"/>
  <rect id="Rectangle_724" data-name="Rectangle 724" width="291.708" height="0.734" transform="translate(0.292 259.633)" fill="#3f3d56"/>
  <path id="Path_12647" data-name="Path 12647" d="M310.533,153.775s-1.016,6.432,0,7.447S304.1,170.7,304.1,170.7l-6.093-8.463s2.708-4.4,1.693-8.124Z" transform="translate(-74.101 -34.524)" fill="#ffb8b8"/>
  <path id="Path_12648" data-name="Path 12648" d="M214.092,167.658l-4.4,47.053,1.691,36.559,8.124-2.369.34-32.835,9.479-28.434,5.753,30.8-.678,31.143,10.155.339.678-34.528,1.19-48.224Z" fill="#2f2e41"/>
  <path id="Path_12649" data-name="Path 12649" d="M308.84,283.086v7.447s-1.693,5.416,3.724,5.078,5.078-2.708,5.078-2.708l-2.031-9.14Z" transform="translate(-74.101 -34.524)" fill="#2f2e41"/>
  <path id="Path_12650" data-name="Path 12650" d="M293.269,283.086v7.447s1.693,5.416-3.724,5.078-5.078-2.708-5.078-2.708l2.031-9.14Z" transform="translate(-74.101 -34.524)" fill="#2f2e41"/>
  <circle id="Ellipse_474" data-name="Ellipse 474" cx="7.786" cy="7.786" r="7.786" transform="translate(222.892 107.403)" fill="#ffb8b8"/>
  <path id="Path_12651" data-name="Path 12651" d="M304.44,166.977l.677-3.385h1.693l3.273-4.708,2.82,2.677.677,15.91H295.3l1.693-16.926,2.465-1.662s-.434,5.724,4.305,5.724Z" transform="translate(-74.101 -34.524)" fill="#575a89"/>
  <path id="Path_12652" data-name="Path 12652" d="M297.331,163.254s2.8,3.549,6.987,3.3,8.246-3.636,8.246-3.636l5.755,44.006s-6.432.677-8.463-2.708l-15.571-.339.339-40.96Z" transform="translate(-74.101 -34.524)" fill="#d0cde1"/>
  <path id="Path_12653" data-name="Path 12653" d="M299.616,158.3l-14.81,7.323,3.724,20.988s1.354,7.786,0,10.832-2.708,23.357-2.708,23.357,15.233,1.693,13.2-22.342S299.616,158.3,299.616,158.3Z" transform="translate(-74.101 -34.524)" fill="#2f2e41"/>
  <path id="Path_12654" data-name="Path 12654" d="M290.561,208.952l2.031,2.031s6.093,10.494,8.8,6.77-4.739-10.155-4.739-10.155l-3.385-2.708Z" transform="translate(-74.101 -34.524)" fill="#ffb8b8"/>
  <path id="Path_12655" data-name="Path 12655" d="M310.09,158.3l14.66,7.323-5.078,25.05s.339,8.124,2.031,12.525,1.016,17.264,1.016,17.264-2.031,7.786-6.432-11.509S310.09,158.3,310.09,158.3Z" transform="translate(-74.101 -34.524)" fill="#2f2e41"/>
  <path id="Path_12656" data-name="Path 12656" d="M321.365,196.766h-3.047s-10.155-1.354-9.478,2.708S319,202.521,319,202.521l3.724-.339Z" transform="translate(-74.101 -34.524)" fill="#ffb8b8"/>
  <path id="Path_12657" data-name="Path 12657" d="M286.837,164.608l-2.37,1.016a54.733,54.733,0,0,0-2.708,6.77c-.339,1.693-4.4,22-3.385,24.373s11.171,14.894,11.171,14.894l5.755-6.093-8.463-11.509,2.37-14.556Z" transform="translate(-74.101 -34.524)" fill="#2f2e41"/>
  <path id="Path_12658" data-name="Path 12658" d="M319.672,164.946l4.479.378.937.3s9.478,25.727,7.447,29.789S321.7,206.922,321.7,206.922l-2.37-10.494,4.4-4.062-4.4-13.54Z" transform="translate(-74.101 -34.524)" fill="#2f2e41"/>
  <path id="Path_12659" data-name="Path 12659" d="M311.365,143.71s2.037-3.822-2.444-4.17c0,0-4.074-2.432-7.333.347,0,0-2.852-.695-3.666,1.39a1.427,1.427,0,0,1,.815-1.737s-2.852-.695-2.852,2.78a10.681,10.681,0,0,0,0,6.6c1.222,3.127,1.629,3.475,1.629,3.475s-2.008-6.556,2.88-6.9,10.359-3.346,10.767.476,1.222,4.864,1.222,4.864S316.05,145.273,311.365,143.71Z" transform="translate(-74.101 -34.524)" fill="#2f2e41"/>
</svg>
