<svg id="undraw_conference_call_b0w6" xmlns="http://www.w3.org/2000/svg" width="210" height="134.555" viewBox="0 0 210 134.555">
  <rect id="Rectangle_694" data-name="Rectangle 694" width="209.91" height="134.436" transform="translate(0.09 0.119)" fill="#e6e6e6"/>
  <rect id="Rectangle_695" data-name="Rectangle 695" width="197.906" height="109.621" transform="translate(6.092 16.981)" fill="#fff"/>
  <rect id="Rectangle_696" data-name="Rectangle 696" width="209.91" height="8.918" fill="#49be55"/>
  <circle id="Ellipse_447" data-name="Ellipse 447" cx="1.653" cy="1.653" r="1.653" transform="translate(4.974 2.906)" fill="#fff"/>
  <circle id="Ellipse_448" data-name="Ellipse 448" cx="1.653" cy="1.653" r="1.653" transform="translate(11.248 2.906)" fill="#fff"/>
  <circle id="Ellipse_449" data-name="Ellipse 449" cx="1.653" cy="1.653" r="1.653" transform="translate(17.522 2.906)" fill="#fff"/>
  <rect id="Rectangle_697" data-name="Rectangle 697" width="38.707" height="41.994" transform="translate(30.442 25.997)" fill="#e6e6e6"/>
  <rect id="Rectangle_698" data-name="Rectangle 698" width="38.707" height="41.994" transform="translate(85.691 25.997)" fill="#e6e6e6"/>
  <rect id="Rectangle_699" data-name="Rectangle 699" width="38.707" height="41.994" transform="translate(140.939 25.997)" fill="#e6e6e6"/>
  <rect id="Rectangle_700" data-name="Rectangle 700" width="38.707" height="41.994" transform="translate(30.442 75.592)" fill="#e6e6e6"/>
  <rect id="Rectangle_701" data-name="Rectangle 701" width="38.707" height="41.994" transform="translate(85.691 75.592)" fill="#e6e6e6"/>
  <rect id="Rectangle_702" data-name="Rectangle 702" width="38.707" height="41.994" transform="translate(140.939 75.592)" fill="#e6e6e6"/>
  <circle id="Ellipse_450" data-name="Ellipse 450" cx="6.543" cy="6.543" r="6.543" transform="translate(38.934 38.303)" fill="#ffb9b9"/>
  <path id="Path_12565" data-name="Path 12565" d="M92.1,98.215s.818,3.885.818,4.294,3.885,2.249,3.885,2.249l3.476-.613,1.227-3.68S99.464,97.4,99.464,96.17Z" transform="translate(-49.182 -48.359)" fill="#ffb9b9"/>
  <path id="Path_12566" data-name="Path 12566" d="M88.985,87.934s2.077-4.5,6.059-3.462,6.232,2.6,6.405,4.155a22.229,22.229,0,0,1-.087,3.9s-.433-3.2-3.2-2.51a24.707,24.707,0,0,1-7.1.173l-.692,6.232s-.779-1.125-1.645-.433S86.215,89.319,88.985,87.934Z" transform="translate(-49.182 -48.359)" fill="#2f2e41"/>
  <path id="Path_12567" data-name="Path 12567" d="M115.412,114.777l-1.634-7.362a13.388,13.388,0,0,0-2.863-4.5l-10.084-3.546h0a4.235,4.235,0,0,1-3,3.957c-3.068,1.02-5.181-2.418-5.181-2.418l-8.524,6.5a8.315,8.315,0,0,0-2.451,6.545l-.283,2.39H116.2Z" transform="translate(-49.182 -48.359)" fill="#49be55"/>
  <ellipse id="Ellipse_451" data-name="Ellipse 451" cx="8.881" cy="9.427" rx="8.881" ry="9.427" transform="translate(91.697 35.795)" fill="#2f2e41"/>
  <circle id="Ellipse_452" data-name="Ellipse 452" cx="4.672" cy="4.672" r="4.672" transform="translate(103.786 50.145)" fill="#2f2e41"/>
  <path id="Path_12568" data-name="Path 12568" d="M105.2,48.56l2.5,6.507-6.34,2.67-.557-1.262-1.946-4.411Z" fill="#9f616a"/>
  <circle id="Ellipse_453" data-name="Ellipse 453" cx="5.59" cy="5.59" r="5.59" transform="translate(94.609 41.635)" fill="#9f616a"/>
  <path id="Path_12569" data-name="Path 12569" d="M144.812,94.971c3.513-2.344,4.564-2.9,8.591-2l.242-5.875L143.237,89.28Z" transform="translate(-49.182 -48.359)" fill="#2f2e41"/>
  <path id="Path_12570" data-name="Path 12570" d="M167.4,108.263l-.154.018a.1.1,0,0,0-.013-.015c-.612-.612-3.531-1.724-5.707-2.5h0c-1.383-.491-2.464-.843-2.464-.843l-2.631-2.706a8.043,8.043,0,0,1-3.395,1.727,26.659,26.659,0,0,1-3.1.74h0l-.545,1.74s-6.175,4.674-6.674,5.173h0v.005a.272.272,0,0,0-.046.2v.013a22.659,22.659,0,0,0-.478,4.536H169.07v-1.578C169.07,112.6,167.4,108.263,167.4,108.263Z" transform="translate(-49.182 -48.359)" fill="#575a89"/>
  <path id="Path_12571" data-name="Path 12571" d="M216.846,116.35h-13.3l-.732-7.223-.044-.439-.09-.871-.367-3.641-.46,3.911-.971,8.264H198.47l.09-2.572.09-2.608.039-1.051.5-14.3a10.209,10.209,0,0,1,2.038-6.293,7.951,7.951,0,0,1,6.422-3.107,8.182,8.182,0,0,1,6.532,3.22,10.346,10.346,0,0,1,2.135,6.388l.229,8.655Z" transform="translate(-49.182 -48.359)" fill="#2f2e41"/>
  <circle id="Ellipse_454" data-name="Ellipse 454" cx="5.848" cy="5.848" r="5.848" transform="translate(152.614 40.882)" fill="#fbbebe"/>
  <path id="Path_12572" data-name="Path 12572" d="M204.72,99.266s1.671,5.639,0,7.31a19.339,19.339,0,0,0-2.089,2.3l4.8,6.475,8.354-10.234s-5.848-1.671-4.386-6.266Z" transform="translate(-49.182 -48.359)" fill="#fbbebe"/>
  <path id="Path_12573" data-name="Path 12573" d="M173.579,67.991h-4.934l-.082-.845-.075-.781,2.272-.285,2.739-.342.031.876Z" fill="#fbbebe"/>
  <path id="Path_12574" data-name="Path 12574" d="M223.1,114.931s-.835-5.222-1.462-7.31-1.253-2.089-1.253-2.089h0c-.738-.738-2.511-.869-3.844-.848-.935.01-1.655.093-1.655.093l-7.45,7.858-3.752-4.988v0a5.46,5.46,0,0,0-1,.172,6.623,6.623,0,0,0-.827.27,11.353,11.353,0,0,0-3.168,2.033h0c-.54.486-.858.843-.858.843a24.46,24.46,0,0,0-1.855,5.389h23.873l.054-1.074v0Z" transform="translate(-49.182 -48.359)" fill="#49be55"/>
  <path id="Path_12575" data-name="Path 12575" d="M202.736,94.149c3.777-2.036,5.329-1.95,10.025,0l1.253-3.053a2.171,2.171,0,0,0-2.168-2.168h-8.4a2.171,2.171,0,0,0-2.168,2.168Z" transform="translate(-49.182 -48.359)" fill="#2f2e41"/>
  <path id="Path_12576" data-name="Path 12576" d="M98.466,134.115a1.541,1.541,0,0,0-.893.2,2.331,2.331,0,0,0-.6.8,9.543,9.543,0,0,1-2.6,2.936c-.772.566-1.754,1.271-1.622,2.315a3.128,3.128,0,0,0,.377.977c.713,1.438,2.657,2.55,2.466,4.191.708-1.185-.239-1.771.469-2.956.337-.564.923-1.2,1.432-.847.17.119.282.332.46.436.423.248.874-.227,1.249-.563,1.293-1.16,3.131-.856,4.739-.495a2.963,2.963,0,0,1,2.042,1.12c.59.954-.561,1.985-.852,3.064a.588.588,0,0,0,.631.732c.483-.048,1.054-.087,1.083-.3.607.022,1.351-.047,1.611-.679a2.659,2.659,0,0,0,.125-.773,15.9,15.9,0,0,1,.845-3.042,4.109,4.109,0,0,0-.075-3.092,3.577,3.577,0,0,0-.66-.8C105.827,134.568,102.067,134.111,98.466,134.115Z" transform="translate(-49.182 -48.359)" fill="#2f2e41"/>
  <path id="Path_12577" data-name="Path 12577" d="M96.211,147.605s.622,5.183-1.659,5.6,2.073,7.463,2.073,7.463l10.366,1.244-2.488-8.293s-1.659-.622-.622-4.768S96.211,147.605,96.211,147.605Z" transform="translate(-49.182 -48.359)" fill="#9f616a"/>
  <circle id="Ellipse_455" data-name="Ellipse 455" cx="6.219" cy="6.219" r="6.219" transform="translate(45.473 90.228)" fill="#9f616a"/>
  <path id="Path_12578" data-name="Path 12578" d="M90.17,165.945c1.1-4.325,2.619-10.15,2.619-10.15s.591.121,1.521.257a36.007,36.007,0,0,0,4.1.373,14.922,14.922,0,0,0,5.039-.563,4.718,4.718,0,0,0,1.488-.794,2.868,2.868,0,0,0,.5-.517c2.487-3.317,3.523,9.328,3.523,9.328l.193,2.066Z" transform="translate(-49.182 -48.359)" fill="#49be55"/>
  <path id="Path_12579" data-name="Path 12579" d="M110.042,179.308q-.123,0-.247.008l.118-.221C109.954,179.164,110,179.236,110.042,179.308Z" transform="translate(-49.182 -48.359)" fill="#ffb8b8"/>
  <path id="Path_12580" data-name="Path 12580" d="M98.769,135.743a1.412,1.412,0,0,0-.727.141,1.7,1.7,0,0,0-.492.564,7.163,7.163,0,0,1-2.116,2.075c-.629.4-1.428.9-1.321,1.636a2.046,2.046,0,0,0,.306.691,5.432,5.432,0,0,1,.66,3.386l1.729-2.513c.274-.4.751-.849,1.166-.6.139.084.23.234.374.308.345.176.711-.16,1.017-.4,1.052-.82,2.548-.605,3.858-.35a2.527,2.527,0,0,1,1.662.792c.607.852-.027,2.084.328,3.069a.9.9,0,0,0,.374-.6c.494.015,1.1-.033,1.312-.48a1.654,1.654,0,0,0,.1-.546,10.109,10.109,0,0,1,.688-2.15,2.553,2.553,0,0,0-.061-2.185,2.644,2.644,0,0,0-.537-.567C104.761,136.062,101.7,135.74,98.769,135.743Z" transform="translate(-49.182 -48.359)" fill="#2f2e41"/>
  <path id="Path_12581" data-name="Path 12581" d="M98.18,156a14.443,14.443,0,0,1-2.3-4.091v0s-2.261-1.3-2.883-.051-6.427,4.353-7.049,4.353l-.015.005A6.805,6.805,0,0,0,81.8,161.6a31.291,31.291,0,0,0-.344,4.345H98.365c.175-1.832.306-3.546.357-5.026a13.839,13.839,0,0,0-.311-4.494A1.309,1.309,0,0,0,98.18,156Z" transform="translate(-49.182 -48.359)" fill="#2f2e41"/>
  <path id="Path_12582" data-name="Path 12582" d="M112.717,157.167c-.01-.049-.018-.09-.026-.128a.956.956,0,0,0-.139-.308.02.02,0,0,1,0-.008c-1.2-1.855-8.9-4.41-8.9-4.41l-.288.994s.036.982.087,2.554c.051,1.472.113,3.461.172,5.646.041,1.426.077,2.937.11,4.438h11.52A67.273,67.273,0,0,0,112.717,157.167Z" transform="translate(-49.182 -48.359)" fill="#2f2e41"/>
  <path id="Path_12583" data-name="Path 12583" d="M220.5,165.945l.881-4.307.82-.347.005,0a1.81,1.81,0,0,1,.966,1.837c0,.288-.044,1.323-.116,2.814Z" transform="translate(-49.182 -48.359)" fill="#575a89"/>
  <circle id="Ellipse_456" data-name="Ellipse 456" cx="7.158" cy="7.158" r="7.158" transform="translate(154.902 88.227)" fill="#ffb8b8"/>
  <path id="Path_12584" data-name="Path 12584" d="M166.534,99.56l-.6,12.228-9.246-5.368,1.193-6.86Z" fill="#ffb8b8"/>
  <path id="Path_12585" data-name="Path 12585" d="M169.219,112.385l-.606,5.2h-4.854l-5.268-10.122L157,104.614l-.712-.465.825-.188.65.47,7.275,5.27,1.167-3.5.031-.09.293-.881Z" fill="#49be55"/>
  <path id="Path_12586" data-name="Path 12586" d="M206.918,136.735s.895-4.474,5.965-3.579l-.6.3s4.772-.6,4.176,2.088c0,0,3.877,2.386,2.983,5.07a30.347,30.347,0,0,0-1.193,4.772l-.895-.895s-.895-5.965-6.263-5.369c-4.026.447-5.667,2.349-6.086,3.719a12.1,12.1,0,0,1-.737,1.874l-.335.073S202.145,138.226,206.918,136.735Z" transform="translate(-49.182 -48.359)" fill="#2f2e41"/>
  <path id="Path_12587" data-name="Path 12587" d="M222.207,161.294l-.005,0-3.8-3.531v-2.385l-2.935-2.313-.044,1.406-.3,9.557-4.88-6.712-3.289-4.523-.591-.809.144-.758-1.822,2.063-6.594,4.947-.565.424a17.986,17.986,0,0,0-1.789,2.087c-.177.265-.984,2.372-2.035,5.2h29.359c.072-1.49.116-2.526.116-2.814A1.81,1.81,0,0,0,222.207,161.294Z" transform="translate(-49.182 -48.359)" fill="#2f2e41"/>
  <path id="Path_12588" data-name="Path 12588" d="M153.637,135.881h0c-4.851,0-8.783,4.364-8.783,9.747v6.839h2.1l1.218-2.534-.3,2.534h13.52l1.107-2.3-.277,2.3h1.522V147.1C163.744,140.9,159.219,135.881,153.637,135.881Z" transform="translate(-49.182 -48.359)" fill="#2f2e41"/>
  <path id="Path_12589" data-name="Path 12589" d="M146.549,165.945h-5.712l-.054-4.659c0-.049,0-.1,0-.144l1.144-1.287.021-.023,4.366,2.765Z" transform="translate(-49.182 -48.359)" fill="#d0cde1"/>
  <circle id="Ellipse_457" data-name="Ellipse 457" cx="6.252" cy="6.252" r="6.252" transform="translate(97.426 90.648)" fill="#fbbebe"/>
  <path id="Path_12590" data-name="Path 12590" d="M149.276,149.011s1.834,9.5,1,10.5,8.837-1.834,8.837-1.834-3.168-6.5-1.5-10.171Z" transform="translate(-49.182 -48.359)" fill="#fbbebe"/>
  <path id="Path_12591" data-name="Path 12591" d="M166.239,155.438h0a1.435,1.435,0,0,0-.717-.7c-1.226-.517-2.282-.912-3.15-1.213a6.662,6.662,0,0,0-4.713.146c-.146.059-.29.123-.432.2,0,0-6.113,1.164-6.841,1.018-.054-.01-.11-.018-.164-.023a2.878,2.878,0,0,0-.331-.028,7.325,7.325,0,0,0-4.06,1.007c-2.007,1.164-4.983,3.228-5.044,5.237l-.057.064.057,4.8h26.833c.054-4.6.085-8.061.085-8.295C167.7,156.923,166.239,155.438,166.239,155.438Z" transform="translate(-49.182 -48.359)" fill="#49be55"/>
  <path id="Path_12592" data-name="Path 12592" d="M156.134,138.566a4.606,4.606,0,0,0-3.634-1.855h-.172c-3.325,0-6.02,3.008-6.02,6.719h1.114l.18-1.369.264,1.369h6.607l.554-1.159-.138,1.159h1.3q.91,4.518-2.614,9.036h2.214l1.107-2.317-.277,2.317h4.221l.83-5.329A9.007,9.007,0,0,0,156.134,138.566Z" transform="translate(-49.182 -48.359)" fill="#2f2e41"/>
  <circle id="Ellipse_458" data-name="Ellipse 458" cx="3.29" cy="3.29" r="3.29" transform="translate(104.876 84.189)" fill="#2f2e41"/>
</svg>
