<svg id="undraw_personal_notes_8n63" xmlns="http://www.w3.org/2000/svg" width="315.216" height="265.431" viewBox="0 0 315.216 265.431">
  <path id="Path_12604" data-name="Path 12604" d="M160,84.244a8.08,8.08,0,1,1,6.34-14.181L164.2,73.638l3.413-2.22a8.049,8.049,0,0,1,1.519,5.967,7.922,7.922,0,0,1-.618,2.147A8.078,8.078,0,0,1,160,84.244Z" transform="translate(145.702 56.513)" fill="#57b894"/>
  <path id="Path_12605" data-name="Path 12605" d="M145.325,129.259c2.277-2.794,1.1-6.977-.569-10.174s-3.788-6.6-3.056-10.127c1.052-5.072,7.025-7.047,11.854-8.921a48.646,48.646,0,0,0,10.146-5.4,13.124,13.124,0,0,0,3.393-3.1,14.962,14.962,0,0,0,2.038-6.277q1.8-10.944,3.073-21.964" transform="translate(129.092 49.482)" fill="none" stroke="#3f3d56" stroke-miterlimit="10" stroke-width="0.159"/>
  <path id="Path_12606" data-name="Path 12606" d="M160.082,83.793a8.08,8.08,0,1,1,6.34-14.181l-2.135,3.575,3.413-2.22a8.049,8.049,0,0,1,1.519,5.967,7.926,7.926,0,0,1-.618,2.147,8.078,8.078,0,0,1-8.519,4.711Z" transform="translate(145.826 55.862)" fill="none" stroke="#3f3d56" stroke-miterlimit="10" stroke-width="0.159"/>
  <path id="Path_12607" data-name="Path 12607" d="M166.864,69.823a8.07,8.07,0,0,0-2.722-7.257L161.7,65.742l.865-4.244a8.079,8.079,0,1,0,4.3,8.326Z" transform="translate(142.431 45.591)" fill="#57b894"/>
  <path id="Path_12608" data-name="Path 12608" d="M166.978,69.222a8.07,8.07,0,0,0-2.722-7.257l-2.447,3.176.865-4.244a8.079,8.079,0,1,0,4.3,8.326Z" transform="translate(142.596 44.723)" fill="none" stroke="#3f3d56" stroke-miterlimit="10" stroke-width="0.159"/>
  <path id="Path_12609" data-name="Path 12609" d="M151.058,88.111a8.079,8.079,0,0,1,.451-16.047l-.665,3.262,2.475-3.214.022,0a8.079,8.079,0,1,1-2.283,16Z" transform="translate(132.802 62.146)" fill="#57b894"/>
  <path id="Path_12610" data-name="Path 12610" d="M151.2,87.515a8.079,8.079,0,0,1,.451-16.047l-.665,3.262,2.475-3.214.022,0a8.079,8.079,0,1,1-2.283,16Z" transform="translate(133.004 61.285)" fill="none" stroke="#3f3d56" stroke-miterlimit="10" stroke-width="0.159"/>
  <path id="Path_12611" data-name="Path 12611" d="M155.944,92.8a8.076,8.076,0,1,1,1.6-6.316l-5.725,3.088,5.693-.224a8,8,0,0,1-1.57,3.452Z" transform="translate(129.027 73.251)" fill="#57b894"/>
  <path id="Path_12612" data-name="Path 12612" d="M156.03,92.352a8.076,8.076,0,1,1,1.6-6.316l-5.726,3.088L157.6,88.9A8,8,0,0,1,156.03,92.352Z" transform="translate(129.151 72.6)" fill="none" stroke="#3f3d56" stroke-miterlimit="10" stroke-width="0.159"/>
  <rect id="Rectangle_714" data-name="Rectangle 714" width="26.787" height="29.893" transform="translate(62.116 2.797)" fill="#49be55"/>
  <rect id="Rectangle_715" data-name="Rectangle 715" width="26.787" height="29.893" transform="translate(66.774 0.079)" fill="none" stroke="#3f3d56" stroke-miterlimit="10" stroke-width="0.159"/>
  <rect id="Rectangle_716" data-name="Rectangle 716" width="26.787" height="29.893" transform="translate(0 36.572)" fill="#f2f2f2"/>
  <rect id="Rectangle_717" data-name="Rectangle 717" width="26.787" height="29.893" transform="translate(4.659 33.855)" fill="none" stroke="#3f3d56" stroke-miterlimit="10" stroke-width="0.159"/>
  <rect id="Rectangle_718" data-name="Rectangle 718" width="26.787" height="29.893" transform="translate(120.737 50.16)" fill="#49be55"/>
  <rect id="Rectangle_719" data-name="Rectangle 719" width="26.787" height="29.893" transform="translate(125.396 47.443)" fill="none" stroke="#3f3d56" stroke-miterlimit="10" stroke-width="0.159"/>
  <ellipse id="Ellipse_465" data-name="Ellipse 465" cx="33.581" cy="38.085" rx="33.581" ry="38.085" transform="translate(156.454 145.236)" fill="#36334a"/>
  <path id="Path_12613" data-name="Path 12613" d="M141.368,48.167a54.792,54.792,0,0,1-25.653,4.444,11.373,11.373,0,0,0,4.288-6.9,19.351,19.351,0,0,0-.242-8.247,1.346,1.346,0,0,1,.018-.952,1.314,1.314,0,0,1,1.025-.488c3.4-.474,13.145-2.53,15.735.383,1.227,1.38.757,4.06,1.206,5.746C137.931,42.845,140.3,48.635,141.368,48.167Z" transform="translate(91.773 8.428)" fill="#fbbebe"/>
  <path id="Path_12614" data-name="Path 12614" d="M141.368,48.167a54.792,54.792,0,0,1-25.653,4.444,11.373,11.373,0,0,0,4.288-6.9,19.351,19.351,0,0,0-.242-8.247,1.346,1.346,0,0,1,.018-.952,1.314,1.314,0,0,1,1.025-.488c3.4-.474,13.145-2.53,15.735.383,1.227,1.38.757,4.06,1.206,5.746C137.931,42.845,140.3,48.635,141.368,48.167Z" transform="translate(91.773 8.428)" opacity="0.1"/>
  <path id="Path_12615" data-name="Path 12615" d="M157.646,63.965l-50.469,1.553S62.531,109,99.412,122.2c0,0,45.422,7.376,56.292-1.165C155.7,121.033,169.293,67.459,157.646,63.965Zm-2.329,14.364-53.963,3.494s3.882-13.2,19.411-13.2,33-3.494,34.552,4.659S155.317,78.329,155.317,78.329Z" transform="translate(47.142 50.447)" fill="#3f3d56"/>
  <path id="Path_12616" data-name="Path 12616" d="M106.393,61.293c-2.518-.385-5.254-.608-7.459.667a11.881,11.881,0,0,0-2.033,1.6q-1.33,1.221-2.64,2.464a4.274,4.274,0,0,0-1.47,2.139c-.337,1.78,1.718,3.213,3.528,3.143s3.434-1.064,5.143-1.663c3.442-1.206,16.1.856,16.793-2.851C119.136,62.082,109.192,61.738,106.393,61.293Z" transform="translate(58.608 46.153)" fill="#fbbebe"/>
  <path id="Path_12617" data-name="Path 12617" d="M117.028,60.909a28.559,28.559,0,0,1-10.555,3,4.45,4.45,0,0,0-1.67.355,1.687,1.687,0,0,0-.7.847,25.2,25.2,0,0,0-2.359,8.613.769.769,0,0,0,.272.787,2.423,2.423,0,0,0,1.141.256q9.06.575,18.18.618a1.9,1.9,0,0,0,.791-.108.741.741,0,0,0,.364-.45,27.547,27.547,0,0,0,1.975-11.173C124.312,59.151,122.994,57.742,117.028,60.909Z" transform="translate(71.565 43.561)" fill="#d7e5f2"/>
  <path id="Path_12618" data-name="Path 12618" d="M117.028,60.909a28.559,28.559,0,0,1-10.555,3,4.45,4.45,0,0,0-1.67.355,1.687,1.687,0,0,0-.7.847,25.2,25.2,0,0,0-2.359,8.613.769.769,0,0,0,.272.787,2.423,2.423,0,0,0,1.141.256q9.06.575,18.18.618a1.9,1.9,0,0,0,.791-.108.741.741,0,0,0,.364-.45,27.547,27.547,0,0,0,1.975-11.173C124.312,59.151,122.994,57.742,117.028,60.909Z" transform="translate(71.565 43.561)" opacity="0.1"/>
  <path id="Path_12619" data-name="Path 12619" d="M174.962,117.032,108.576,114.7,124.1,49.093s62.116-4.659,60.563,11.258S174.962,117.032,174.962,117.032Z" transform="translate(81.46 28.049)" fill="#36334a"/>
  <path id="Path_12620" data-name="Path 12620" d="M142.78,105.07s-39.956,7.071-54.32-13.893,54.351-9.706,54.351-9.706l5.823,15.917Z" transform="translate(49.553 71.374)" fill="#36334a"/>
  <circle id="Ellipse_466" data-name="Ellipse 466" cx="18.246" cy="18.246" r="18.246" transform="translate(162.083 228.937)" fill="#36334a"/>
  <ellipse id="Ellipse_467" data-name="Ellipse 467" cx="11.453" cy="13.2" rx="11.453" ry="13.2" transform="translate(170.624 233.984)" fill="#3f3d56"/>
  <path id="Path_12621" data-name="Path 12621" d="M162.4,48.984s-15.141-8.541-15.917,11.647l-12.811,93.95H139.1l14.752-100.55S161.233,55.2,162.4,55.2,162.4,48.984,162.4,48.984Z" transform="translate(117.706 26.217)" fill="#3f3d56"/>
  <path id="Path_12622" data-name="Path 12622" d="M164.883,59.35h0a3.631,3.631,0,0,1-4.926,2.367l-17.564-7.509,3.186-7.018,17.31,7.884A3.631,3.631,0,0,1,164.883,59.35Z" transform="translate(130.307 26.217)" fill="#36334a"/>
  <path id="Path_12623" data-name="Path 12623" d="M149.233,88.488s-27.952-3.106-35.717,23.682-6.988,47.363-13.588,45.81-20.576-6.988-20.576-6.988l1.165,8.153s24.458,12.423,28.34-.776,6.212-61.728,28.34-60.563,26.011-1.165,26.011-1.165Z" transform="translate(39.25 85.71)" fill="#3f3d56"/>
  <path id="Path_12624" data-name="Path 12624" d="M111.646,83.182S89.905,85.9,81.365,101.816s-12.811,44.646-12.811,44.646h8.153S81.365,89.393,105.823,92.5Z" transform="translate(23.65 78.204)" fill="#3f3d56"/>
  <path id="Path_12625" data-name="Path 12625" d="M100.589,138.592,66.038,117.24s-1.941-7.764,20.188-10.87c0,0,41.838,14.632,37.807,20.127S106.413,140.533,100.589,138.592Z" transform="translate(19.954 111.697)" fill="#36334a"/>
  <path id="Path_12626" data-name="Path 12626" d="M71.231,74.469v45.422h5.047v-46.2Z" transform="translate(102.888 106.329)" fill="#3f3d56"/>
  <path id="Path_12627" data-name="Path 12627" d="M111.5,102.558S121.211,140.6,115,146.039c0,0-8.153-24.07-14.364-20.964l1.941-22.517Z" transform="translate(69.99 106.192)" fill="#36334a"/>
  <circle id="Ellipse_468" data-name="Ellipse 468" cx="15.141" cy="15.141" r="15.141" transform="translate(204.011 20.073)" fill="#fbbebe"/>
  <path id="Path_12628" data-name="Path 12628" d="M137.853,44.036c6.174,1.049,11.511-6.13,17.692-5.12a11.873,11.873,0,0,1,3.8,1.5,37.718,37.718,0,0,1,18.18,24.349c.7,3.114.968,6.49-.347,9.4a17.867,17.867,0,0,1-2.911,4.152c-4.112,4.783-8.626,9.549-14.494,11.863-.573,1.985-.023,4.135.664,6.083,2.87,8.136-1.694,16.905-1.926,25.53-.04,1.475,0,3.092-.918,4.244-1.024,1.279-2.852,1.506-4.488,1.6-14.991.845-29.962-1.455-44.8-3.748a2.251,2.251,0,0,1-1.088-.368,2.61,2.61,0,0,1-.666-1.7c-.55-3.259,2.343-5.9.971-8.908-2.359-5.169,2.786-10.821,4.27-16.305s2.069-6.449,3.106-12.035c.388-2.089-.729-8.385-.388-10.482,1.114-6.849.272-14.65,3.882-20.576,2.169-3.56,1.606-6.329,5.477-7.877C127.956,44,133.483,44.545,137.853,44.036Z" transform="translate(78.436 14.125)" fill="#d7e5f2"/>
  <path id="Path_12629" data-name="Path 12629" d="M117.945,85.282c-4.52.872-9.319,1.7-12.8,4.718a24.839,24.839,0,0,0-4.939,6.783L86.058,121.732c-4.316,7.609-8.634,15.223-12.547,23.047a4.155,4.155,0,0,0-.585,1.874,3.826,3.826,0,0,0,1.286,2.414,20.638,20.638,0,0,0,17.472,6.143c.973-5.04,5.764-8.371,8.112-12.935,1.29-2.508,1.809-5.328,2.642-8.023,3.106-10.051,10.481-18.122,17.64-25.83,3.384-3.643,6.847-7.349,11.207-9.74,5.115-2.8,11.049-3.58,16.765-4.745s11.634-2.931,15.678-7.134a16.833,16.833,0,0,0,4.482-13.712c-3.662-.256-7.736-.732-11.268.445-4.1,1.368-8.07,3.237-12.178,4.634a202.326,202.326,0,0,1-26.817,7.111Z" transform="translate(29.966 63.174)" fill="#696880"/>
  <path id="Path_12630" data-name="Path 12630" d="M117.945,85.282c-4.52.872-9.319,1.7-12.8,4.718a24.839,24.839,0,0,0-4.939,6.783L86.058,121.732c-4.316,7.609-8.634,15.223-12.547,23.047a4.155,4.155,0,0,0-.585,1.874,3.826,3.826,0,0,0,1.286,2.414,20.638,20.638,0,0,0,17.472,6.143c.973-5.04,5.764-8.371,8.112-12.935,1.29-2.508,1.809-5.328,2.642-8.023,3.106-10.051,10.481-18.122,17.64-25.83,3.384-3.643,6.847-7.349,11.207-9.74,5.115-2.8,11.049-3.58,16.765-4.745s11.634-2.931,15.678-7.134a16.833,16.833,0,0,0,4.482-13.712c-3.662-.256-7.736-.732-11.268.445-4.1,1.368-8.07,3.237-12.178,4.634a202.326,202.326,0,0,1-26.817,7.111Z" transform="translate(29.966 63.174)" opacity="0.1"/>
  <path id="Path_12631" data-name="Path 12631" d="M67.088,118.927a3.178,3.178,0,0,0-1.115,1.439c-.514,1.751,1.677,2.985,3.431,3.489,3.94,1.134,8.143,2.27,12.073,1.1,2.41-.716,4.507-2.252,6.9-3.019,3.553-1.138,7.4-.492,11.075.164a23.969,23.969,0,0,0-1.588-13.682c-1.178-2.718-5.9-4.041-8.7-4.161-3.07-.13-4.136,2.135-5.908,4.22C78.937,113.558,72.061,114.735,67.088,118.927Z" transform="translate(19.814 108.643)" fill="#3f3d56"/>
  <path id="Path_12632" data-name="Path 12632" d="M108.619,92.4a18.75,18.75,0,0,0-6.1,3.364,17.83,17.83,0,0,0-3.812,6.281,175.426,175.426,0,0,0-7.233,20.631c-1,3.547-1.892,7.136-3.239,10.567-2.69,6.847-7.253,13.4-6.825,20.748a4.92,4.92,0,0,0,.695,2.535,5.822,5.822,0,0,0,2.63,1.781l5.162,2.241c2.77,1.2,6.15,2.359,8.625.629,1.656-1.158,2.318-3.259,2.817-5.217,1.8-7.072,2.919-14.418,6.152-20.962,3.654-7.4,9.832-13.373,13.1-20.946A7.262,7.262,0,0,1,122.4,111.1a6.416,6.416,0,0,1,2.666-1.054c19.388-4.415,39.214-6.829,58.447-11.878,2.734-.718,5.595-1.57,7.546-3.616,2.7-2.837,2.946-7.149,3.032-11.068.054-2.455.043-5.123-1.453-7.071-1.687-2.2-4.712-2.777-7.467-3.067-10.565-1.111-20.309.639-30.715,1.922-9.52,1.173-19.109,6.547-27.991,10.058Q117.539,88.856,108.619,92.4Z" transform="translate(42.176 63.489)" fill="#696880"/>
  <path id="Path_12633" data-name="Path 12633" d="M87.971,113.717c-1.452,3.448-3.019,7.049-5.964,9.356-1.23.964-2.822,1.929-2.871,3.491-.052,1.653,1.684,2.744,3.239,3.3a16.935,16.935,0,0,0,12.334.062,26.151,26.151,0,0,0,6.951-5.062,5.487,5.487,0,0,0,1.6-2.016,5.214,5.214,0,0,0,.18-2.117,54.258,54.258,0,0,0-2.291-12.71c-.1-.325-8.452-1.366-9.192-1.173C89.63,107.461,88.871,111.581,87.971,113.717Z" transform="translate(38.935 112.36)" fill="#3f3d56"/>
  <path id="Path_12634" data-name="Path 12634" d="M178.928,68.729l-50.469,1.553s-44.646,43.481-7.764,56.681c0,0,45.422,7.376,56.292-1.165C176.987,125.8,190.574,72.223,178.928,68.729ZM176.6,83.093l-53.963,3.494s3.882-13.2,19.411-13.2,33-3.494,34.552,4.659S176.6,83.093,176.6,83.093Z" transform="translate(77.882 57.329)" fill="#3f3d56"/>
  <ellipse id="Ellipse_469" data-name="Ellipse 469" cx="50.663" cy="57.457" rx="50.663" ry="57.457" transform="translate(194.694 150.516)" fill="#36334a"/>
  <ellipse id="Ellipse_470" data-name="Ellipse 470" cx="38.24" cy="42.705" rx="38.24" ry="42.705" transform="translate(209.447 165.268)" fill="#3f3d56"/>
  <path id="Path_12635" data-name="Path 12635" d="M165.115,131.351a11.368,11.368,0,0,0-.222-2.219l28.562-14.281-1.941-4.27-28.852,14.056a6.022,6.022,0,0,0-.959-.8l.022,0,8.437-41.988-7.463-.17L157.739,123l.476.1a4.656,4.656,0,0,0-1.113.38L132.149,97.871l-3.527,4.946L154.26,126.4a10.312,10.312,0,0,0-1.135,3.975l-36.149,14.755-.776,6.212L153.88,135.5a8.235,8.235,0,0,0,1.473,2.38l-11.59,39.478h4.27l9.728-37.871a4.433,4.433,0,0,0,1.336.214,4.627,4.627,0,0,0,2.467-.74l20.244,26.751,6.212-4.27L164.3,135.53A10.855,10.855,0,0,0,165.115,131.351Z" transform="translate(92.471 76.04)" fill="#36334a"/>
  <path id="Path_12636" data-name="Path 12636" d="M113.414,35.913c.684-1.717,2.89-2.428,3.612-4.129.777-1.83-.441-4.159.616-5.842s3.547-1.5,5.524-1.17c2.333.387,4.814.647,6.99-.279.968-.412,1.827-1.04,2.764-1.517a9.764,9.764,0,0,1,4.818-1.047,2.186,2.186,0,0,1,1.081.258,2.026,2.026,0,0,1,.7.905c.681,1.474.778,3.315,2.01,4.372a8.418,8.418,0,0,0,2.069,1.073,8.958,8.958,0,0,1,5.022,8.938,18.171,18.171,0,0,0-.305,2.56c.048,1.888,1.282,3.774.652,5.554a4.585,4.585,0,0,1-3.182,2.514,1.826,1.826,0,0,1-1.2.061c-.689-.279-.827-1.164-1.047-1.874a4.6,4.6,0,0,0-4.455-3.139c-1.566.067-3.151.946-4.628.423a6.159,6.159,0,0,1-1.875-1.325,9.282,9.282,0,0,0-4.671-2.383,4.993,4.993,0,0,0-4.733,1.784c-.417.582-.67,1.266-1.068,1.861C118.531,48.853,111.937,39.622,113.414,35.913Z" transform="translate(88.142 -10.285)" fill="#36334a"/>
  <rect id="Rectangle_720" data-name="Rectangle 720" width="26.787" height="29.893" transform="translate(176.642 128.97)" fill="#49be55"/>
  <path id="Path_12637" data-name="Path 12637" d="M123.245,65.584a4.119,4.119,0,0,0-3.6,1.342c-3.4,3.1-7,6.584-7.613,11.138a1.876,1.876,0,0,0,.141,1.233,1.916,1.916,0,0,0,1.674.665,11.139,11.139,0,0,0,8.42-3.718,6.461,6.461,0,0,1,1.916-1.79,5,5,0,0,1,2.288-.284c2.131.07,7,1.161,8.856.1,1.954-1.112,1.417-4.6.5-6.277C133.659,64,126.936,65.544,123.245,65.584Z" transform="translate(86.379 52.316)" fill="#fbbebe"/>
  <path id="Path_12638" data-name="Path 12638" d="M160.533,57.341c1.305,4.2.541,8.929,2.39,12.919,1.228,2.648,3.536,4.783,4.251,7.613a9.756,9.756,0,0,1-1.817,7.812,25.914,25.914,0,0,1-6.014,5.629,29.322,29.322,0,0,1-7.808,4.524,32.146,32.146,0,0,1-8.919,1.254l-19.948.915-3.674-11.014,13-5.091a14.032,14.032,0,0,1,4.02-1.128c2.406-.178,5.34.705,6.885-1.147a5.017,5.017,0,0,0,.908-2.307c1.26-6.471.164-13.317,2.1-19.617.96-3.118,3.731-9.374,7.511-9.924C157.425,47.195,159.627,54.427,160.533,57.341Z" transform="translate(96.509 27.018)" fill="#d7e5f2"/>
</svg>
